G04 #@! TF.GenerationSoftware,KiCad,Pcbnew,(5.0.1)-4*
G04 #@! TF.CreationDate,2019-10-30T18:23:07+01:00*
G04 #@! TF.ProjectId,PCB,5043422E6B696361645F706362000000,rev?*
G04 #@! TF.SameCoordinates,Original*
G04 #@! TF.FileFunction,Copper,L1,Top,Signal*
G04 #@! TF.FilePolarity,Positive*
%FSLAX46Y46*%
G04 Gerber Fmt 4.6, Leading zero omitted, Abs format (unit mm)*
G04 Created by KiCad (PCBNEW (5.0.1)-4) date 30/10/2019 18:23:07*
%MOMM*%
%LPD*%
G01*
G04 APERTURE LIST*
G04 #@! TA.AperFunction,ComponentPad*
%ADD10C,1.400000*%
G04 #@! TD*
G04 #@! TA.AperFunction,Conductor*
%ADD11C,0.100000*%
G04 #@! TD*
G04 #@! TA.AperFunction,SMDPad,CuDef*
%ADD12C,1.150000*%
G04 #@! TD*
G04 #@! TA.AperFunction,SMDPad,CuDef*
%ADD13C,0.975000*%
G04 #@! TD*
G04 #@! TA.AperFunction,SMDPad,CuDef*
%ADD14R,0.400000X1.350000*%
G04 #@! TD*
G04 #@! TA.AperFunction,SMDPad,CuDef*
%ADD15R,1.900000X1.900000*%
G04 #@! TD*
G04 #@! TA.AperFunction,SMDPad,CuDef*
%ADD16R,2.400000X0.740000*%
G04 #@! TD*
G04 #@! TA.AperFunction,SMDPad,CuDef*
%ADD17R,0.450000X1.450000*%
G04 #@! TD*
G04 #@! TA.AperFunction,SMDPad,CuDef*
%ADD18R,1.000000X1.000000*%
G04 #@! TD*
G04 #@! TA.AperFunction,SMDPad,CuDef*
%ADD19R,1.550000X0.600000*%
G04 #@! TD*
G04 #@! TA.AperFunction,SMDPad,CuDef*
%ADD20R,1.560000X0.650000*%
G04 #@! TD*
G04 #@! TA.AperFunction,ComponentPad*
%ADD21R,1.600000X1.600000*%
G04 #@! TD*
G04 #@! TA.AperFunction,ComponentPad*
%ADD22O,1.600000X1.600000*%
G04 #@! TD*
G04 #@! TA.AperFunction,ComponentPad*
%ADD23R,1.800000X1.800000*%
G04 #@! TD*
G04 #@! TA.AperFunction,ComponentPad*
%ADD24C,1.800000*%
G04 #@! TD*
G04 #@! TA.AperFunction,ComponentPad*
%ADD25O,1.700000X1.700000*%
G04 #@! TD*
G04 #@! TA.AperFunction,ComponentPad*
%ADD26R,1.700000X1.700000*%
G04 #@! TD*
G04 #@! TA.AperFunction,ViaPad*
%ADD27C,0.600000*%
G04 #@! TD*
G04 #@! TA.AperFunction,Conductor*
%ADD28C,0.600000*%
G04 #@! TD*
G04 #@! TA.AperFunction,Conductor*
%ADD29C,0.250000*%
G04 #@! TD*
G04 #@! TA.AperFunction,Conductor*
%ADD30C,0.254000*%
G04 #@! TD*
G04 APERTURE END LIST*
D10*
G04 #@! TO.P,BZ1,1*
G04 #@! TO.N,BUZZ*
X111594900Y-115189000D03*
G04 #@! TO.P,BZ1,2*
G04 #@! TO.N,GND*
X111594900Y-117729000D03*
G04 #@! TD*
D11*
G04 #@! TO.N,Net-(C1-Pad1)*
G04 #@! TO.C,C1*
G36*
X147025505Y-112940804D02*
X147049773Y-112944404D01*
X147073572Y-112950365D01*
X147096671Y-112958630D01*
X147118850Y-112969120D01*
X147139893Y-112981732D01*
X147159599Y-112996347D01*
X147177777Y-113012823D01*
X147194253Y-113031001D01*
X147208868Y-113050707D01*
X147221480Y-113071750D01*
X147231970Y-113093929D01*
X147240235Y-113117028D01*
X147246196Y-113140827D01*
X147249796Y-113165095D01*
X147251000Y-113189599D01*
X147251000Y-114089601D01*
X147249796Y-114114105D01*
X147246196Y-114138373D01*
X147240235Y-114162172D01*
X147231970Y-114185271D01*
X147221480Y-114207450D01*
X147208868Y-114228493D01*
X147194253Y-114248199D01*
X147177777Y-114266377D01*
X147159599Y-114282853D01*
X147139893Y-114297468D01*
X147118850Y-114310080D01*
X147096671Y-114320570D01*
X147073572Y-114328835D01*
X147049773Y-114334796D01*
X147025505Y-114338396D01*
X147001001Y-114339600D01*
X146350999Y-114339600D01*
X146326495Y-114338396D01*
X146302227Y-114334796D01*
X146278428Y-114328835D01*
X146255329Y-114320570D01*
X146233150Y-114310080D01*
X146212107Y-114297468D01*
X146192401Y-114282853D01*
X146174223Y-114266377D01*
X146157747Y-114248199D01*
X146143132Y-114228493D01*
X146130520Y-114207450D01*
X146120030Y-114185271D01*
X146111765Y-114162172D01*
X146105804Y-114138373D01*
X146102204Y-114114105D01*
X146101000Y-114089601D01*
X146101000Y-113189599D01*
X146102204Y-113165095D01*
X146105804Y-113140827D01*
X146111765Y-113117028D01*
X146120030Y-113093929D01*
X146130520Y-113071750D01*
X146143132Y-113050707D01*
X146157747Y-113031001D01*
X146174223Y-113012823D01*
X146192401Y-112996347D01*
X146212107Y-112981732D01*
X146233150Y-112969120D01*
X146255329Y-112958630D01*
X146278428Y-112950365D01*
X146302227Y-112944404D01*
X146326495Y-112940804D01*
X146350999Y-112939600D01*
X147001001Y-112939600D01*
X147025505Y-112940804D01*
X147025505Y-112940804D01*
G37*
D12*
G04 #@! TD*
G04 #@! TO.P,C1,1*
G04 #@! TO.N,Net-(C1-Pad1)*
X146676000Y-113639600D03*
D11*
G04 #@! TO.N,GND*
G04 #@! TO.C,C1*
G36*
X149075505Y-112940804D02*
X149099773Y-112944404D01*
X149123572Y-112950365D01*
X149146671Y-112958630D01*
X149168850Y-112969120D01*
X149189893Y-112981732D01*
X149209599Y-112996347D01*
X149227777Y-113012823D01*
X149244253Y-113031001D01*
X149258868Y-113050707D01*
X149271480Y-113071750D01*
X149281970Y-113093929D01*
X149290235Y-113117028D01*
X149296196Y-113140827D01*
X149299796Y-113165095D01*
X149301000Y-113189599D01*
X149301000Y-114089601D01*
X149299796Y-114114105D01*
X149296196Y-114138373D01*
X149290235Y-114162172D01*
X149281970Y-114185271D01*
X149271480Y-114207450D01*
X149258868Y-114228493D01*
X149244253Y-114248199D01*
X149227777Y-114266377D01*
X149209599Y-114282853D01*
X149189893Y-114297468D01*
X149168850Y-114310080D01*
X149146671Y-114320570D01*
X149123572Y-114328835D01*
X149099773Y-114334796D01*
X149075505Y-114338396D01*
X149051001Y-114339600D01*
X148400999Y-114339600D01*
X148376495Y-114338396D01*
X148352227Y-114334796D01*
X148328428Y-114328835D01*
X148305329Y-114320570D01*
X148283150Y-114310080D01*
X148262107Y-114297468D01*
X148242401Y-114282853D01*
X148224223Y-114266377D01*
X148207747Y-114248199D01*
X148193132Y-114228493D01*
X148180520Y-114207450D01*
X148170030Y-114185271D01*
X148161765Y-114162172D01*
X148155804Y-114138373D01*
X148152204Y-114114105D01*
X148151000Y-114089601D01*
X148151000Y-113189599D01*
X148152204Y-113165095D01*
X148155804Y-113140827D01*
X148161765Y-113117028D01*
X148170030Y-113093929D01*
X148180520Y-113071750D01*
X148193132Y-113050707D01*
X148207747Y-113031001D01*
X148224223Y-113012823D01*
X148242401Y-112996347D01*
X148262107Y-112981732D01*
X148283150Y-112969120D01*
X148305329Y-112958630D01*
X148328428Y-112950365D01*
X148352227Y-112944404D01*
X148376495Y-112940804D01*
X148400999Y-112939600D01*
X149051001Y-112939600D01*
X149075505Y-112940804D01*
X149075505Y-112940804D01*
G37*
D12*
G04 #@! TD*
G04 #@! TO.P,C1,2*
G04 #@! TO.N,GND*
X148726000Y-113639600D03*
D11*
G04 #@! TO.N,Net-(C2-Pad1)*
G04 #@! TO.C,C2*
G36*
X154835942Y-101532774D02*
X154859603Y-101536284D01*
X154882807Y-101542096D01*
X154905329Y-101550154D01*
X154926953Y-101560382D01*
X154947470Y-101572679D01*
X154966683Y-101586929D01*
X154984407Y-101602993D01*
X155000471Y-101620717D01*
X155014721Y-101639930D01*
X155027018Y-101660447D01*
X155037246Y-101682071D01*
X155045304Y-101704593D01*
X155051116Y-101727797D01*
X155054626Y-101751458D01*
X155055800Y-101775350D01*
X155055800Y-102262850D01*
X155054626Y-102286742D01*
X155051116Y-102310403D01*
X155045304Y-102333607D01*
X155037246Y-102356129D01*
X155027018Y-102377753D01*
X155014721Y-102398270D01*
X155000471Y-102417483D01*
X154984407Y-102435207D01*
X154966683Y-102451271D01*
X154947470Y-102465521D01*
X154926953Y-102477818D01*
X154905329Y-102488046D01*
X154882807Y-102496104D01*
X154859603Y-102501916D01*
X154835942Y-102505426D01*
X154812050Y-102506600D01*
X153899550Y-102506600D01*
X153875658Y-102505426D01*
X153851997Y-102501916D01*
X153828793Y-102496104D01*
X153806271Y-102488046D01*
X153784647Y-102477818D01*
X153764130Y-102465521D01*
X153744917Y-102451271D01*
X153727193Y-102435207D01*
X153711129Y-102417483D01*
X153696879Y-102398270D01*
X153684582Y-102377753D01*
X153674354Y-102356129D01*
X153666296Y-102333607D01*
X153660484Y-102310403D01*
X153656974Y-102286742D01*
X153655800Y-102262850D01*
X153655800Y-101775350D01*
X153656974Y-101751458D01*
X153660484Y-101727797D01*
X153666296Y-101704593D01*
X153674354Y-101682071D01*
X153684582Y-101660447D01*
X153696879Y-101639930D01*
X153711129Y-101620717D01*
X153727193Y-101602993D01*
X153744917Y-101586929D01*
X153764130Y-101572679D01*
X153784647Y-101560382D01*
X153806271Y-101550154D01*
X153828793Y-101542096D01*
X153851997Y-101536284D01*
X153875658Y-101532774D01*
X153899550Y-101531600D01*
X154812050Y-101531600D01*
X154835942Y-101532774D01*
X154835942Y-101532774D01*
G37*
D13*
G04 #@! TD*
G04 #@! TO.P,C2,1*
G04 #@! TO.N,Net-(C2-Pad1)*
X154355800Y-102019100D03*
D11*
G04 #@! TO.N,BAT-*
G04 #@! TO.C,C2*
G36*
X154835942Y-103407774D02*
X154859603Y-103411284D01*
X154882807Y-103417096D01*
X154905329Y-103425154D01*
X154926953Y-103435382D01*
X154947470Y-103447679D01*
X154966683Y-103461929D01*
X154984407Y-103477993D01*
X155000471Y-103495717D01*
X155014721Y-103514930D01*
X155027018Y-103535447D01*
X155037246Y-103557071D01*
X155045304Y-103579593D01*
X155051116Y-103602797D01*
X155054626Y-103626458D01*
X155055800Y-103650350D01*
X155055800Y-104137850D01*
X155054626Y-104161742D01*
X155051116Y-104185403D01*
X155045304Y-104208607D01*
X155037246Y-104231129D01*
X155027018Y-104252753D01*
X155014721Y-104273270D01*
X155000471Y-104292483D01*
X154984407Y-104310207D01*
X154966683Y-104326271D01*
X154947470Y-104340521D01*
X154926953Y-104352818D01*
X154905329Y-104363046D01*
X154882807Y-104371104D01*
X154859603Y-104376916D01*
X154835942Y-104380426D01*
X154812050Y-104381600D01*
X153899550Y-104381600D01*
X153875658Y-104380426D01*
X153851997Y-104376916D01*
X153828793Y-104371104D01*
X153806271Y-104363046D01*
X153784647Y-104352818D01*
X153764130Y-104340521D01*
X153744917Y-104326271D01*
X153727193Y-104310207D01*
X153711129Y-104292483D01*
X153696879Y-104273270D01*
X153684582Y-104252753D01*
X153674354Y-104231129D01*
X153666296Y-104208607D01*
X153660484Y-104185403D01*
X153656974Y-104161742D01*
X153655800Y-104137850D01*
X153655800Y-103650350D01*
X153656974Y-103626458D01*
X153660484Y-103602797D01*
X153666296Y-103579593D01*
X153674354Y-103557071D01*
X153684582Y-103535447D01*
X153696879Y-103514930D01*
X153711129Y-103495717D01*
X153727193Y-103477993D01*
X153744917Y-103461929D01*
X153764130Y-103447679D01*
X153784647Y-103435382D01*
X153806271Y-103425154D01*
X153828793Y-103417096D01*
X153851997Y-103411284D01*
X153875658Y-103407774D01*
X153899550Y-103406600D01*
X154812050Y-103406600D01*
X154835942Y-103407774D01*
X154835942Y-103407774D01*
G37*
D13*
G04 #@! TD*
G04 #@! TO.P,C2,2*
G04 #@! TO.N,BAT-*
X154355800Y-103894100D03*
D11*
G04 #@! TO.N,GND*
G04 #@! TO.C,C3*
G36*
X171574542Y-113310274D02*
X171598203Y-113313784D01*
X171621407Y-113319596D01*
X171643929Y-113327654D01*
X171665553Y-113337882D01*
X171686070Y-113350179D01*
X171705283Y-113364429D01*
X171723007Y-113380493D01*
X171739071Y-113398217D01*
X171753321Y-113417430D01*
X171765618Y-113437947D01*
X171775846Y-113459571D01*
X171783904Y-113482093D01*
X171789716Y-113505297D01*
X171793226Y-113528958D01*
X171794400Y-113552850D01*
X171794400Y-114040350D01*
X171793226Y-114064242D01*
X171789716Y-114087903D01*
X171783904Y-114111107D01*
X171775846Y-114133629D01*
X171765618Y-114155253D01*
X171753321Y-114175770D01*
X171739071Y-114194983D01*
X171723007Y-114212707D01*
X171705283Y-114228771D01*
X171686070Y-114243021D01*
X171665553Y-114255318D01*
X171643929Y-114265546D01*
X171621407Y-114273604D01*
X171598203Y-114279416D01*
X171574542Y-114282926D01*
X171550650Y-114284100D01*
X170638150Y-114284100D01*
X170614258Y-114282926D01*
X170590597Y-114279416D01*
X170567393Y-114273604D01*
X170544871Y-114265546D01*
X170523247Y-114255318D01*
X170502730Y-114243021D01*
X170483517Y-114228771D01*
X170465793Y-114212707D01*
X170449729Y-114194983D01*
X170435479Y-114175770D01*
X170423182Y-114155253D01*
X170412954Y-114133629D01*
X170404896Y-114111107D01*
X170399084Y-114087903D01*
X170395574Y-114064242D01*
X170394400Y-114040350D01*
X170394400Y-113552850D01*
X170395574Y-113528958D01*
X170399084Y-113505297D01*
X170404896Y-113482093D01*
X170412954Y-113459571D01*
X170423182Y-113437947D01*
X170435479Y-113417430D01*
X170449729Y-113398217D01*
X170465793Y-113380493D01*
X170483517Y-113364429D01*
X170502730Y-113350179D01*
X170523247Y-113337882D01*
X170544871Y-113327654D01*
X170567393Y-113319596D01*
X170590597Y-113313784D01*
X170614258Y-113310274D01*
X170638150Y-113309100D01*
X171550650Y-113309100D01*
X171574542Y-113310274D01*
X171574542Y-113310274D01*
G37*
D13*
G04 #@! TD*
G04 #@! TO.P,C3,2*
G04 #@! TO.N,GND*
X171094400Y-113796600D03*
D11*
G04 #@! TO.N,BAT+*
G04 #@! TO.C,C3*
G36*
X171574542Y-115185274D02*
X171598203Y-115188784D01*
X171621407Y-115194596D01*
X171643929Y-115202654D01*
X171665553Y-115212882D01*
X171686070Y-115225179D01*
X171705283Y-115239429D01*
X171723007Y-115255493D01*
X171739071Y-115273217D01*
X171753321Y-115292430D01*
X171765618Y-115312947D01*
X171775846Y-115334571D01*
X171783904Y-115357093D01*
X171789716Y-115380297D01*
X171793226Y-115403958D01*
X171794400Y-115427850D01*
X171794400Y-115915350D01*
X171793226Y-115939242D01*
X171789716Y-115962903D01*
X171783904Y-115986107D01*
X171775846Y-116008629D01*
X171765618Y-116030253D01*
X171753321Y-116050770D01*
X171739071Y-116069983D01*
X171723007Y-116087707D01*
X171705283Y-116103771D01*
X171686070Y-116118021D01*
X171665553Y-116130318D01*
X171643929Y-116140546D01*
X171621407Y-116148604D01*
X171598203Y-116154416D01*
X171574542Y-116157926D01*
X171550650Y-116159100D01*
X170638150Y-116159100D01*
X170614258Y-116157926D01*
X170590597Y-116154416D01*
X170567393Y-116148604D01*
X170544871Y-116140546D01*
X170523247Y-116130318D01*
X170502730Y-116118021D01*
X170483517Y-116103771D01*
X170465793Y-116087707D01*
X170449729Y-116069983D01*
X170435479Y-116050770D01*
X170423182Y-116030253D01*
X170412954Y-116008629D01*
X170404896Y-115986107D01*
X170399084Y-115962903D01*
X170395574Y-115939242D01*
X170394400Y-115915350D01*
X170394400Y-115427850D01*
X170395574Y-115403958D01*
X170399084Y-115380297D01*
X170404896Y-115357093D01*
X170412954Y-115334571D01*
X170423182Y-115312947D01*
X170435479Y-115292430D01*
X170449729Y-115273217D01*
X170465793Y-115255493D01*
X170483517Y-115239429D01*
X170502730Y-115225179D01*
X170523247Y-115212882D01*
X170544871Y-115202654D01*
X170567393Y-115194596D01*
X170590597Y-115188784D01*
X170614258Y-115185274D01*
X170638150Y-115184100D01*
X171550650Y-115184100D01*
X171574542Y-115185274D01*
X171574542Y-115185274D01*
G37*
D13*
G04 #@! TD*
G04 #@! TO.P,C3,1*
G04 #@! TO.N,BAT+*
X171094400Y-115671600D03*
D11*
G04 #@! TO.N,RST*
G04 #@! TO.C,C4*
G36*
X116329542Y-108729074D02*
X116353203Y-108732584D01*
X116376407Y-108738396D01*
X116398929Y-108746454D01*
X116420553Y-108756682D01*
X116441070Y-108768979D01*
X116460283Y-108783229D01*
X116478007Y-108799293D01*
X116494071Y-108817017D01*
X116508321Y-108836230D01*
X116520618Y-108856747D01*
X116530846Y-108878371D01*
X116538904Y-108900893D01*
X116544716Y-108924097D01*
X116548226Y-108947758D01*
X116549400Y-108971650D01*
X116549400Y-109459150D01*
X116548226Y-109483042D01*
X116544716Y-109506703D01*
X116538904Y-109529907D01*
X116530846Y-109552429D01*
X116520618Y-109574053D01*
X116508321Y-109594570D01*
X116494071Y-109613783D01*
X116478007Y-109631507D01*
X116460283Y-109647571D01*
X116441070Y-109661821D01*
X116420553Y-109674118D01*
X116398929Y-109684346D01*
X116376407Y-109692404D01*
X116353203Y-109698216D01*
X116329542Y-109701726D01*
X116305650Y-109702900D01*
X115393150Y-109702900D01*
X115369258Y-109701726D01*
X115345597Y-109698216D01*
X115322393Y-109692404D01*
X115299871Y-109684346D01*
X115278247Y-109674118D01*
X115257730Y-109661821D01*
X115238517Y-109647571D01*
X115220793Y-109631507D01*
X115204729Y-109613783D01*
X115190479Y-109594570D01*
X115178182Y-109574053D01*
X115167954Y-109552429D01*
X115159896Y-109529907D01*
X115154084Y-109506703D01*
X115150574Y-109483042D01*
X115149400Y-109459150D01*
X115149400Y-108971650D01*
X115150574Y-108947758D01*
X115154084Y-108924097D01*
X115159896Y-108900893D01*
X115167954Y-108878371D01*
X115178182Y-108856747D01*
X115190479Y-108836230D01*
X115204729Y-108817017D01*
X115220793Y-108799293D01*
X115238517Y-108783229D01*
X115257730Y-108768979D01*
X115278247Y-108756682D01*
X115299871Y-108746454D01*
X115322393Y-108738396D01*
X115345597Y-108732584D01*
X115369258Y-108729074D01*
X115393150Y-108727900D01*
X116305650Y-108727900D01*
X116329542Y-108729074D01*
X116329542Y-108729074D01*
G37*
D13*
G04 #@! TD*
G04 #@! TO.P,C4,1*
G04 #@! TO.N,RST*
X115849400Y-109215400D03*
D11*
G04 #@! TO.N,GND*
G04 #@! TO.C,C4*
G36*
X116329542Y-106854074D02*
X116353203Y-106857584D01*
X116376407Y-106863396D01*
X116398929Y-106871454D01*
X116420553Y-106881682D01*
X116441070Y-106893979D01*
X116460283Y-106908229D01*
X116478007Y-106924293D01*
X116494071Y-106942017D01*
X116508321Y-106961230D01*
X116520618Y-106981747D01*
X116530846Y-107003371D01*
X116538904Y-107025893D01*
X116544716Y-107049097D01*
X116548226Y-107072758D01*
X116549400Y-107096650D01*
X116549400Y-107584150D01*
X116548226Y-107608042D01*
X116544716Y-107631703D01*
X116538904Y-107654907D01*
X116530846Y-107677429D01*
X116520618Y-107699053D01*
X116508321Y-107719570D01*
X116494071Y-107738783D01*
X116478007Y-107756507D01*
X116460283Y-107772571D01*
X116441070Y-107786821D01*
X116420553Y-107799118D01*
X116398929Y-107809346D01*
X116376407Y-107817404D01*
X116353203Y-107823216D01*
X116329542Y-107826726D01*
X116305650Y-107827900D01*
X115393150Y-107827900D01*
X115369258Y-107826726D01*
X115345597Y-107823216D01*
X115322393Y-107817404D01*
X115299871Y-107809346D01*
X115278247Y-107799118D01*
X115257730Y-107786821D01*
X115238517Y-107772571D01*
X115220793Y-107756507D01*
X115204729Y-107738783D01*
X115190479Y-107719570D01*
X115178182Y-107699053D01*
X115167954Y-107677429D01*
X115159896Y-107654907D01*
X115154084Y-107631703D01*
X115150574Y-107608042D01*
X115149400Y-107584150D01*
X115149400Y-107096650D01*
X115150574Y-107072758D01*
X115154084Y-107049097D01*
X115159896Y-107025893D01*
X115167954Y-107003371D01*
X115178182Y-106981747D01*
X115190479Y-106961230D01*
X115204729Y-106942017D01*
X115220793Y-106924293D01*
X115238517Y-106908229D01*
X115257730Y-106893979D01*
X115278247Y-106881682D01*
X115299871Y-106871454D01*
X115322393Y-106863396D01*
X115345597Y-106857584D01*
X115369258Y-106854074D01*
X115393150Y-106852900D01*
X116305650Y-106852900D01*
X116329542Y-106854074D01*
X116329542Y-106854074D01*
G37*
D13*
G04 #@! TD*
G04 #@! TO.P,C4,2*
G04 #@! TO.N,GND*
X115849400Y-107340400D03*
D11*
G04 #@! TO.N,Net-(D1-Pad1)*
G04 #@! TO.C,D1*
G36*
X146196305Y-103072904D02*
X146220573Y-103076504D01*
X146244372Y-103082465D01*
X146267471Y-103090730D01*
X146289650Y-103101220D01*
X146310693Y-103113832D01*
X146330399Y-103128447D01*
X146348577Y-103144923D01*
X146365053Y-103163101D01*
X146379668Y-103182807D01*
X146392280Y-103203850D01*
X146402770Y-103226029D01*
X146411035Y-103249128D01*
X146416996Y-103272927D01*
X146420596Y-103297195D01*
X146421800Y-103321699D01*
X146421800Y-104221701D01*
X146420596Y-104246205D01*
X146416996Y-104270473D01*
X146411035Y-104294272D01*
X146402770Y-104317371D01*
X146392280Y-104339550D01*
X146379668Y-104360593D01*
X146365053Y-104380299D01*
X146348577Y-104398477D01*
X146330399Y-104414953D01*
X146310693Y-104429568D01*
X146289650Y-104442180D01*
X146267471Y-104452670D01*
X146244372Y-104460935D01*
X146220573Y-104466896D01*
X146196305Y-104470496D01*
X146171801Y-104471700D01*
X145521799Y-104471700D01*
X145497295Y-104470496D01*
X145473027Y-104466896D01*
X145449228Y-104460935D01*
X145426129Y-104452670D01*
X145403950Y-104442180D01*
X145382907Y-104429568D01*
X145363201Y-104414953D01*
X145345023Y-104398477D01*
X145328547Y-104380299D01*
X145313932Y-104360593D01*
X145301320Y-104339550D01*
X145290830Y-104317371D01*
X145282565Y-104294272D01*
X145276604Y-104270473D01*
X145273004Y-104246205D01*
X145271800Y-104221701D01*
X145271800Y-103321699D01*
X145273004Y-103297195D01*
X145276604Y-103272927D01*
X145282565Y-103249128D01*
X145290830Y-103226029D01*
X145301320Y-103203850D01*
X145313932Y-103182807D01*
X145328547Y-103163101D01*
X145345023Y-103144923D01*
X145363201Y-103128447D01*
X145382907Y-103113832D01*
X145403950Y-103101220D01*
X145426129Y-103090730D01*
X145449228Y-103082465D01*
X145473027Y-103076504D01*
X145497295Y-103072904D01*
X145521799Y-103071700D01*
X146171801Y-103071700D01*
X146196305Y-103072904D01*
X146196305Y-103072904D01*
G37*
D12*
G04 #@! TD*
G04 #@! TO.P,D1,1*
G04 #@! TO.N,Net-(D1-Pad1)*
X145846800Y-103771700D03*
D11*
G04 #@! TO.N,Net-(C1-Pad1)*
G04 #@! TO.C,D1*
G36*
X144146305Y-103072904D02*
X144170573Y-103076504D01*
X144194372Y-103082465D01*
X144217471Y-103090730D01*
X144239650Y-103101220D01*
X144260693Y-103113832D01*
X144280399Y-103128447D01*
X144298577Y-103144923D01*
X144315053Y-103163101D01*
X144329668Y-103182807D01*
X144342280Y-103203850D01*
X144352770Y-103226029D01*
X144361035Y-103249128D01*
X144366996Y-103272927D01*
X144370596Y-103297195D01*
X144371800Y-103321699D01*
X144371800Y-104221701D01*
X144370596Y-104246205D01*
X144366996Y-104270473D01*
X144361035Y-104294272D01*
X144352770Y-104317371D01*
X144342280Y-104339550D01*
X144329668Y-104360593D01*
X144315053Y-104380299D01*
X144298577Y-104398477D01*
X144280399Y-104414953D01*
X144260693Y-104429568D01*
X144239650Y-104442180D01*
X144217471Y-104452670D01*
X144194372Y-104460935D01*
X144170573Y-104466896D01*
X144146305Y-104470496D01*
X144121801Y-104471700D01*
X143471799Y-104471700D01*
X143447295Y-104470496D01*
X143423027Y-104466896D01*
X143399228Y-104460935D01*
X143376129Y-104452670D01*
X143353950Y-104442180D01*
X143332907Y-104429568D01*
X143313201Y-104414953D01*
X143295023Y-104398477D01*
X143278547Y-104380299D01*
X143263932Y-104360593D01*
X143251320Y-104339550D01*
X143240830Y-104317371D01*
X143232565Y-104294272D01*
X143226604Y-104270473D01*
X143223004Y-104246205D01*
X143221800Y-104221701D01*
X143221800Y-103321699D01*
X143223004Y-103297195D01*
X143226604Y-103272927D01*
X143232565Y-103249128D01*
X143240830Y-103226029D01*
X143251320Y-103203850D01*
X143263932Y-103182807D01*
X143278547Y-103163101D01*
X143295023Y-103144923D01*
X143313201Y-103128447D01*
X143332907Y-103113832D01*
X143353950Y-103101220D01*
X143376129Y-103090730D01*
X143399228Y-103082465D01*
X143423027Y-103076504D01*
X143447295Y-103072904D01*
X143471799Y-103071700D01*
X144121801Y-103071700D01*
X144146305Y-103072904D01*
X144146305Y-103072904D01*
G37*
D12*
G04 #@! TD*
G04 #@! TO.P,D1,2*
G04 #@! TO.N,Net-(C1-Pad1)*
X143796800Y-103771700D03*
D11*
G04 #@! TO.N,Net-(C1-Pad1)*
G04 #@! TO.C,D2*
G36*
X144197105Y-101091704D02*
X144221373Y-101095304D01*
X144245172Y-101101265D01*
X144268271Y-101109530D01*
X144290450Y-101120020D01*
X144311493Y-101132632D01*
X144331199Y-101147247D01*
X144349377Y-101163723D01*
X144365853Y-101181901D01*
X144380468Y-101201607D01*
X144393080Y-101222650D01*
X144403570Y-101244829D01*
X144411835Y-101267928D01*
X144417796Y-101291727D01*
X144421396Y-101315995D01*
X144422600Y-101340499D01*
X144422600Y-102240501D01*
X144421396Y-102265005D01*
X144417796Y-102289273D01*
X144411835Y-102313072D01*
X144403570Y-102336171D01*
X144393080Y-102358350D01*
X144380468Y-102379393D01*
X144365853Y-102399099D01*
X144349377Y-102417277D01*
X144331199Y-102433753D01*
X144311493Y-102448368D01*
X144290450Y-102460980D01*
X144268271Y-102471470D01*
X144245172Y-102479735D01*
X144221373Y-102485696D01*
X144197105Y-102489296D01*
X144172601Y-102490500D01*
X143522599Y-102490500D01*
X143498095Y-102489296D01*
X143473827Y-102485696D01*
X143450028Y-102479735D01*
X143426929Y-102471470D01*
X143404750Y-102460980D01*
X143383707Y-102448368D01*
X143364001Y-102433753D01*
X143345823Y-102417277D01*
X143329347Y-102399099D01*
X143314732Y-102379393D01*
X143302120Y-102358350D01*
X143291630Y-102336171D01*
X143283365Y-102313072D01*
X143277404Y-102289273D01*
X143273804Y-102265005D01*
X143272600Y-102240501D01*
X143272600Y-101340499D01*
X143273804Y-101315995D01*
X143277404Y-101291727D01*
X143283365Y-101267928D01*
X143291630Y-101244829D01*
X143302120Y-101222650D01*
X143314732Y-101201607D01*
X143329347Y-101181901D01*
X143345823Y-101163723D01*
X143364001Y-101147247D01*
X143383707Y-101132632D01*
X143404750Y-101120020D01*
X143426929Y-101109530D01*
X143450028Y-101101265D01*
X143473827Y-101095304D01*
X143498095Y-101091704D01*
X143522599Y-101090500D01*
X144172601Y-101090500D01*
X144197105Y-101091704D01*
X144197105Y-101091704D01*
G37*
D12*
G04 #@! TD*
G04 #@! TO.P,D2,2*
G04 #@! TO.N,Net-(C1-Pad1)*
X143847600Y-101790500D03*
D11*
G04 #@! TO.N,Net-(D2-Pad1)*
G04 #@! TO.C,D2*
G36*
X146247105Y-101091704D02*
X146271373Y-101095304D01*
X146295172Y-101101265D01*
X146318271Y-101109530D01*
X146340450Y-101120020D01*
X146361493Y-101132632D01*
X146381199Y-101147247D01*
X146399377Y-101163723D01*
X146415853Y-101181901D01*
X146430468Y-101201607D01*
X146443080Y-101222650D01*
X146453570Y-101244829D01*
X146461835Y-101267928D01*
X146467796Y-101291727D01*
X146471396Y-101315995D01*
X146472600Y-101340499D01*
X146472600Y-102240501D01*
X146471396Y-102265005D01*
X146467796Y-102289273D01*
X146461835Y-102313072D01*
X146453570Y-102336171D01*
X146443080Y-102358350D01*
X146430468Y-102379393D01*
X146415853Y-102399099D01*
X146399377Y-102417277D01*
X146381199Y-102433753D01*
X146361493Y-102448368D01*
X146340450Y-102460980D01*
X146318271Y-102471470D01*
X146295172Y-102479735D01*
X146271373Y-102485696D01*
X146247105Y-102489296D01*
X146222601Y-102490500D01*
X145572599Y-102490500D01*
X145548095Y-102489296D01*
X145523827Y-102485696D01*
X145500028Y-102479735D01*
X145476929Y-102471470D01*
X145454750Y-102460980D01*
X145433707Y-102448368D01*
X145414001Y-102433753D01*
X145395823Y-102417277D01*
X145379347Y-102399099D01*
X145364732Y-102379393D01*
X145352120Y-102358350D01*
X145341630Y-102336171D01*
X145333365Y-102313072D01*
X145327404Y-102289273D01*
X145323804Y-102265005D01*
X145322600Y-102240501D01*
X145322600Y-101340499D01*
X145323804Y-101315995D01*
X145327404Y-101291727D01*
X145333365Y-101267928D01*
X145341630Y-101244829D01*
X145352120Y-101222650D01*
X145364732Y-101201607D01*
X145379347Y-101181901D01*
X145395823Y-101163723D01*
X145414001Y-101147247D01*
X145433707Y-101132632D01*
X145454750Y-101120020D01*
X145476929Y-101109530D01*
X145500028Y-101101265D01*
X145523827Y-101095304D01*
X145548095Y-101091704D01*
X145572599Y-101090500D01*
X146222601Y-101090500D01*
X146247105Y-101091704D01*
X146247105Y-101091704D01*
G37*
D12*
G04 #@! TD*
G04 #@! TO.P,D2,1*
G04 #@! TO.N,Net-(D2-Pad1)*
X145897600Y-101790500D03*
D14*
G04 #@! TO.P,J1,5*
G04 #@! TO.N,GND*
X148924800Y-115816000D03*
G04 #@! TO.P,J1,4*
G04 #@! TO.N,Net-(J1-Pad4)*
X148274800Y-115816000D03*
G04 #@! TO.P,J1,1*
G04 #@! TO.N,Net-(C1-Pad1)*
X146324800Y-115816000D03*
G04 #@! TO.P,J1,2*
G04 #@! TO.N,Net-(J1-Pad2)*
X146974800Y-115816000D03*
G04 #@! TO.P,J1,3*
G04 #@! TO.N,Net-(J1-Pad3)*
X147624800Y-115816000D03*
D15*
G04 #@! TO.P,J1,6*
G04 #@! TO.N,Net-(J1-Pad6)*
X143674800Y-118491000D03*
X151574800Y-118491000D03*
G04 #@! TD*
D16*
G04 #@! TO.P,J2,1*
G04 #@! TO.N,VCC*
X132461000Y-113131600D03*
G04 #@! TO.P,J2,2*
G04 #@! TO.N,GND*
X136361000Y-113131600D03*
G04 #@! TO.P,J2,3*
G04 #@! TO.N,SCK*
X132461000Y-114401600D03*
G04 #@! TO.P,J2,4*
G04 #@! TO.N,RST*
X136361000Y-114401600D03*
G04 #@! TO.P,J2,5*
G04 #@! TO.N,MISO*
X132461000Y-115671600D03*
G04 #@! TO.P,J2,6*
G04 #@! TO.N,MOSI*
X136361000Y-115671600D03*
G04 #@! TD*
D17*
G04 #@! TO.P,Q1,1*
G04 #@! TO.N,Net-(Q1-Pad1)*
X172913400Y-108690200D03*
G04 #@! TO.P,Q1,2*
G04 #@! TO.N,BAT-*
X173563400Y-108690200D03*
G04 #@! TO.P,Q1,3*
X174213400Y-108690200D03*
G04 #@! TO.P,Q1,4*
G04 #@! TO.N,OD*
X174863400Y-108690200D03*
G04 #@! TO.P,Q1,5*
G04 #@! TO.N,OC*
X174863400Y-102790200D03*
G04 #@! TO.P,Q1,6*
G04 #@! TO.N,GND*
X174213400Y-102790200D03*
G04 #@! TO.P,Q1,7*
X173563400Y-102790200D03*
G04 #@! TO.P,Q1,8*
G04 #@! TO.N,Net-(Q1-Pad8)*
X172913400Y-102790200D03*
G04 #@! TD*
D11*
G04 #@! TO.N,Net-(D1-Pad1)*
G04 #@! TO.C,R1*
G36*
X148028805Y-103060204D02*
X148053073Y-103063804D01*
X148076872Y-103069765D01*
X148099971Y-103078030D01*
X148122150Y-103088520D01*
X148143193Y-103101132D01*
X148162899Y-103115747D01*
X148181077Y-103132223D01*
X148197553Y-103150401D01*
X148212168Y-103170107D01*
X148224780Y-103191150D01*
X148235270Y-103213329D01*
X148243535Y-103236428D01*
X148249496Y-103260227D01*
X148253096Y-103284495D01*
X148254300Y-103308999D01*
X148254300Y-104209001D01*
X148253096Y-104233505D01*
X148249496Y-104257773D01*
X148243535Y-104281572D01*
X148235270Y-104304671D01*
X148224780Y-104326850D01*
X148212168Y-104347893D01*
X148197553Y-104367599D01*
X148181077Y-104385777D01*
X148162899Y-104402253D01*
X148143193Y-104416868D01*
X148122150Y-104429480D01*
X148099971Y-104439970D01*
X148076872Y-104448235D01*
X148053073Y-104454196D01*
X148028805Y-104457796D01*
X148004301Y-104459000D01*
X147354299Y-104459000D01*
X147329795Y-104457796D01*
X147305527Y-104454196D01*
X147281728Y-104448235D01*
X147258629Y-104439970D01*
X147236450Y-104429480D01*
X147215407Y-104416868D01*
X147195701Y-104402253D01*
X147177523Y-104385777D01*
X147161047Y-104367599D01*
X147146432Y-104347893D01*
X147133820Y-104326850D01*
X147123330Y-104304671D01*
X147115065Y-104281572D01*
X147109104Y-104257773D01*
X147105504Y-104233505D01*
X147104300Y-104209001D01*
X147104300Y-103308999D01*
X147105504Y-103284495D01*
X147109104Y-103260227D01*
X147115065Y-103236428D01*
X147123330Y-103213329D01*
X147133820Y-103191150D01*
X147146432Y-103170107D01*
X147161047Y-103150401D01*
X147177523Y-103132223D01*
X147195701Y-103115747D01*
X147215407Y-103101132D01*
X147236450Y-103088520D01*
X147258629Y-103078030D01*
X147281728Y-103069765D01*
X147305527Y-103063804D01*
X147329795Y-103060204D01*
X147354299Y-103059000D01*
X148004301Y-103059000D01*
X148028805Y-103060204D01*
X148028805Y-103060204D01*
G37*
D12*
G04 #@! TD*
G04 #@! TO.P,R1,1*
G04 #@! TO.N,Net-(D1-Pad1)*
X147679300Y-103759000D03*
D11*
G04 #@! TO.N,Net-(R1-Pad2)*
G04 #@! TO.C,R1*
G36*
X150078805Y-103060204D02*
X150103073Y-103063804D01*
X150126872Y-103069765D01*
X150149971Y-103078030D01*
X150172150Y-103088520D01*
X150193193Y-103101132D01*
X150212899Y-103115747D01*
X150231077Y-103132223D01*
X150247553Y-103150401D01*
X150262168Y-103170107D01*
X150274780Y-103191150D01*
X150285270Y-103213329D01*
X150293535Y-103236428D01*
X150299496Y-103260227D01*
X150303096Y-103284495D01*
X150304300Y-103308999D01*
X150304300Y-104209001D01*
X150303096Y-104233505D01*
X150299496Y-104257773D01*
X150293535Y-104281572D01*
X150285270Y-104304671D01*
X150274780Y-104326850D01*
X150262168Y-104347893D01*
X150247553Y-104367599D01*
X150231077Y-104385777D01*
X150212899Y-104402253D01*
X150193193Y-104416868D01*
X150172150Y-104429480D01*
X150149971Y-104439970D01*
X150126872Y-104448235D01*
X150103073Y-104454196D01*
X150078805Y-104457796D01*
X150054301Y-104459000D01*
X149404299Y-104459000D01*
X149379795Y-104457796D01*
X149355527Y-104454196D01*
X149331728Y-104448235D01*
X149308629Y-104439970D01*
X149286450Y-104429480D01*
X149265407Y-104416868D01*
X149245701Y-104402253D01*
X149227523Y-104385777D01*
X149211047Y-104367599D01*
X149196432Y-104347893D01*
X149183820Y-104326850D01*
X149173330Y-104304671D01*
X149165065Y-104281572D01*
X149159104Y-104257773D01*
X149155504Y-104233505D01*
X149154300Y-104209001D01*
X149154300Y-103308999D01*
X149155504Y-103284495D01*
X149159104Y-103260227D01*
X149165065Y-103236428D01*
X149173330Y-103213329D01*
X149183820Y-103191150D01*
X149196432Y-103170107D01*
X149211047Y-103150401D01*
X149227523Y-103132223D01*
X149245701Y-103115747D01*
X149265407Y-103101132D01*
X149286450Y-103088520D01*
X149308629Y-103078030D01*
X149331728Y-103069765D01*
X149355527Y-103063804D01*
X149379795Y-103060204D01*
X149404299Y-103059000D01*
X150054301Y-103059000D01*
X150078805Y-103060204D01*
X150078805Y-103060204D01*
G37*
D12*
G04 #@! TD*
G04 #@! TO.P,R1,2*
G04 #@! TO.N,Net-(R1-Pad2)*
X149729300Y-103759000D03*
D11*
G04 #@! TO.N,BAT+*
G04 #@! TO.C,R2*
G36*
X155147805Y-112100604D02*
X155172073Y-112104204D01*
X155195872Y-112110165D01*
X155218971Y-112118430D01*
X155241150Y-112128920D01*
X155262193Y-112141532D01*
X155281899Y-112156147D01*
X155300077Y-112172623D01*
X155316553Y-112190801D01*
X155331168Y-112210507D01*
X155343780Y-112231550D01*
X155354270Y-112253729D01*
X155362535Y-112276828D01*
X155368496Y-112300627D01*
X155372096Y-112324895D01*
X155373300Y-112349399D01*
X155373300Y-112999401D01*
X155372096Y-113023905D01*
X155368496Y-113048173D01*
X155362535Y-113071972D01*
X155354270Y-113095071D01*
X155343780Y-113117250D01*
X155331168Y-113138293D01*
X155316553Y-113157999D01*
X155300077Y-113176177D01*
X155281899Y-113192653D01*
X155262193Y-113207268D01*
X155241150Y-113219880D01*
X155218971Y-113230370D01*
X155195872Y-113238635D01*
X155172073Y-113244596D01*
X155147805Y-113248196D01*
X155123301Y-113249400D01*
X154223299Y-113249400D01*
X154198795Y-113248196D01*
X154174527Y-113244596D01*
X154150728Y-113238635D01*
X154127629Y-113230370D01*
X154105450Y-113219880D01*
X154084407Y-113207268D01*
X154064701Y-113192653D01*
X154046523Y-113176177D01*
X154030047Y-113157999D01*
X154015432Y-113138293D01*
X154002820Y-113117250D01*
X153992330Y-113095071D01*
X153984065Y-113071972D01*
X153978104Y-113048173D01*
X153974504Y-113023905D01*
X153973300Y-112999401D01*
X153973300Y-112349399D01*
X153974504Y-112324895D01*
X153978104Y-112300627D01*
X153984065Y-112276828D01*
X153992330Y-112253729D01*
X154002820Y-112231550D01*
X154015432Y-112210507D01*
X154030047Y-112190801D01*
X154046523Y-112172623D01*
X154064701Y-112156147D01*
X154084407Y-112141532D01*
X154105450Y-112128920D01*
X154127629Y-112118430D01*
X154150728Y-112110165D01*
X154174527Y-112104204D01*
X154198795Y-112100604D01*
X154223299Y-112099400D01*
X155123301Y-112099400D01*
X155147805Y-112100604D01*
X155147805Y-112100604D01*
G37*
D12*
G04 #@! TD*
G04 #@! TO.P,R2,2*
G04 #@! TO.N,BAT+*
X154673300Y-112674400D03*
D11*
G04 #@! TO.N,Net-(C2-Pad1)*
G04 #@! TO.C,R2*
G36*
X155147805Y-110050604D02*
X155172073Y-110054204D01*
X155195872Y-110060165D01*
X155218971Y-110068430D01*
X155241150Y-110078920D01*
X155262193Y-110091532D01*
X155281899Y-110106147D01*
X155300077Y-110122623D01*
X155316553Y-110140801D01*
X155331168Y-110160507D01*
X155343780Y-110181550D01*
X155354270Y-110203729D01*
X155362535Y-110226828D01*
X155368496Y-110250627D01*
X155372096Y-110274895D01*
X155373300Y-110299399D01*
X155373300Y-110949401D01*
X155372096Y-110973905D01*
X155368496Y-110998173D01*
X155362535Y-111021972D01*
X155354270Y-111045071D01*
X155343780Y-111067250D01*
X155331168Y-111088293D01*
X155316553Y-111107999D01*
X155300077Y-111126177D01*
X155281899Y-111142653D01*
X155262193Y-111157268D01*
X155241150Y-111169880D01*
X155218971Y-111180370D01*
X155195872Y-111188635D01*
X155172073Y-111194596D01*
X155147805Y-111198196D01*
X155123301Y-111199400D01*
X154223299Y-111199400D01*
X154198795Y-111198196D01*
X154174527Y-111194596D01*
X154150728Y-111188635D01*
X154127629Y-111180370D01*
X154105450Y-111169880D01*
X154084407Y-111157268D01*
X154064701Y-111142653D01*
X154046523Y-111126177D01*
X154030047Y-111107999D01*
X154015432Y-111088293D01*
X154002820Y-111067250D01*
X153992330Y-111045071D01*
X153984065Y-111021972D01*
X153978104Y-110998173D01*
X153974504Y-110973905D01*
X153973300Y-110949401D01*
X153973300Y-110299399D01*
X153974504Y-110274895D01*
X153978104Y-110250627D01*
X153984065Y-110226828D01*
X153992330Y-110203729D01*
X154002820Y-110181550D01*
X154015432Y-110160507D01*
X154030047Y-110140801D01*
X154046523Y-110122623D01*
X154064701Y-110106147D01*
X154084407Y-110091532D01*
X154105450Y-110078920D01*
X154127629Y-110068430D01*
X154150728Y-110060165D01*
X154174527Y-110054204D01*
X154198795Y-110050604D01*
X154223299Y-110049400D01*
X155123301Y-110049400D01*
X155147805Y-110050604D01*
X155147805Y-110050604D01*
G37*
D12*
G04 #@! TD*
G04 #@! TO.P,R2,1*
G04 #@! TO.N,Net-(C2-Pad1)*
X154673300Y-110624400D03*
D11*
G04 #@! TO.N,Net-(D2-Pad1)*
G04 #@! TO.C,R3*
G36*
X148032505Y-101091704D02*
X148056773Y-101095304D01*
X148080572Y-101101265D01*
X148103671Y-101109530D01*
X148125850Y-101120020D01*
X148146893Y-101132632D01*
X148166599Y-101147247D01*
X148184777Y-101163723D01*
X148201253Y-101181901D01*
X148215868Y-101201607D01*
X148228480Y-101222650D01*
X148238970Y-101244829D01*
X148247235Y-101267928D01*
X148253196Y-101291727D01*
X148256796Y-101315995D01*
X148258000Y-101340499D01*
X148258000Y-102240501D01*
X148256796Y-102265005D01*
X148253196Y-102289273D01*
X148247235Y-102313072D01*
X148238970Y-102336171D01*
X148228480Y-102358350D01*
X148215868Y-102379393D01*
X148201253Y-102399099D01*
X148184777Y-102417277D01*
X148166599Y-102433753D01*
X148146893Y-102448368D01*
X148125850Y-102460980D01*
X148103671Y-102471470D01*
X148080572Y-102479735D01*
X148056773Y-102485696D01*
X148032505Y-102489296D01*
X148008001Y-102490500D01*
X147357999Y-102490500D01*
X147333495Y-102489296D01*
X147309227Y-102485696D01*
X147285428Y-102479735D01*
X147262329Y-102471470D01*
X147240150Y-102460980D01*
X147219107Y-102448368D01*
X147199401Y-102433753D01*
X147181223Y-102417277D01*
X147164747Y-102399099D01*
X147150132Y-102379393D01*
X147137520Y-102358350D01*
X147127030Y-102336171D01*
X147118765Y-102313072D01*
X147112804Y-102289273D01*
X147109204Y-102265005D01*
X147108000Y-102240501D01*
X147108000Y-101340499D01*
X147109204Y-101315995D01*
X147112804Y-101291727D01*
X147118765Y-101267928D01*
X147127030Y-101244829D01*
X147137520Y-101222650D01*
X147150132Y-101201607D01*
X147164747Y-101181901D01*
X147181223Y-101163723D01*
X147199401Y-101147247D01*
X147219107Y-101132632D01*
X147240150Y-101120020D01*
X147262329Y-101109530D01*
X147285428Y-101101265D01*
X147309227Y-101095304D01*
X147333495Y-101091704D01*
X147357999Y-101090500D01*
X148008001Y-101090500D01*
X148032505Y-101091704D01*
X148032505Y-101091704D01*
G37*
D12*
G04 #@! TD*
G04 #@! TO.P,R3,1*
G04 #@! TO.N,Net-(D2-Pad1)*
X147683000Y-101790500D03*
D11*
G04 #@! TO.N,Net-(R3-Pad2)*
G04 #@! TO.C,R3*
G36*
X150082505Y-101091704D02*
X150106773Y-101095304D01*
X150130572Y-101101265D01*
X150153671Y-101109530D01*
X150175850Y-101120020D01*
X150196893Y-101132632D01*
X150216599Y-101147247D01*
X150234777Y-101163723D01*
X150251253Y-101181901D01*
X150265868Y-101201607D01*
X150278480Y-101222650D01*
X150288970Y-101244829D01*
X150297235Y-101267928D01*
X150303196Y-101291727D01*
X150306796Y-101315995D01*
X150308000Y-101340499D01*
X150308000Y-102240501D01*
X150306796Y-102265005D01*
X150303196Y-102289273D01*
X150297235Y-102313072D01*
X150288970Y-102336171D01*
X150278480Y-102358350D01*
X150265868Y-102379393D01*
X150251253Y-102399099D01*
X150234777Y-102417277D01*
X150216599Y-102433753D01*
X150196893Y-102448368D01*
X150175850Y-102460980D01*
X150153671Y-102471470D01*
X150130572Y-102479735D01*
X150106773Y-102485696D01*
X150082505Y-102489296D01*
X150058001Y-102490500D01*
X149407999Y-102490500D01*
X149383495Y-102489296D01*
X149359227Y-102485696D01*
X149335428Y-102479735D01*
X149312329Y-102471470D01*
X149290150Y-102460980D01*
X149269107Y-102448368D01*
X149249401Y-102433753D01*
X149231223Y-102417277D01*
X149214747Y-102399099D01*
X149200132Y-102379393D01*
X149187520Y-102358350D01*
X149177030Y-102336171D01*
X149168765Y-102313072D01*
X149162804Y-102289273D01*
X149159204Y-102265005D01*
X149158000Y-102240501D01*
X149158000Y-101340499D01*
X149159204Y-101315995D01*
X149162804Y-101291727D01*
X149168765Y-101267928D01*
X149177030Y-101244829D01*
X149187520Y-101222650D01*
X149200132Y-101201607D01*
X149214747Y-101181901D01*
X149231223Y-101163723D01*
X149249401Y-101147247D01*
X149269107Y-101132632D01*
X149290150Y-101120020D01*
X149312329Y-101109530D01*
X149335428Y-101101265D01*
X149359227Y-101095304D01*
X149383495Y-101091704D01*
X149407999Y-101090500D01*
X150058001Y-101090500D01*
X150082505Y-101091704D01*
X150082505Y-101091704D01*
G37*
D12*
G04 #@! TD*
G04 #@! TO.P,R3,2*
G04 #@! TO.N,Net-(R3-Pad2)*
X149733000Y-101790500D03*
D11*
G04 #@! TO.N,Net-(R4-Pad1)*
G04 #@! TO.C,R4*
G36*
X162780505Y-103270404D02*
X162804773Y-103274004D01*
X162828572Y-103279965D01*
X162851671Y-103288230D01*
X162873850Y-103298720D01*
X162894893Y-103311332D01*
X162914599Y-103325947D01*
X162932777Y-103342423D01*
X162949253Y-103360601D01*
X162963868Y-103380307D01*
X162976480Y-103401350D01*
X162986970Y-103423529D01*
X162995235Y-103446628D01*
X163001196Y-103470427D01*
X163004796Y-103494695D01*
X163006000Y-103519199D01*
X163006000Y-104169201D01*
X163004796Y-104193705D01*
X163001196Y-104217973D01*
X162995235Y-104241772D01*
X162986970Y-104264871D01*
X162976480Y-104287050D01*
X162963868Y-104308093D01*
X162949253Y-104327799D01*
X162932777Y-104345977D01*
X162914599Y-104362453D01*
X162894893Y-104377068D01*
X162873850Y-104389680D01*
X162851671Y-104400170D01*
X162828572Y-104408435D01*
X162804773Y-104414396D01*
X162780505Y-104417996D01*
X162756001Y-104419200D01*
X161855999Y-104419200D01*
X161831495Y-104417996D01*
X161807227Y-104414396D01*
X161783428Y-104408435D01*
X161760329Y-104400170D01*
X161738150Y-104389680D01*
X161717107Y-104377068D01*
X161697401Y-104362453D01*
X161679223Y-104345977D01*
X161662747Y-104327799D01*
X161648132Y-104308093D01*
X161635520Y-104287050D01*
X161625030Y-104264871D01*
X161616765Y-104241772D01*
X161610804Y-104217973D01*
X161607204Y-104193705D01*
X161606000Y-104169201D01*
X161606000Y-103519199D01*
X161607204Y-103494695D01*
X161610804Y-103470427D01*
X161616765Y-103446628D01*
X161625030Y-103423529D01*
X161635520Y-103401350D01*
X161648132Y-103380307D01*
X161662747Y-103360601D01*
X161679223Y-103342423D01*
X161697401Y-103325947D01*
X161717107Y-103311332D01*
X161738150Y-103298720D01*
X161760329Y-103288230D01*
X161783428Y-103279965D01*
X161807227Y-103274004D01*
X161831495Y-103270404D01*
X161855999Y-103269200D01*
X162756001Y-103269200D01*
X162780505Y-103270404D01*
X162780505Y-103270404D01*
G37*
D12*
G04 #@! TD*
G04 #@! TO.P,R4,1*
G04 #@! TO.N,Net-(R4-Pad1)*
X162306000Y-103844200D03*
D11*
G04 #@! TO.N,GND*
G04 #@! TO.C,R4*
G36*
X162780505Y-101220404D02*
X162804773Y-101224004D01*
X162828572Y-101229965D01*
X162851671Y-101238230D01*
X162873850Y-101248720D01*
X162894893Y-101261332D01*
X162914599Y-101275947D01*
X162932777Y-101292423D01*
X162949253Y-101310601D01*
X162963868Y-101330307D01*
X162976480Y-101351350D01*
X162986970Y-101373529D01*
X162995235Y-101396628D01*
X163001196Y-101420427D01*
X163004796Y-101444695D01*
X163006000Y-101469199D01*
X163006000Y-102119201D01*
X163004796Y-102143705D01*
X163001196Y-102167973D01*
X162995235Y-102191772D01*
X162986970Y-102214871D01*
X162976480Y-102237050D01*
X162963868Y-102258093D01*
X162949253Y-102277799D01*
X162932777Y-102295977D01*
X162914599Y-102312453D01*
X162894893Y-102327068D01*
X162873850Y-102339680D01*
X162851671Y-102350170D01*
X162828572Y-102358435D01*
X162804773Y-102364396D01*
X162780505Y-102367996D01*
X162756001Y-102369200D01*
X161855999Y-102369200D01*
X161831495Y-102367996D01*
X161807227Y-102364396D01*
X161783428Y-102358435D01*
X161760329Y-102350170D01*
X161738150Y-102339680D01*
X161717107Y-102327068D01*
X161697401Y-102312453D01*
X161679223Y-102295977D01*
X161662747Y-102277799D01*
X161648132Y-102258093D01*
X161635520Y-102237050D01*
X161625030Y-102214871D01*
X161616765Y-102191772D01*
X161610804Y-102167973D01*
X161607204Y-102143705D01*
X161606000Y-102119201D01*
X161606000Y-101469199D01*
X161607204Y-101444695D01*
X161610804Y-101420427D01*
X161616765Y-101396628D01*
X161625030Y-101373529D01*
X161635520Y-101351350D01*
X161648132Y-101330307D01*
X161662747Y-101310601D01*
X161679223Y-101292423D01*
X161697401Y-101275947D01*
X161717107Y-101261332D01*
X161738150Y-101248720D01*
X161760329Y-101238230D01*
X161783428Y-101229965D01*
X161807227Y-101224004D01*
X161831495Y-101220404D01*
X161855999Y-101219200D01*
X162756001Y-101219200D01*
X162780505Y-101220404D01*
X162780505Y-101220404D01*
G37*
D12*
G04 #@! TD*
G04 #@! TO.P,R4,2*
G04 #@! TO.N,GND*
X162306000Y-101794200D03*
D11*
G04 #@! TO.N,GND*
G04 #@! TO.C,R5*
G36*
X142714505Y-110289804D02*
X142738773Y-110293404D01*
X142762572Y-110299365D01*
X142785671Y-110307630D01*
X142807850Y-110318120D01*
X142828893Y-110330732D01*
X142848599Y-110345347D01*
X142866777Y-110361823D01*
X142883253Y-110380001D01*
X142897868Y-110399707D01*
X142910480Y-110420750D01*
X142920970Y-110442929D01*
X142929235Y-110466028D01*
X142935196Y-110489827D01*
X142938796Y-110514095D01*
X142940000Y-110538599D01*
X142940000Y-111188601D01*
X142938796Y-111213105D01*
X142935196Y-111237373D01*
X142929235Y-111261172D01*
X142920970Y-111284271D01*
X142910480Y-111306450D01*
X142897868Y-111327493D01*
X142883253Y-111347199D01*
X142866777Y-111365377D01*
X142848599Y-111381853D01*
X142828893Y-111396468D01*
X142807850Y-111409080D01*
X142785671Y-111419570D01*
X142762572Y-111427835D01*
X142738773Y-111433796D01*
X142714505Y-111437396D01*
X142690001Y-111438600D01*
X141789999Y-111438600D01*
X141765495Y-111437396D01*
X141741227Y-111433796D01*
X141717428Y-111427835D01*
X141694329Y-111419570D01*
X141672150Y-111409080D01*
X141651107Y-111396468D01*
X141631401Y-111381853D01*
X141613223Y-111365377D01*
X141596747Y-111347199D01*
X141582132Y-111327493D01*
X141569520Y-111306450D01*
X141559030Y-111284271D01*
X141550765Y-111261172D01*
X141544804Y-111237373D01*
X141541204Y-111213105D01*
X141540000Y-111188601D01*
X141540000Y-110538599D01*
X141541204Y-110514095D01*
X141544804Y-110489827D01*
X141550765Y-110466028D01*
X141559030Y-110442929D01*
X141569520Y-110420750D01*
X141582132Y-110399707D01*
X141596747Y-110380001D01*
X141613223Y-110361823D01*
X141631401Y-110345347D01*
X141651107Y-110330732D01*
X141672150Y-110318120D01*
X141694329Y-110307630D01*
X141717428Y-110299365D01*
X141741227Y-110293404D01*
X141765495Y-110289804D01*
X141789999Y-110288600D01*
X142690001Y-110288600D01*
X142714505Y-110289804D01*
X142714505Y-110289804D01*
G37*
D12*
G04 #@! TD*
G04 #@! TO.P,R5,2*
G04 #@! TO.N,GND*
X142240000Y-110863600D03*
D11*
G04 #@! TO.N,Net-(R5-Pad1)*
G04 #@! TO.C,R5*
G36*
X142714505Y-108239804D02*
X142738773Y-108243404D01*
X142762572Y-108249365D01*
X142785671Y-108257630D01*
X142807850Y-108268120D01*
X142828893Y-108280732D01*
X142848599Y-108295347D01*
X142866777Y-108311823D01*
X142883253Y-108330001D01*
X142897868Y-108349707D01*
X142910480Y-108370750D01*
X142920970Y-108392929D01*
X142929235Y-108416028D01*
X142935196Y-108439827D01*
X142938796Y-108464095D01*
X142940000Y-108488599D01*
X142940000Y-109138601D01*
X142938796Y-109163105D01*
X142935196Y-109187373D01*
X142929235Y-109211172D01*
X142920970Y-109234271D01*
X142910480Y-109256450D01*
X142897868Y-109277493D01*
X142883253Y-109297199D01*
X142866777Y-109315377D01*
X142848599Y-109331853D01*
X142828893Y-109346468D01*
X142807850Y-109359080D01*
X142785671Y-109369570D01*
X142762572Y-109377835D01*
X142738773Y-109383796D01*
X142714505Y-109387396D01*
X142690001Y-109388600D01*
X141789999Y-109388600D01*
X141765495Y-109387396D01*
X141741227Y-109383796D01*
X141717428Y-109377835D01*
X141694329Y-109369570D01*
X141672150Y-109359080D01*
X141651107Y-109346468D01*
X141631401Y-109331853D01*
X141613223Y-109315377D01*
X141596747Y-109297199D01*
X141582132Y-109277493D01*
X141569520Y-109256450D01*
X141559030Y-109234271D01*
X141550765Y-109211172D01*
X141544804Y-109187373D01*
X141541204Y-109163105D01*
X141540000Y-109138601D01*
X141540000Y-108488599D01*
X141541204Y-108464095D01*
X141544804Y-108439827D01*
X141550765Y-108416028D01*
X141559030Y-108392929D01*
X141569520Y-108370750D01*
X141582132Y-108349707D01*
X141596747Y-108330001D01*
X141613223Y-108311823D01*
X141631401Y-108295347D01*
X141651107Y-108280732D01*
X141672150Y-108268120D01*
X141694329Y-108257630D01*
X141717428Y-108249365D01*
X141741227Y-108243404D01*
X141765495Y-108239804D01*
X141789999Y-108238600D01*
X142690001Y-108238600D01*
X142714505Y-108239804D01*
X142714505Y-108239804D01*
G37*
D12*
G04 #@! TD*
G04 #@! TO.P,R5,1*
G04 #@! TO.N,Net-(R5-Pad1)*
X142240000Y-108813600D03*
D11*
G04 #@! TO.N,GND*
G04 #@! TO.C,R6*
G36*
X116106305Y-104355604D02*
X116130573Y-104359204D01*
X116154372Y-104365165D01*
X116177471Y-104373430D01*
X116199650Y-104383920D01*
X116220693Y-104396532D01*
X116240399Y-104411147D01*
X116258577Y-104427623D01*
X116275053Y-104445801D01*
X116289668Y-104465507D01*
X116302280Y-104486550D01*
X116312770Y-104508729D01*
X116321035Y-104531828D01*
X116326996Y-104555627D01*
X116330596Y-104579895D01*
X116331800Y-104604399D01*
X116331800Y-105504401D01*
X116330596Y-105528905D01*
X116326996Y-105553173D01*
X116321035Y-105576972D01*
X116312770Y-105600071D01*
X116302280Y-105622250D01*
X116289668Y-105643293D01*
X116275053Y-105662999D01*
X116258577Y-105681177D01*
X116240399Y-105697653D01*
X116220693Y-105712268D01*
X116199650Y-105724880D01*
X116177471Y-105735370D01*
X116154372Y-105743635D01*
X116130573Y-105749596D01*
X116106305Y-105753196D01*
X116081801Y-105754400D01*
X115431799Y-105754400D01*
X115407295Y-105753196D01*
X115383027Y-105749596D01*
X115359228Y-105743635D01*
X115336129Y-105735370D01*
X115313950Y-105724880D01*
X115292907Y-105712268D01*
X115273201Y-105697653D01*
X115255023Y-105681177D01*
X115238547Y-105662999D01*
X115223932Y-105643293D01*
X115211320Y-105622250D01*
X115200830Y-105600071D01*
X115192565Y-105576972D01*
X115186604Y-105553173D01*
X115183004Y-105528905D01*
X115181800Y-105504401D01*
X115181800Y-104604399D01*
X115183004Y-104579895D01*
X115186604Y-104555627D01*
X115192565Y-104531828D01*
X115200830Y-104508729D01*
X115211320Y-104486550D01*
X115223932Y-104465507D01*
X115238547Y-104445801D01*
X115255023Y-104427623D01*
X115273201Y-104411147D01*
X115292907Y-104396532D01*
X115313950Y-104383920D01*
X115336129Y-104373430D01*
X115359228Y-104365165D01*
X115383027Y-104359204D01*
X115407295Y-104355604D01*
X115431799Y-104354400D01*
X116081801Y-104354400D01*
X116106305Y-104355604D01*
X116106305Y-104355604D01*
G37*
D12*
G04 #@! TD*
G04 #@! TO.P,R6,2*
G04 #@! TO.N,GND*
X115756800Y-105054400D03*
D11*
G04 #@! TO.N,Net-(D3-Pad1)*
G04 #@! TO.C,R6*
G36*
X114056305Y-104355604D02*
X114080573Y-104359204D01*
X114104372Y-104365165D01*
X114127471Y-104373430D01*
X114149650Y-104383920D01*
X114170693Y-104396532D01*
X114190399Y-104411147D01*
X114208577Y-104427623D01*
X114225053Y-104445801D01*
X114239668Y-104465507D01*
X114252280Y-104486550D01*
X114262770Y-104508729D01*
X114271035Y-104531828D01*
X114276996Y-104555627D01*
X114280596Y-104579895D01*
X114281800Y-104604399D01*
X114281800Y-105504401D01*
X114280596Y-105528905D01*
X114276996Y-105553173D01*
X114271035Y-105576972D01*
X114262770Y-105600071D01*
X114252280Y-105622250D01*
X114239668Y-105643293D01*
X114225053Y-105662999D01*
X114208577Y-105681177D01*
X114190399Y-105697653D01*
X114170693Y-105712268D01*
X114149650Y-105724880D01*
X114127471Y-105735370D01*
X114104372Y-105743635D01*
X114080573Y-105749596D01*
X114056305Y-105753196D01*
X114031801Y-105754400D01*
X113381799Y-105754400D01*
X113357295Y-105753196D01*
X113333027Y-105749596D01*
X113309228Y-105743635D01*
X113286129Y-105735370D01*
X113263950Y-105724880D01*
X113242907Y-105712268D01*
X113223201Y-105697653D01*
X113205023Y-105681177D01*
X113188547Y-105662999D01*
X113173932Y-105643293D01*
X113161320Y-105622250D01*
X113150830Y-105600071D01*
X113142565Y-105576972D01*
X113136604Y-105553173D01*
X113133004Y-105528905D01*
X113131800Y-105504401D01*
X113131800Y-104604399D01*
X113133004Y-104579895D01*
X113136604Y-104555627D01*
X113142565Y-104531828D01*
X113150830Y-104508729D01*
X113161320Y-104486550D01*
X113173932Y-104465507D01*
X113188547Y-104445801D01*
X113205023Y-104427623D01*
X113223201Y-104411147D01*
X113242907Y-104396532D01*
X113263950Y-104383920D01*
X113286129Y-104373430D01*
X113309228Y-104365165D01*
X113333027Y-104359204D01*
X113357295Y-104355604D01*
X113381799Y-104354400D01*
X114031801Y-104354400D01*
X114056305Y-104355604D01*
X114056305Y-104355604D01*
G37*
D12*
G04 #@! TD*
G04 #@! TO.P,R6,1*
G04 #@! TO.N,Net-(D3-Pad1)*
X113706800Y-105054400D03*
D11*
G04 #@! TO.N,VCC*
G04 #@! TO.C,R7*
G36*
X116374705Y-112321804D02*
X116398973Y-112325404D01*
X116422772Y-112331365D01*
X116445871Y-112339630D01*
X116468050Y-112350120D01*
X116489093Y-112362732D01*
X116508799Y-112377347D01*
X116526977Y-112393823D01*
X116543453Y-112412001D01*
X116558068Y-112431707D01*
X116570680Y-112452750D01*
X116581170Y-112474929D01*
X116589435Y-112498028D01*
X116595396Y-112521827D01*
X116598996Y-112546095D01*
X116600200Y-112570599D01*
X116600200Y-113220601D01*
X116598996Y-113245105D01*
X116595396Y-113269373D01*
X116589435Y-113293172D01*
X116581170Y-113316271D01*
X116570680Y-113338450D01*
X116558068Y-113359493D01*
X116543453Y-113379199D01*
X116526977Y-113397377D01*
X116508799Y-113413853D01*
X116489093Y-113428468D01*
X116468050Y-113441080D01*
X116445871Y-113451570D01*
X116422772Y-113459835D01*
X116398973Y-113465796D01*
X116374705Y-113469396D01*
X116350201Y-113470600D01*
X115450199Y-113470600D01*
X115425695Y-113469396D01*
X115401427Y-113465796D01*
X115377628Y-113459835D01*
X115354529Y-113451570D01*
X115332350Y-113441080D01*
X115311307Y-113428468D01*
X115291601Y-113413853D01*
X115273423Y-113397377D01*
X115256947Y-113379199D01*
X115242332Y-113359493D01*
X115229720Y-113338450D01*
X115219230Y-113316271D01*
X115210965Y-113293172D01*
X115205004Y-113269373D01*
X115201404Y-113245105D01*
X115200200Y-113220601D01*
X115200200Y-112570599D01*
X115201404Y-112546095D01*
X115205004Y-112521827D01*
X115210965Y-112498028D01*
X115219230Y-112474929D01*
X115229720Y-112452750D01*
X115242332Y-112431707D01*
X115256947Y-112412001D01*
X115273423Y-112393823D01*
X115291601Y-112377347D01*
X115311307Y-112362732D01*
X115332350Y-112350120D01*
X115354529Y-112339630D01*
X115377628Y-112331365D01*
X115401427Y-112325404D01*
X115425695Y-112321804D01*
X115450199Y-112320600D01*
X116350201Y-112320600D01*
X116374705Y-112321804D01*
X116374705Y-112321804D01*
G37*
D12*
G04 #@! TD*
G04 #@! TO.P,R7,1*
G04 #@! TO.N,VCC*
X115900200Y-112895600D03*
D11*
G04 #@! TO.N,RST*
G04 #@! TO.C,R7*
G36*
X116374705Y-110271804D02*
X116398973Y-110275404D01*
X116422772Y-110281365D01*
X116445871Y-110289630D01*
X116468050Y-110300120D01*
X116489093Y-110312732D01*
X116508799Y-110327347D01*
X116526977Y-110343823D01*
X116543453Y-110362001D01*
X116558068Y-110381707D01*
X116570680Y-110402750D01*
X116581170Y-110424929D01*
X116589435Y-110448028D01*
X116595396Y-110471827D01*
X116598996Y-110496095D01*
X116600200Y-110520599D01*
X116600200Y-111170601D01*
X116598996Y-111195105D01*
X116595396Y-111219373D01*
X116589435Y-111243172D01*
X116581170Y-111266271D01*
X116570680Y-111288450D01*
X116558068Y-111309493D01*
X116543453Y-111329199D01*
X116526977Y-111347377D01*
X116508799Y-111363853D01*
X116489093Y-111378468D01*
X116468050Y-111391080D01*
X116445871Y-111401570D01*
X116422772Y-111409835D01*
X116398973Y-111415796D01*
X116374705Y-111419396D01*
X116350201Y-111420600D01*
X115450199Y-111420600D01*
X115425695Y-111419396D01*
X115401427Y-111415796D01*
X115377628Y-111409835D01*
X115354529Y-111401570D01*
X115332350Y-111391080D01*
X115311307Y-111378468D01*
X115291601Y-111363853D01*
X115273423Y-111347377D01*
X115256947Y-111329199D01*
X115242332Y-111309493D01*
X115229720Y-111288450D01*
X115219230Y-111266271D01*
X115210965Y-111243172D01*
X115205004Y-111219373D01*
X115201404Y-111195105D01*
X115200200Y-111170601D01*
X115200200Y-110520599D01*
X115201404Y-110496095D01*
X115205004Y-110471827D01*
X115210965Y-110448028D01*
X115219230Y-110424929D01*
X115229720Y-110402750D01*
X115242332Y-110381707D01*
X115256947Y-110362001D01*
X115273423Y-110343823D01*
X115291601Y-110327347D01*
X115311307Y-110312732D01*
X115332350Y-110300120D01*
X115354529Y-110289630D01*
X115377628Y-110281365D01*
X115401427Y-110275404D01*
X115425695Y-110271804D01*
X115450199Y-110270600D01*
X116350201Y-110270600D01*
X116374705Y-110271804D01*
X116374705Y-110271804D01*
G37*
D12*
G04 #@! TD*
G04 #@! TO.P,R7,2*
G04 #@! TO.N,RST*
X115900200Y-110845600D03*
D18*
G04 #@! TO.P,TP1,1*
G04 #@! TO.N,Net-(C1-Pad1)*
X141173200Y-118465600D03*
G04 #@! TD*
G04 #@! TO.P,TP2,1*
G04 #@! TO.N,BAT+*
X171119800Y-117906800D03*
G04 #@! TD*
G04 #@! TO.P,TP3,1*
G04 #@! TO.N,OD*
X164934900Y-104317800D03*
G04 #@! TD*
G04 #@! TO.P,TP4,1*
G04 #@! TO.N,BAT-*
X171069000Y-111379000D03*
G04 #@! TD*
G04 #@! TO.P,TP5,1*
G04 #@! TO.N,OC*
X164960300Y-102057200D03*
G04 #@! TD*
G04 #@! TO.P,TP6,1*
G04 #@! TO.N,GND*
X154279600Y-118414800D03*
G04 #@! TD*
G04 #@! TO.P,TP7,1*
G04 #@! TO.N,VCC*
X129171700Y-102069900D03*
G04 #@! TD*
D19*
G04 #@! TO.P,U1,8*
G04 #@! TO.N,Net-(C1-Pad1)*
X150510200Y-107772200D03*
G04 #@! TO.P,U1,7*
G04 #@! TO.N,Net-(R1-Pad2)*
X150510200Y-109042200D03*
G04 #@! TO.P,U1,6*
G04 #@! TO.N,Net-(R3-Pad2)*
X150510200Y-110312200D03*
G04 #@! TO.P,U1,5*
G04 #@! TO.N,BAT+*
X150510200Y-111582200D03*
G04 #@! TO.P,U1,4*
G04 #@! TO.N,Net-(C1-Pad1)*
X145110200Y-111582200D03*
G04 #@! TO.P,U1,3*
G04 #@! TO.N,GND*
X145110200Y-110312200D03*
G04 #@! TO.P,U1,2*
G04 #@! TO.N,Net-(R5-Pad1)*
X145110200Y-109042200D03*
G04 #@! TO.P,U1,1*
G04 #@! TO.N,GND*
X145110200Y-107772200D03*
G04 #@! TD*
D20*
G04 #@! TO.P,U2,1*
G04 #@! TO.N,OD*
X159689800Y-103797100D03*
G04 #@! TO.P,U2,2*
G04 #@! TO.N,Net-(R4-Pad1)*
X159689800Y-102847100D03*
G04 #@! TO.P,U2,3*
G04 #@! TO.N,OC*
X159689800Y-101897100D03*
G04 #@! TO.P,U2,4*
G04 #@! TO.N,Net-(U2-Pad4)*
X156989800Y-101897100D03*
G04 #@! TO.P,U2,6*
G04 #@! TO.N,BAT-*
X156989800Y-103797100D03*
G04 #@! TO.P,U2,5*
G04 #@! TO.N,Net-(C2-Pad1)*
X156989800Y-102847100D03*
G04 #@! TD*
D21*
G04 #@! TO.P,U3,1*
G04 #@! TO.N,RST*
X119735600Y-110718600D03*
D22*
G04 #@! TO.P,U3,5*
G04 #@! TO.N,MOSI*
X127355600Y-118338600D03*
G04 #@! TO.P,U3,2*
G04 #@! TO.N,LED*
X119735600Y-113258600D03*
G04 #@! TO.P,U3,6*
G04 #@! TO.N,MISO*
X127355600Y-115798600D03*
G04 #@! TO.P,U3,3*
G04 #@! TO.N,BUZZ*
X119735600Y-115798600D03*
G04 #@! TO.P,U3,7*
G04 #@! TO.N,SCK*
X127355600Y-113258600D03*
G04 #@! TO.P,U3,4*
G04 #@! TO.N,GND*
X119735600Y-118338600D03*
G04 #@! TO.P,U3,8*
G04 #@! TO.N,VCC*
X127355600Y-110718600D03*
G04 #@! TD*
D19*
G04 #@! TO.P,U4,1*
G04 #@! TO.N,RST*
X120718600Y-101803200D03*
G04 #@! TO.P,U4,2*
G04 #@! TO.N,LED*
X120718600Y-103073200D03*
G04 #@! TO.P,U4,3*
G04 #@! TO.N,BUZZ*
X120718600Y-104343200D03*
G04 #@! TO.P,U4,4*
G04 #@! TO.N,GND*
X120718600Y-105613200D03*
G04 #@! TO.P,U4,5*
G04 #@! TO.N,MOSI*
X126118600Y-105613200D03*
G04 #@! TO.P,U4,6*
G04 #@! TO.N,MISO*
X126118600Y-104343200D03*
G04 #@! TO.P,U4,7*
G04 #@! TO.N,SCK*
X126118600Y-103073200D03*
G04 #@! TO.P,U4,8*
G04 #@! TO.N,VCC*
X126118600Y-101803200D03*
G04 #@! TD*
D23*
G04 #@! TO.P,D3,1*
G04 #@! TO.N,Net-(D3-Pad1)*
X102184200Y-105257600D03*
D24*
G04 #@! TO.P,D3,2*
G04 #@! TO.N,LED*
X102184200Y-102717600D03*
G04 #@! TD*
D25*
G04 #@! TO.P,BT1,2*
G04 #@! TO.N,BAT-*
X174345600Y-113195100D03*
D26*
G04 #@! TO.P,BT1,1*
G04 #@! TO.N,BAT+*
X174345600Y-115735100D03*
G04 #@! TD*
G04 #@! TO.P,J3,1*
G04 #@! TO.N,BAT+*
X135623300Y-107124500D03*
D25*
G04 #@! TO.P,J3,2*
G04 #@! TO.N,VCC*
X133083300Y-107124500D03*
G04 #@! TD*
D11*
G04 #@! TO.N,VCC*
G04 #@! TO.C,C5*
G36*
X132137405Y-101358404D02*
X132161673Y-101362004D01*
X132185472Y-101367965D01*
X132208571Y-101376230D01*
X132230750Y-101386720D01*
X132251793Y-101399332D01*
X132271499Y-101413947D01*
X132289677Y-101430423D01*
X132306153Y-101448601D01*
X132320768Y-101468307D01*
X132333380Y-101489350D01*
X132343870Y-101511529D01*
X132352135Y-101534628D01*
X132358096Y-101558427D01*
X132361696Y-101582695D01*
X132362900Y-101607199D01*
X132362900Y-102507201D01*
X132361696Y-102531705D01*
X132358096Y-102555973D01*
X132352135Y-102579772D01*
X132343870Y-102602871D01*
X132333380Y-102625050D01*
X132320768Y-102646093D01*
X132306153Y-102665799D01*
X132289677Y-102683977D01*
X132271499Y-102700453D01*
X132251793Y-102715068D01*
X132230750Y-102727680D01*
X132208571Y-102738170D01*
X132185472Y-102746435D01*
X132161673Y-102752396D01*
X132137405Y-102755996D01*
X132112901Y-102757200D01*
X131462899Y-102757200D01*
X131438395Y-102755996D01*
X131414127Y-102752396D01*
X131390328Y-102746435D01*
X131367229Y-102738170D01*
X131345050Y-102727680D01*
X131324007Y-102715068D01*
X131304301Y-102700453D01*
X131286123Y-102683977D01*
X131269647Y-102665799D01*
X131255032Y-102646093D01*
X131242420Y-102625050D01*
X131231930Y-102602871D01*
X131223665Y-102579772D01*
X131217704Y-102555973D01*
X131214104Y-102531705D01*
X131212900Y-102507201D01*
X131212900Y-101607199D01*
X131214104Y-101582695D01*
X131217704Y-101558427D01*
X131223665Y-101534628D01*
X131231930Y-101511529D01*
X131242420Y-101489350D01*
X131255032Y-101468307D01*
X131269647Y-101448601D01*
X131286123Y-101430423D01*
X131304301Y-101413947D01*
X131324007Y-101399332D01*
X131345050Y-101386720D01*
X131367229Y-101376230D01*
X131390328Y-101367965D01*
X131414127Y-101362004D01*
X131438395Y-101358404D01*
X131462899Y-101357200D01*
X132112901Y-101357200D01*
X132137405Y-101358404D01*
X132137405Y-101358404D01*
G37*
D12*
G04 #@! TD*
G04 #@! TO.P,C5,1*
G04 #@! TO.N,VCC*
X131787900Y-102057200D03*
D11*
G04 #@! TO.N,GND*
G04 #@! TO.C,C5*
G36*
X134187405Y-101358404D02*
X134211673Y-101362004D01*
X134235472Y-101367965D01*
X134258571Y-101376230D01*
X134280750Y-101386720D01*
X134301793Y-101399332D01*
X134321499Y-101413947D01*
X134339677Y-101430423D01*
X134356153Y-101448601D01*
X134370768Y-101468307D01*
X134383380Y-101489350D01*
X134393870Y-101511529D01*
X134402135Y-101534628D01*
X134408096Y-101558427D01*
X134411696Y-101582695D01*
X134412900Y-101607199D01*
X134412900Y-102507201D01*
X134411696Y-102531705D01*
X134408096Y-102555973D01*
X134402135Y-102579772D01*
X134393870Y-102602871D01*
X134383380Y-102625050D01*
X134370768Y-102646093D01*
X134356153Y-102665799D01*
X134339677Y-102683977D01*
X134321499Y-102700453D01*
X134301793Y-102715068D01*
X134280750Y-102727680D01*
X134258571Y-102738170D01*
X134235472Y-102746435D01*
X134211673Y-102752396D01*
X134187405Y-102755996D01*
X134162901Y-102757200D01*
X133512899Y-102757200D01*
X133488395Y-102755996D01*
X133464127Y-102752396D01*
X133440328Y-102746435D01*
X133417229Y-102738170D01*
X133395050Y-102727680D01*
X133374007Y-102715068D01*
X133354301Y-102700453D01*
X133336123Y-102683977D01*
X133319647Y-102665799D01*
X133305032Y-102646093D01*
X133292420Y-102625050D01*
X133281930Y-102602871D01*
X133273665Y-102579772D01*
X133267704Y-102555973D01*
X133264104Y-102531705D01*
X133262900Y-102507201D01*
X133262900Y-101607199D01*
X133264104Y-101582695D01*
X133267704Y-101558427D01*
X133273665Y-101534628D01*
X133281930Y-101511529D01*
X133292420Y-101489350D01*
X133305032Y-101468307D01*
X133319647Y-101448601D01*
X133336123Y-101430423D01*
X133354301Y-101413947D01*
X133374007Y-101399332D01*
X133395050Y-101386720D01*
X133417229Y-101376230D01*
X133440328Y-101367965D01*
X133464127Y-101362004D01*
X133488395Y-101358404D01*
X133512899Y-101357200D01*
X134162901Y-101357200D01*
X134187405Y-101358404D01*
X134187405Y-101358404D01*
G37*
D12*
G04 #@! TD*
G04 #@! TO.P,C5,2*
G04 #@! TO.N,GND*
X133837900Y-102057200D03*
D27*
G04 #@! TO.N,GND*
X175000000Y-101000000D03*
X174000000Y-101000000D03*
X173000000Y-101000000D03*
X137939800Y-101352300D03*
X153000000Y-115000000D03*
X123621800Y-118427500D03*
X138480800Y-116852700D03*
X139331700Y-116827300D03*
X154000000Y-115000000D03*
X138939800Y-101352300D03*
X108331000Y-118618000D03*
X107480100Y-118643400D03*
X165992100Y-113844300D03*
X166992100Y-113844300D03*
G04 #@! TO.N,RST*
X138887200Y-114541300D03*
G04 #@! TO.N,VCC*
X115862100Y-114554000D03*
G04 #@! TD*
D28*
G04 #@! TO.N,BAT+*
X150510200Y-111582200D02*
X150985200Y-111582200D01*
X151602400Y-112674400D02*
X150510200Y-111582200D01*
X154673300Y-112674400D02*
X151602400Y-112674400D01*
X154673300Y-112674400D02*
X155651200Y-112674400D01*
X160883600Y-117906800D02*
X171119800Y-117906800D01*
X155651200Y-112674400D02*
X160883600Y-117906800D01*
X174891700Y-115671600D02*
X174955200Y-115735100D01*
X174282100Y-115671600D02*
X174345600Y-115735100D01*
X171094400Y-115671600D02*
X174282100Y-115671600D01*
X174345600Y-117185100D02*
X174345600Y-115735100D01*
X173623900Y-117906800D02*
X174345600Y-117185100D01*
X171119800Y-117906800D02*
X173623900Y-117906800D01*
G04 #@! TO.N,BAT-*
X173863000Y-108989800D02*
X173837600Y-108964400D01*
X173863000Y-109016800D02*
X173863000Y-108989800D01*
X156892800Y-103894100D02*
X156989800Y-103797100D01*
X154355800Y-103894100D02*
X156892800Y-103894100D01*
X169969000Y-111379000D02*
X171069000Y-111379000D01*
X166439999Y-107849999D02*
X169969000Y-111379000D01*
X160117699Y-107849999D02*
X166439999Y-107849999D01*
X156989800Y-104722100D02*
X160117699Y-107849999D01*
X156989800Y-103797100D02*
X156989800Y-104722100D01*
X172169000Y-111379000D02*
X171069000Y-111379000D01*
X173939200Y-109608800D02*
X172169000Y-111379000D01*
X173939200Y-111586619D02*
X173939200Y-109608800D01*
X174345600Y-111993019D02*
X173939200Y-111586619D01*
X174345600Y-113195100D02*
X174345600Y-111993019D01*
X173939200Y-109093000D02*
X173863000Y-109016800D01*
X173939200Y-109608800D02*
X173939200Y-109093000D01*
X173886800Y-109016800D02*
X174088399Y-108815201D01*
X173863000Y-109016800D02*
X173886800Y-109016800D01*
X173688401Y-108815201D02*
X173863000Y-108989800D01*
X173688401Y-109515301D02*
X173688401Y-108815201D01*
X173781900Y-109608800D02*
X173688401Y-109515301D01*
X173939200Y-109608800D02*
X173781900Y-109608800D01*
D29*
G04 #@! TO.N,BUZZ*
X120243600Y-104343200D02*
X120718600Y-104343200D01*
X119568599Y-105018201D02*
X120243600Y-104343200D01*
X119568599Y-106944799D02*
X119568599Y-105018201D01*
X122015210Y-109391410D02*
X119568599Y-106944799D01*
X122015210Y-113518990D02*
X122015210Y-109391410D01*
X119735600Y-115798600D02*
X122015210Y-113518990D01*
X118604230Y-115798600D02*
X119735600Y-115798600D01*
X115663698Y-115798600D02*
X118604230Y-115798600D01*
X115054098Y-115189000D02*
X115663698Y-115798600D01*
X111594900Y-115189000D02*
X115054098Y-115189000D01*
D28*
G04 #@! TO.N,GND*
X149024801Y-115122499D02*
X149024801Y-115682997D01*
X149034500Y-115112800D02*
X149024801Y-115122499D01*
X154279600Y-117314800D02*
X152077600Y-115112800D01*
X154279600Y-118414800D02*
X154279600Y-117314800D01*
X152077600Y-115112800D02*
X150406100Y-115112800D01*
X149428200Y-114341800D02*
X148726000Y-113639600D01*
X149428200Y-115112800D02*
X149428200Y-114341800D01*
X149428200Y-115112800D02*
X149034500Y-115112800D01*
X150406100Y-115112800D02*
X149428200Y-115112800D01*
X173070401Y-101007199D02*
X173070401Y-101007199D01*
X162306000Y-101794200D02*
X163093001Y-101007199D01*
X163093001Y-101007199D02*
X173070401Y-101007199D01*
X173888400Y-101825198D02*
X173888400Y-102793800D01*
X173888400Y-102793800D02*
X174088399Y-102793800D01*
X173070401Y-101007199D02*
X173888400Y-101825198D01*
X120535599Y-117538601D02*
X119735600Y-118338600D01*
X122690220Y-115383980D02*
X120535599Y-117538601D01*
X122690220Y-108484820D02*
X122690220Y-115383980D01*
X120718600Y-106513200D02*
X122690220Y-108484820D01*
X120718600Y-105613200D02*
X120718600Y-106513200D01*
X119456200Y-118618000D02*
X119735600Y-118338600D01*
X115756800Y-107247800D02*
X115849400Y-107340400D01*
X115756800Y-105054400D02*
X115756800Y-107247800D01*
X139972000Y-113131600D02*
X142240000Y-110863600D01*
X136361000Y-113131600D02*
X139972000Y-113131600D01*
X134512900Y-102057200D02*
X138010900Y-105555200D01*
X133837900Y-102057200D02*
X134512900Y-102057200D01*
X136361000Y-112161600D02*
X136361000Y-113131600D01*
X138010900Y-110511700D02*
X136361000Y-112161600D01*
X138010900Y-105555200D02*
X138010900Y-110511700D01*
X142791400Y-110312200D02*
X145110200Y-110312200D01*
X142240000Y-110863600D02*
X142791400Y-110312200D01*
X119126000Y-117729000D02*
X119735600Y-118338600D01*
X111594900Y-117729000D02*
X119126000Y-117729000D01*
X111315500Y-117729000D02*
X111594900Y-117729000D01*
X173688401Y-102665199D02*
X173688401Y-102790200D01*
X173888400Y-102465200D02*
X173688401Y-102665199D01*
X173888400Y-101825198D02*
X173888400Y-102465200D01*
G04 #@! TO.N,Net-(C1-Pad1)*
X141173200Y-117365600D02*
X141173200Y-118465600D01*
X143047801Y-115490999D02*
X141173200Y-117365600D01*
X146032801Y-115490999D02*
X143047801Y-115490999D01*
X146032801Y-114282799D02*
X146032801Y-115490999D01*
X146676000Y-113639600D02*
X146032801Y-114282799D01*
X145110200Y-112073800D02*
X146676000Y-113639600D01*
X145110200Y-111582200D02*
X145110200Y-112073800D01*
X149715198Y-107772200D02*
X150510200Y-107772200D01*
X145905198Y-111582200D02*
X149715198Y-107772200D01*
X145110200Y-111582200D02*
X145905198Y-111582200D01*
X147797300Y-107772200D02*
X150510200Y-107772200D01*
X143796800Y-103771700D02*
X147797300Y-107772200D01*
X143847600Y-103720900D02*
X143796800Y-103771700D01*
X143847600Y-101790500D02*
X143847600Y-103720900D01*
D29*
G04 #@! TO.N,Net-(C2-Pad1)*
X155183800Y-102847100D02*
X156989800Y-102847100D01*
X154355800Y-102019100D02*
X155183800Y-102847100D01*
X153799563Y-102575337D02*
X154355800Y-102019100D01*
X153280790Y-103094110D02*
X153799563Y-102575337D01*
X153280790Y-108556890D02*
X153280790Y-103094110D01*
X154673300Y-109949400D02*
X153280790Y-108556890D01*
X154673300Y-110624400D02*
X154673300Y-109949400D01*
G04 #@! TO.N,RST*
X119735600Y-109668600D02*
X118313200Y-108246200D01*
X119735600Y-110718600D02*
X119735600Y-109668600D01*
X120243600Y-101803200D02*
X120718600Y-101803200D01*
X118313200Y-103733600D02*
X120243600Y-101803200D01*
X118313200Y-108246200D02*
X118313200Y-103733600D01*
X116027200Y-110718600D02*
X115900200Y-110845600D01*
X119735600Y-110718600D02*
X116027200Y-110718600D01*
X115849400Y-110794800D02*
X115900200Y-110845600D01*
X115849400Y-109215400D02*
X115849400Y-110794800D01*
X136500700Y-114541300D02*
X136361000Y-114401600D01*
X138887200Y-114541300D02*
X136500700Y-114541300D01*
G04 #@! TO.N,Net-(D1-Pad1)*
X147666600Y-103771700D02*
X147679300Y-103759000D01*
X145846800Y-103771700D02*
X147666600Y-103771700D01*
G04 #@! TO.N,Net-(D2-Pad1)*
X145897600Y-101790500D02*
X147683000Y-101790500D01*
G04 #@! TO.N,Net-(D3-Pad1)*
X113503600Y-105257600D02*
X113706800Y-105054400D01*
X102184200Y-105257600D02*
X113503600Y-105257600D01*
G04 #@! TO.N,LED*
X121615200Y-111379000D02*
X121615200Y-110413800D01*
X119735600Y-113258600D02*
X121615200Y-111379000D01*
X120243600Y-103073200D02*
X120718600Y-103073200D01*
X118884700Y-104432100D02*
X120243600Y-103073200D01*
X118884700Y-107683300D02*
X118884700Y-104432100D01*
X121615200Y-110413800D02*
X118884700Y-107683300D01*
X102184200Y-102717600D02*
X104114600Y-100787200D01*
X104114600Y-100787200D02*
X121678700Y-100787200D01*
X121678700Y-100787200D02*
X122339100Y-101447600D01*
X121193600Y-103073200D02*
X120718600Y-103073200D01*
X122339100Y-101927700D02*
X121193600Y-103073200D01*
X122339100Y-101447600D02*
X122339100Y-101927700D01*
G04 #@! TO.N,Net-(J1-Pad6)*
X144874800Y-118491000D02*
X151574800Y-118491000D01*
X143674800Y-118491000D02*
X144874800Y-118491000D01*
D28*
G04 #@! TO.N,VCC*
X129768600Y-113131600D02*
X132461000Y-113131600D01*
X127355600Y-110718600D02*
X129768600Y-113131600D01*
X128905000Y-101803200D02*
X129171700Y-102069900D01*
X126118600Y-101803200D02*
X128905000Y-101803200D01*
X131775200Y-102069900D02*
X131787900Y-102057200D01*
X129171700Y-102069900D02*
X131775200Y-102069900D01*
X115862100Y-112933700D02*
X115900200Y-112895600D01*
X115862100Y-114554000D02*
X115862100Y-112933700D01*
X131787900Y-105829100D02*
X133083300Y-107124500D01*
X131787900Y-102057200D02*
X131787900Y-105829100D01*
D29*
G04 #@! TO.N,SCK*
X126224230Y-113258600D02*
X125806200Y-112840570D01*
X127355600Y-113258600D02*
X126224230Y-113258600D01*
X125806200Y-112840570D02*
X125806200Y-110286800D01*
X127568611Y-108524389D02*
X126974600Y-109118400D01*
X127568611Y-104048211D02*
X127568611Y-108524389D01*
X126593600Y-103073200D02*
X127568611Y-104048211D01*
X126118600Y-103073200D02*
X126593600Y-103073200D01*
X125806200Y-110286800D02*
X126974600Y-109118400D01*
X126974600Y-109118400D02*
X127000000Y-109093000D01*
X128498600Y-114401600D02*
X127355600Y-113258600D01*
X132461000Y-114401600D02*
X128498600Y-114401600D01*
G04 #@! TO.N,MISO*
X126555601Y-114998601D02*
X127355600Y-115798600D01*
X126555601Y-114808101D02*
X126555601Y-114998601D01*
X125406190Y-113658690D02*
X126555601Y-114808101D01*
X125406190Y-110115310D02*
X125406190Y-113658690D01*
X126593600Y-104343200D02*
X126619000Y-104317800D01*
X126828510Y-108692990D02*
X126365000Y-109156500D01*
X126365000Y-109156500D02*
X125406190Y-110115310D01*
X127168601Y-108352899D02*
X126911100Y-108610400D01*
X127168601Y-104918201D02*
X127168601Y-108352899D01*
X126593600Y-104343200D02*
X127168601Y-104918201D01*
X126118600Y-104343200D02*
X126593600Y-104343200D01*
X126911100Y-108610400D02*
X126365000Y-109156500D01*
X127482600Y-115671600D02*
X127355600Y-115798600D01*
X132461000Y-115671600D02*
X127482600Y-115671600D01*
G04 #@! TO.N,MOSI*
X126118600Y-106163200D02*
X126118600Y-105613200D01*
X125006180Y-107275620D02*
X126118600Y-106163200D01*
X125006180Y-115989180D02*
X125006180Y-107275620D01*
X127355600Y-118338600D02*
X125006180Y-115989180D01*
X136361000Y-116291600D02*
X136361000Y-115671600D01*
X134314000Y-118338600D02*
X136361000Y-116291600D01*
X127355600Y-118338600D02*
X134314000Y-118338600D01*
G04 #@! TO.N,OD*
X159689800Y-104372100D02*
X160702300Y-105384600D01*
X159689800Y-103797100D02*
X159689800Y-104372100D01*
X164184900Y-104317800D02*
X164934900Y-104317800D01*
X163118100Y-105384600D02*
X164184900Y-104317800D01*
X160702300Y-105384600D02*
X163118100Y-105384600D01*
X165684900Y-104317800D02*
X166523100Y-105156000D01*
X164934900Y-104317800D02*
X165684900Y-104317800D01*
X174863400Y-107715200D02*
X174863400Y-108690200D01*
X172304202Y-105156000D02*
X174863400Y-107715200D01*
X166523100Y-105156000D02*
X172304202Y-105156000D01*
G04 #@! TO.N,OC*
X164210300Y-102057200D02*
X164960300Y-102057200D01*
X163523290Y-102744210D02*
X164210300Y-102057200D01*
X161566910Y-102744210D02*
X163523290Y-102744210D01*
X160719800Y-101897100D02*
X161566910Y-102744210D01*
X159689800Y-101897100D02*
X160719800Y-101897100D01*
X165710300Y-102057200D02*
X168174100Y-104521000D01*
X164960300Y-102057200D02*
X165710300Y-102057200D01*
X174863400Y-103765200D02*
X174863400Y-102790200D01*
X174107600Y-104521000D02*
X174863400Y-103765200D01*
X168174100Y-104521000D02*
X174107600Y-104521000D01*
G04 #@! TO.N,Net-(R1-Pad2)*
X150404300Y-103759000D02*
X151993600Y-105348300D01*
X149729300Y-103759000D02*
X150404300Y-103759000D01*
X150985200Y-109042200D02*
X150510200Y-109042200D01*
X151993600Y-108033800D02*
X150985200Y-109042200D01*
X151993600Y-105348300D02*
X151993600Y-108033800D01*
G04 #@! TO.N,Net-(R3-Pad2)*
X150985200Y-110312200D02*
X150510200Y-110312200D01*
X152393610Y-108903790D02*
X150985200Y-110312200D01*
X152393610Y-104451110D02*
X152393610Y-108903790D01*
X149733000Y-101790500D02*
X152393610Y-104451110D01*
G04 #@! TO.N,Net-(R4-Pad1)*
X161682628Y-103220828D02*
X162306000Y-103844200D01*
X161093528Y-103220828D02*
X161682628Y-103220828D01*
X160719800Y-102847100D02*
X161093528Y-103220828D01*
X159689800Y-102847100D02*
X160719800Y-102847100D01*
G04 #@! TO.N,Net-(R5-Pad1)*
X144881600Y-108813600D02*
X145110200Y-109042200D01*
X142240000Y-108813600D02*
X144881600Y-108813600D01*
G04 #@! TD*
D30*
G04 #@! TO.N,GND*
G36*
X142888014Y-100705914D02*
X142693473Y-100997064D01*
X142625160Y-101340499D01*
X142625160Y-102240501D01*
X142693473Y-102583936D01*
X142799814Y-102743086D01*
X142642673Y-102978264D01*
X142574360Y-103321699D01*
X142574360Y-104221701D01*
X142642673Y-104565136D01*
X142837214Y-104856286D01*
X143128364Y-105050827D01*
X143471799Y-105119140D01*
X143821951Y-105119140D01*
X145540010Y-106837200D01*
X145395950Y-106837200D01*
X145237200Y-106995950D01*
X145237200Y-107645200D01*
X145257200Y-107645200D01*
X145257200Y-107899200D01*
X145237200Y-107899200D01*
X145237200Y-107919200D01*
X144983200Y-107919200D01*
X144983200Y-107899200D01*
X143858950Y-107899200D01*
X143704550Y-108053600D01*
X143457946Y-108053600D01*
X143324586Y-107854014D01*
X143033436Y-107659473D01*
X142690001Y-107591160D01*
X141789999Y-107591160D01*
X141446564Y-107659473D01*
X141155414Y-107854014D01*
X140960873Y-108145164D01*
X140892560Y-108488599D01*
X140892560Y-109138601D01*
X140960873Y-109482036D01*
X141155414Y-109773186D01*
X141156597Y-109773977D01*
X141001673Y-109928902D01*
X140905000Y-110162291D01*
X140905000Y-110577850D01*
X141063750Y-110736600D01*
X142113000Y-110736600D01*
X142113000Y-110716600D01*
X142367000Y-110716600D01*
X142367000Y-110736600D01*
X143416250Y-110736600D01*
X143575000Y-110577850D01*
X143575000Y-110162291D01*
X143478327Y-109928902D01*
X143323403Y-109773977D01*
X143324586Y-109773186D01*
X143457946Y-109573600D01*
X143733788Y-109573600D01*
X143737043Y-109589965D01*
X143789968Y-109669172D01*
X143700200Y-109885890D01*
X143700200Y-110026450D01*
X143858950Y-110185200D01*
X144983200Y-110185200D01*
X144983200Y-110165200D01*
X145237200Y-110165200D01*
X145237200Y-110185200D01*
X145257200Y-110185200D01*
X145257200Y-110439200D01*
X145237200Y-110439200D01*
X145237200Y-110459200D01*
X144983200Y-110459200D01*
X144983200Y-110439200D01*
X143858950Y-110439200D01*
X143700200Y-110597950D01*
X143700200Y-110738510D01*
X143789968Y-110955228D01*
X143737043Y-111034435D01*
X143687760Y-111282200D01*
X143687760Y-111882200D01*
X143737043Y-112129965D01*
X143877391Y-112340009D01*
X144087435Y-112480357D01*
X144283381Y-112519333D01*
X144436104Y-112747897D01*
X144514170Y-112800059D01*
X145344328Y-113630217D01*
X145194802Y-113854000D01*
X145152051Y-113917981D01*
X145079484Y-114282799D01*
X145097801Y-114374885D01*
X145097801Y-114555999D01*
X143139886Y-114555999D01*
X143047800Y-114537682D01*
X142721069Y-114602673D01*
X142682982Y-114610249D01*
X142373704Y-114816902D01*
X142321542Y-114894968D01*
X140577172Y-116639339D01*
X140499103Y-116691503D01*
X140328596Y-116946686D01*
X140292450Y-117000782D01*
X140219883Y-117365600D01*
X140238200Y-117457686D01*
X140238200Y-117492550D01*
X140215391Y-117507791D01*
X140075043Y-117717835D01*
X140025760Y-117965600D01*
X140025760Y-118965600D01*
X140075043Y-119213365D01*
X140142954Y-119315000D01*
X128429050Y-119315000D01*
X128573643Y-119098600D01*
X134239153Y-119098600D01*
X134314000Y-119113488D01*
X134388847Y-119098600D01*
X134388852Y-119098600D01*
X134610537Y-119054504D01*
X134861929Y-118886529D01*
X134904331Y-118823070D01*
X136845473Y-116881929D01*
X136908929Y-116839529D01*
X137009483Y-116689040D01*
X137561000Y-116689040D01*
X137808765Y-116639757D01*
X138018809Y-116499409D01*
X138159157Y-116289365D01*
X138208440Y-116041600D01*
X138208440Y-115301600D01*
X138208380Y-115301300D01*
X138324910Y-115301300D01*
X138357565Y-115333955D01*
X138701217Y-115476300D01*
X139073183Y-115476300D01*
X139416835Y-115333955D01*
X139679855Y-115070935D01*
X139822200Y-114727283D01*
X139822200Y-114355317D01*
X139679855Y-114011665D01*
X139416835Y-113748645D01*
X139073183Y-113606300D01*
X138701217Y-113606300D01*
X138357565Y-113748645D01*
X138324910Y-113781300D01*
X138157463Y-113781300D01*
X138142031Y-113758204D01*
X138196000Y-113627910D01*
X138196000Y-113417350D01*
X138037250Y-113258600D01*
X136488000Y-113258600D01*
X136488000Y-113278600D01*
X136234000Y-113278600D01*
X136234000Y-113258600D01*
X134684750Y-113258600D01*
X134526000Y-113417350D01*
X134526000Y-113627910D01*
X134579969Y-113758204D01*
X134562843Y-113783835D01*
X134513560Y-114031600D01*
X134513560Y-114771600D01*
X134562843Y-115019365D01*
X134574359Y-115036600D01*
X134562843Y-115053835D01*
X134513560Y-115301600D01*
X134513560Y-116041600D01*
X134562843Y-116289365D01*
X134703191Y-116499409D01*
X134913235Y-116639757D01*
X134933926Y-116643873D01*
X133999199Y-117578600D01*
X128573643Y-117578600D01*
X128390177Y-117304023D01*
X128037842Y-117068600D01*
X128390177Y-116833177D01*
X128658502Y-116431600D01*
X130757882Y-116431600D01*
X130803191Y-116499409D01*
X131013235Y-116639757D01*
X131261000Y-116689040D01*
X133661000Y-116689040D01*
X133908765Y-116639757D01*
X134118809Y-116499409D01*
X134259157Y-116289365D01*
X134308440Y-116041600D01*
X134308440Y-115301600D01*
X134259157Y-115053835D01*
X134247641Y-115036600D01*
X134259157Y-115019365D01*
X134308440Y-114771600D01*
X134308440Y-114031600D01*
X134259157Y-113783835D01*
X134247641Y-113766600D01*
X134259157Y-113749365D01*
X134308440Y-113501600D01*
X134308440Y-112761600D01*
X134283316Y-112635290D01*
X134526000Y-112635290D01*
X134526000Y-112845850D01*
X134684750Y-113004600D01*
X136234000Y-113004600D01*
X136234000Y-112285350D01*
X136488000Y-112285350D01*
X136488000Y-113004600D01*
X138037250Y-113004600D01*
X138196000Y-112845850D01*
X138196000Y-112635290D01*
X138099327Y-112401901D01*
X137920698Y-112223273D01*
X137687309Y-112126600D01*
X136646750Y-112126600D01*
X136488000Y-112285350D01*
X136234000Y-112285350D01*
X136075250Y-112126600D01*
X135034691Y-112126600D01*
X134801302Y-112223273D01*
X134622673Y-112401901D01*
X134526000Y-112635290D01*
X134283316Y-112635290D01*
X134259157Y-112513835D01*
X134118809Y-112303791D01*
X133908765Y-112163443D01*
X133661000Y-112114160D01*
X131261000Y-112114160D01*
X131013235Y-112163443D01*
X130963612Y-112196600D01*
X130155890Y-112196600D01*
X129108640Y-111149350D01*
X140905000Y-111149350D01*
X140905000Y-111564909D01*
X141001673Y-111798298D01*
X141180301Y-111976927D01*
X141413690Y-112073600D01*
X141954250Y-112073600D01*
X142113000Y-111914850D01*
X142113000Y-110990600D01*
X142367000Y-110990600D01*
X142367000Y-111914850D01*
X142525750Y-112073600D01*
X143066310Y-112073600D01*
X143299699Y-111976927D01*
X143478327Y-111798298D01*
X143575000Y-111564909D01*
X143575000Y-111149350D01*
X143416250Y-110990600D01*
X142367000Y-110990600D01*
X142113000Y-110990600D01*
X141063750Y-110990600D01*
X140905000Y-111149350D01*
X129108640Y-111149350D01*
X128795349Y-110836059D01*
X128818713Y-110718600D01*
X128707340Y-110158691D01*
X128390177Y-109684023D01*
X127915509Y-109366860D01*
X127819950Y-109347852D01*
X128053086Y-109114717D01*
X128116540Y-109072318D01*
X128158938Y-109008865D01*
X128158940Y-109008863D01*
X128284514Y-108820927D01*
X128284515Y-108820926D01*
X128328611Y-108599241D01*
X128328611Y-108599237D01*
X128343499Y-108524390D01*
X128328611Y-108449543D01*
X128328611Y-104123059D01*
X128343499Y-104048211D01*
X128328611Y-103973363D01*
X128328611Y-103973359D01*
X128289209Y-103775273D01*
X128284515Y-103751673D01*
X128158940Y-103563738D01*
X128116540Y-103500282D01*
X128053084Y-103457882D01*
X127541040Y-102945839D01*
X127541040Y-102773200D01*
X127534078Y-102738200D01*
X128057737Y-102738200D01*
X128073543Y-102817665D01*
X128213891Y-103027709D01*
X128423935Y-103168057D01*
X128671700Y-103217340D01*
X129671700Y-103217340D01*
X129919465Y-103168057D01*
X130129509Y-103027709D01*
X130144750Y-103004900D01*
X130736849Y-103004900D01*
X130828314Y-103141786D01*
X130852900Y-103158214D01*
X130852901Y-105737010D01*
X130834583Y-105829100D01*
X130907150Y-106193918D01*
X131061641Y-106425130D01*
X131113804Y-106503197D01*
X131191870Y-106555359D01*
X131601030Y-106964519D01*
X131569208Y-107124500D01*
X131684461Y-107703918D01*
X132012675Y-108195125D01*
X132503882Y-108523339D01*
X132937044Y-108609500D01*
X133229556Y-108609500D01*
X133662718Y-108523339D01*
X134153925Y-108195125D01*
X134166116Y-108176881D01*
X134175143Y-108222265D01*
X134315491Y-108432309D01*
X134525535Y-108572657D01*
X134773300Y-108621940D01*
X136473300Y-108621940D01*
X136721065Y-108572657D01*
X136931109Y-108432309D01*
X137071457Y-108222265D01*
X137120740Y-107974500D01*
X137120740Y-107345890D01*
X143700200Y-107345890D01*
X143700200Y-107486450D01*
X143858950Y-107645200D01*
X144983200Y-107645200D01*
X144983200Y-106995950D01*
X144824450Y-106837200D01*
X144208891Y-106837200D01*
X143975502Y-106933873D01*
X143796873Y-107112501D01*
X143700200Y-107345890D01*
X137120740Y-107345890D01*
X137120740Y-106274500D01*
X137071457Y-106026735D01*
X136931109Y-105816691D01*
X136721065Y-105676343D01*
X136473300Y-105627060D01*
X134773300Y-105627060D01*
X134525535Y-105676343D01*
X134315491Y-105816691D01*
X134175143Y-106026735D01*
X134166116Y-106072119D01*
X134153925Y-106053875D01*
X133662718Y-105725661D01*
X133229556Y-105639500D01*
X132937044Y-105639500D01*
X132923319Y-105642230D01*
X132722900Y-105441811D01*
X132722900Y-103158214D01*
X132747486Y-103141786D01*
X132748277Y-103140603D01*
X132903202Y-103295527D01*
X133136591Y-103392200D01*
X133552150Y-103392200D01*
X133710900Y-103233450D01*
X133710900Y-102184200D01*
X133964900Y-102184200D01*
X133964900Y-103233450D01*
X134123650Y-103392200D01*
X134539209Y-103392200D01*
X134772598Y-103295527D01*
X134951227Y-103116899D01*
X135047900Y-102883510D01*
X135047900Y-102342950D01*
X134889150Y-102184200D01*
X133964900Y-102184200D01*
X133710900Y-102184200D01*
X133690900Y-102184200D01*
X133690900Y-101930200D01*
X133710900Y-101930200D01*
X133710900Y-100880950D01*
X133964900Y-100880950D01*
X133964900Y-101930200D01*
X134889150Y-101930200D01*
X135047900Y-101771450D01*
X135047900Y-101230890D01*
X134951227Y-100997501D01*
X134772598Y-100818873D01*
X134539209Y-100722200D01*
X134123650Y-100722200D01*
X133964900Y-100880950D01*
X133710900Y-100880950D01*
X133552150Y-100722200D01*
X133136591Y-100722200D01*
X132903202Y-100818873D01*
X132748277Y-100973797D01*
X132747486Y-100972614D01*
X132456336Y-100778073D01*
X132112901Y-100709760D01*
X131462899Y-100709760D01*
X131119464Y-100778073D01*
X130828314Y-100972614D01*
X130719878Y-101134900D01*
X130144750Y-101134900D01*
X130129509Y-101112091D01*
X129919465Y-100971743D01*
X129671700Y-100922460D01*
X129269834Y-100922460D01*
X129269819Y-100922450D01*
X128997086Y-100868200D01*
X128905000Y-100849883D01*
X128812914Y-100868200D01*
X126956141Y-100868200D01*
X126893600Y-100855760D01*
X125343600Y-100855760D01*
X125095835Y-100905043D01*
X124885791Y-101045391D01*
X124745443Y-101255435D01*
X124696160Y-101503200D01*
X124696160Y-102103200D01*
X124745443Y-102350965D01*
X124803732Y-102438200D01*
X124745443Y-102525435D01*
X124696160Y-102773200D01*
X124696160Y-103373200D01*
X124745443Y-103620965D01*
X124803732Y-103708200D01*
X124745443Y-103795435D01*
X124696160Y-104043200D01*
X124696160Y-104643200D01*
X124745443Y-104890965D01*
X124803732Y-104978200D01*
X124745443Y-105065435D01*
X124696160Y-105313200D01*
X124696160Y-105913200D01*
X124745443Y-106160965D01*
X124865843Y-106341155D01*
X124521707Y-106685291D01*
X124458252Y-106727691D01*
X124415852Y-106791147D01*
X124415851Y-106791148D01*
X124290277Y-106979083D01*
X124231292Y-107275620D01*
X124246181Y-107350472D01*
X124246180Y-115914333D01*
X124231292Y-115989180D01*
X124246180Y-116064027D01*
X124246180Y-116064031D01*
X124290276Y-116285716D01*
X124458251Y-116537109D01*
X124521710Y-116579511D01*
X125956912Y-118014714D01*
X125892487Y-118338600D01*
X126003860Y-118898509D01*
X126282150Y-119315000D01*
X120750158Y-119315000D01*
X120966641Y-119076023D01*
X121127504Y-118687639D01*
X121005515Y-118465600D01*
X119862600Y-118465600D01*
X119862600Y-118485600D01*
X119608600Y-118485600D01*
X119608600Y-118465600D01*
X118465685Y-118465600D01*
X118343696Y-118687639D01*
X118504559Y-119076023D01*
X118721042Y-119315000D01*
X100685000Y-119315000D01*
X100685000Y-118664275D01*
X110839231Y-118664275D01*
X110901069Y-118900042D01*
X111402022Y-119076419D01*
X111932340Y-119047664D01*
X112288731Y-118900042D01*
X112350569Y-118664275D01*
X111594900Y-117908605D01*
X110839231Y-118664275D01*
X100685000Y-118664275D01*
X100685000Y-117536122D01*
X110247481Y-117536122D01*
X110276236Y-118066440D01*
X110423858Y-118422831D01*
X110659625Y-118484669D01*
X111415295Y-117729000D01*
X111774505Y-117729000D01*
X112530175Y-118484669D01*
X112765942Y-118422831D01*
X112942319Y-117921878D01*
X112913564Y-117391560D01*
X112765942Y-117035169D01*
X112530175Y-116973331D01*
X111774505Y-117729000D01*
X111415295Y-117729000D01*
X110659625Y-116973331D01*
X110423858Y-117035169D01*
X110247481Y-117536122D01*
X100685000Y-117536122D01*
X100685000Y-109555431D01*
X107765000Y-109555431D01*
X107765000Y-110444569D01*
X108105259Y-111266026D01*
X108733974Y-111894741D01*
X109555431Y-112235000D01*
X110444569Y-112235000D01*
X111266026Y-111894741D01*
X111894741Y-111266026D01*
X112235000Y-110444569D01*
X112235000Y-109555431D01*
X111894741Y-108733974D01*
X111266026Y-108105259D01*
X110444569Y-107765000D01*
X109555431Y-107765000D01*
X108733974Y-108105259D01*
X108105259Y-108733974D01*
X107765000Y-109555431D01*
X100685000Y-109555431D01*
X100685000Y-106400121D01*
X100686043Y-106405365D01*
X100826391Y-106615409D01*
X101036435Y-106755757D01*
X101284200Y-106805040D01*
X103084200Y-106805040D01*
X103331965Y-106755757D01*
X103542009Y-106615409D01*
X103682357Y-106405365D01*
X103731640Y-106157600D01*
X103731640Y-106017600D01*
X112666106Y-106017600D01*
X112747214Y-106138986D01*
X113038364Y-106333527D01*
X113381799Y-106401840D01*
X114031801Y-106401840D01*
X114375236Y-106333527D01*
X114666386Y-106138986D01*
X114667177Y-106137803D01*
X114822102Y-106292727D01*
X114832272Y-106296940D01*
X114789701Y-106314573D01*
X114611073Y-106493202D01*
X114514400Y-106726591D01*
X114514400Y-107054650D01*
X114673150Y-107213400D01*
X115722400Y-107213400D01*
X115722400Y-106376650D01*
X115603100Y-106257350D01*
X115629800Y-106230650D01*
X115629800Y-105181400D01*
X115883800Y-105181400D01*
X115883800Y-106230650D01*
X116003100Y-106349950D01*
X115976400Y-106376650D01*
X115976400Y-107213400D01*
X117025650Y-107213400D01*
X117184400Y-107054650D01*
X117184400Y-106726591D01*
X117087727Y-106493202D01*
X116909099Y-106314573D01*
X116739785Y-106244441D01*
X116870127Y-106114099D01*
X116966800Y-105880710D01*
X116966800Y-105340150D01*
X116808050Y-105181400D01*
X115883800Y-105181400D01*
X115629800Y-105181400D01*
X115609800Y-105181400D01*
X115609800Y-104927400D01*
X115629800Y-104927400D01*
X115629800Y-103878150D01*
X115883800Y-103878150D01*
X115883800Y-104927400D01*
X116808050Y-104927400D01*
X116966800Y-104768650D01*
X116966800Y-104228090D01*
X116870127Y-103994701D01*
X116691498Y-103816073D01*
X116458109Y-103719400D01*
X116042550Y-103719400D01*
X115883800Y-103878150D01*
X115629800Y-103878150D01*
X115471050Y-103719400D01*
X115055491Y-103719400D01*
X114822102Y-103816073D01*
X114667177Y-103970997D01*
X114666386Y-103969814D01*
X114375236Y-103775273D01*
X114031801Y-103706960D01*
X113381799Y-103706960D01*
X113038364Y-103775273D01*
X112747214Y-103969814D01*
X112552673Y-104260964D01*
X112505603Y-104497600D01*
X103731640Y-104497600D01*
X103731640Y-104357600D01*
X103682357Y-104109835D01*
X103542009Y-103899791D01*
X103331965Y-103759443D01*
X103316292Y-103756325D01*
X103485510Y-103587107D01*
X103719200Y-103022930D01*
X103719200Y-102412270D01*
X103673840Y-102302761D01*
X104429402Y-101547200D01*
X119296160Y-101547200D01*
X119296160Y-101675838D01*
X117828728Y-103143271D01*
X117765272Y-103185671D01*
X117722872Y-103249127D01*
X117722871Y-103249128D01*
X117597297Y-103437063D01*
X117538312Y-103733600D01*
X117553201Y-103808452D01*
X117553200Y-108171353D01*
X117538312Y-108246200D01*
X117553200Y-108321047D01*
X117553200Y-108321051D01*
X117597296Y-108542736D01*
X117765271Y-108794129D01*
X117828730Y-108836531D01*
X118467857Y-109475659D01*
X118337443Y-109670835D01*
X118288160Y-109918600D01*
X118288160Y-109958600D01*
X117033287Y-109958600D01*
X117028222Y-109951021D01*
X117129002Y-109800194D01*
X117196840Y-109459150D01*
X117196840Y-108971650D01*
X117129002Y-108630606D01*
X116935816Y-108341484D01*
X116934633Y-108340693D01*
X117087727Y-108187598D01*
X117184400Y-107954209D01*
X117184400Y-107626150D01*
X117025650Y-107467400D01*
X115976400Y-107467400D01*
X115976400Y-107487400D01*
X115722400Y-107487400D01*
X115722400Y-107467400D01*
X114673150Y-107467400D01*
X114514400Y-107626150D01*
X114514400Y-107954209D01*
X114611073Y-108187598D01*
X114764167Y-108340693D01*
X114762984Y-108341484D01*
X114569798Y-108630606D01*
X114501960Y-108971650D01*
X114501960Y-109459150D01*
X114569798Y-109800194D01*
X114721378Y-110027048D01*
X114621073Y-110177164D01*
X114552760Y-110520599D01*
X114552760Y-111170601D01*
X114621073Y-111514036D01*
X114815614Y-111805186D01*
X114913513Y-111870600D01*
X114815614Y-111936014D01*
X114621073Y-112227164D01*
X114552760Y-112570599D01*
X114552760Y-113220601D01*
X114621073Y-113564036D01*
X114815614Y-113855186D01*
X114927100Y-113929679D01*
X114927100Y-114429000D01*
X112722875Y-114429000D01*
X112351117Y-114057242D01*
X111860448Y-113854000D01*
X111329352Y-113854000D01*
X110838683Y-114057242D01*
X110463142Y-114432783D01*
X110259900Y-114923452D01*
X110259900Y-115454548D01*
X110463142Y-115945217D01*
X110838683Y-116320758D01*
X111156202Y-116452279D01*
X110901069Y-116557958D01*
X110839231Y-116793725D01*
X111594900Y-117549395D01*
X112350569Y-116793725D01*
X112288731Y-116557958D01*
X112012913Y-116460847D01*
X112351117Y-116320758D01*
X112722875Y-115949000D01*
X114739297Y-115949000D01*
X115073369Y-116283073D01*
X115115769Y-116346529D01*
X115367161Y-116514504D01*
X115588846Y-116558600D01*
X115588850Y-116558600D01*
X115663698Y-116573488D01*
X115738546Y-116558600D01*
X118517557Y-116558600D01*
X118701023Y-116833177D01*
X119084708Y-117089547D01*
X118880466Y-117186211D01*
X118504559Y-117601177D01*
X118343696Y-117989561D01*
X118465685Y-118211600D01*
X119608600Y-118211600D01*
X119608600Y-118191600D01*
X119862600Y-118191600D01*
X119862600Y-118211600D01*
X121005515Y-118211600D01*
X121127504Y-117989561D01*
X120966641Y-117601177D01*
X120590734Y-117186211D01*
X120386492Y-117089547D01*
X120770177Y-116833177D01*
X121087340Y-116358509D01*
X121198713Y-115798600D01*
X121134288Y-115474714D01*
X122499686Y-114109317D01*
X122563139Y-114066919D01*
X122605537Y-114003466D01*
X122605539Y-114003464D01*
X122708795Y-113848929D01*
X122731114Y-113815527D01*
X122775210Y-113593842D01*
X122775210Y-113593838D01*
X122790098Y-113518991D01*
X122775210Y-113444144D01*
X122775210Y-109466256D01*
X122790098Y-109391409D01*
X122775210Y-109316562D01*
X122775210Y-109316558D01*
X122731114Y-109094873D01*
X122643935Y-108964400D01*
X122605539Y-108906936D01*
X122605537Y-108906934D01*
X122563139Y-108843481D01*
X122499686Y-108801083D01*
X120328599Y-106629998D01*
X120328599Y-106548200D01*
X120432850Y-106548200D01*
X120591600Y-106389450D01*
X120591600Y-105740200D01*
X120845600Y-105740200D01*
X120845600Y-106389450D01*
X121004350Y-106548200D01*
X121619909Y-106548200D01*
X121853298Y-106451527D01*
X122031927Y-106272899D01*
X122128600Y-106039510D01*
X122128600Y-105898950D01*
X121969850Y-105740200D01*
X120845600Y-105740200D01*
X120591600Y-105740200D01*
X120571600Y-105740200D01*
X120571600Y-105486200D01*
X120591600Y-105486200D01*
X120591600Y-105466200D01*
X120845600Y-105466200D01*
X120845600Y-105486200D01*
X121969850Y-105486200D01*
X122128600Y-105327450D01*
X122128600Y-105186890D01*
X122038832Y-104970172D01*
X122091757Y-104890965D01*
X122141040Y-104643200D01*
X122141040Y-104043200D01*
X122091757Y-103795435D01*
X122033468Y-103708200D01*
X122091757Y-103620965D01*
X122141040Y-103373200D01*
X122141040Y-103200561D01*
X122823573Y-102518029D01*
X122887029Y-102475629D01*
X123055004Y-102224237D01*
X123099100Y-102002552D01*
X123099100Y-102002548D01*
X123113988Y-101927700D01*
X123099100Y-101852852D01*
X123099100Y-101522448D01*
X123113988Y-101447600D01*
X123099100Y-101372752D01*
X123099100Y-101372748D01*
X123055004Y-101151063D01*
X122887029Y-100899671D01*
X122823573Y-100857271D01*
X122651302Y-100685000D01*
X142919314Y-100685000D01*
X142888014Y-100705914D01*
X142888014Y-100705914D01*
G37*
X142888014Y-100705914D02*
X142693473Y-100997064D01*
X142625160Y-101340499D01*
X142625160Y-102240501D01*
X142693473Y-102583936D01*
X142799814Y-102743086D01*
X142642673Y-102978264D01*
X142574360Y-103321699D01*
X142574360Y-104221701D01*
X142642673Y-104565136D01*
X142837214Y-104856286D01*
X143128364Y-105050827D01*
X143471799Y-105119140D01*
X143821951Y-105119140D01*
X145540010Y-106837200D01*
X145395950Y-106837200D01*
X145237200Y-106995950D01*
X145237200Y-107645200D01*
X145257200Y-107645200D01*
X145257200Y-107899200D01*
X145237200Y-107899200D01*
X145237200Y-107919200D01*
X144983200Y-107919200D01*
X144983200Y-107899200D01*
X143858950Y-107899200D01*
X143704550Y-108053600D01*
X143457946Y-108053600D01*
X143324586Y-107854014D01*
X143033436Y-107659473D01*
X142690001Y-107591160D01*
X141789999Y-107591160D01*
X141446564Y-107659473D01*
X141155414Y-107854014D01*
X140960873Y-108145164D01*
X140892560Y-108488599D01*
X140892560Y-109138601D01*
X140960873Y-109482036D01*
X141155414Y-109773186D01*
X141156597Y-109773977D01*
X141001673Y-109928902D01*
X140905000Y-110162291D01*
X140905000Y-110577850D01*
X141063750Y-110736600D01*
X142113000Y-110736600D01*
X142113000Y-110716600D01*
X142367000Y-110716600D01*
X142367000Y-110736600D01*
X143416250Y-110736600D01*
X143575000Y-110577850D01*
X143575000Y-110162291D01*
X143478327Y-109928902D01*
X143323403Y-109773977D01*
X143324586Y-109773186D01*
X143457946Y-109573600D01*
X143733788Y-109573600D01*
X143737043Y-109589965D01*
X143789968Y-109669172D01*
X143700200Y-109885890D01*
X143700200Y-110026450D01*
X143858950Y-110185200D01*
X144983200Y-110185200D01*
X144983200Y-110165200D01*
X145237200Y-110165200D01*
X145237200Y-110185200D01*
X145257200Y-110185200D01*
X145257200Y-110439200D01*
X145237200Y-110439200D01*
X145237200Y-110459200D01*
X144983200Y-110459200D01*
X144983200Y-110439200D01*
X143858950Y-110439200D01*
X143700200Y-110597950D01*
X143700200Y-110738510D01*
X143789968Y-110955228D01*
X143737043Y-111034435D01*
X143687760Y-111282200D01*
X143687760Y-111882200D01*
X143737043Y-112129965D01*
X143877391Y-112340009D01*
X144087435Y-112480357D01*
X144283381Y-112519333D01*
X144436104Y-112747897D01*
X144514170Y-112800059D01*
X145344328Y-113630217D01*
X145194802Y-113854000D01*
X145152051Y-113917981D01*
X145079484Y-114282799D01*
X145097801Y-114374885D01*
X145097801Y-114555999D01*
X143139886Y-114555999D01*
X143047800Y-114537682D01*
X142721069Y-114602673D01*
X142682982Y-114610249D01*
X142373704Y-114816902D01*
X142321542Y-114894968D01*
X140577172Y-116639339D01*
X140499103Y-116691503D01*
X140328596Y-116946686D01*
X140292450Y-117000782D01*
X140219883Y-117365600D01*
X140238200Y-117457686D01*
X140238200Y-117492550D01*
X140215391Y-117507791D01*
X140075043Y-117717835D01*
X140025760Y-117965600D01*
X140025760Y-118965600D01*
X140075043Y-119213365D01*
X140142954Y-119315000D01*
X128429050Y-119315000D01*
X128573643Y-119098600D01*
X134239153Y-119098600D01*
X134314000Y-119113488D01*
X134388847Y-119098600D01*
X134388852Y-119098600D01*
X134610537Y-119054504D01*
X134861929Y-118886529D01*
X134904331Y-118823070D01*
X136845473Y-116881929D01*
X136908929Y-116839529D01*
X137009483Y-116689040D01*
X137561000Y-116689040D01*
X137808765Y-116639757D01*
X138018809Y-116499409D01*
X138159157Y-116289365D01*
X138208440Y-116041600D01*
X138208440Y-115301600D01*
X138208380Y-115301300D01*
X138324910Y-115301300D01*
X138357565Y-115333955D01*
X138701217Y-115476300D01*
X139073183Y-115476300D01*
X139416835Y-115333955D01*
X139679855Y-115070935D01*
X139822200Y-114727283D01*
X139822200Y-114355317D01*
X139679855Y-114011665D01*
X139416835Y-113748645D01*
X139073183Y-113606300D01*
X138701217Y-113606300D01*
X138357565Y-113748645D01*
X138324910Y-113781300D01*
X138157463Y-113781300D01*
X138142031Y-113758204D01*
X138196000Y-113627910D01*
X138196000Y-113417350D01*
X138037250Y-113258600D01*
X136488000Y-113258600D01*
X136488000Y-113278600D01*
X136234000Y-113278600D01*
X136234000Y-113258600D01*
X134684750Y-113258600D01*
X134526000Y-113417350D01*
X134526000Y-113627910D01*
X134579969Y-113758204D01*
X134562843Y-113783835D01*
X134513560Y-114031600D01*
X134513560Y-114771600D01*
X134562843Y-115019365D01*
X134574359Y-115036600D01*
X134562843Y-115053835D01*
X134513560Y-115301600D01*
X134513560Y-116041600D01*
X134562843Y-116289365D01*
X134703191Y-116499409D01*
X134913235Y-116639757D01*
X134933926Y-116643873D01*
X133999199Y-117578600D01*
X128573643Y-117578600D01*
X128390177Y-117304023D01*
X128037842Y-117068600D01*
X128390177Y-116833177D01*
X128658502Y-116431600D01*
X130757882Y-116431600D01*
X130803191Y-116499409D01*
X131013235Y-116639757D01*
X131261000Y-116689040D01*
X133661000Y-116689040D01*
X133908765Y-116639757D01*
X134118809Y-116499409D01*
X134259157Y-116289365D01*
X134308440Y-116041600D01*
X134308440Y-115301600D01*
X134259157Y-115053835D01*
X134247641Y-115036600D01*
X134259157Y-115019365D01*
X134308440Y-114771600D01*
X134308440Y-114031600D01*
X134259157Y-113783835D01*
X134247641Y-113766600D01*
X134259157Y-113749365D01*
X134308440Y-113501600D01*
X134308440Y-112761600D01*
X134283316Y-112635290D01*
X134526000Y-112635290D01*
X134526000Y-112845850D01*
X134684750Y-113004600D01*
X136234000Y-113004600D01*
X136234000Y-112285350D01*
X136488000Y-112285350D01*
X136488000Y-113004600D01*
X138037250Y-113004600D01*
X138196000Y-112845850D01*
X138196000Y-112635290D01*
X138099327Y-112401901D01*
X137920698Y-112223273D01*
X137687309Y-112126600D01*
X136646750Y-112126600D01*
X136488000Y-112285350D01*
X136234000Y-112285350D01*
X136075250Y-112126600D01*
X135034691Y-112126600D01*
X134801302Y-112223273D01*
X134622673Y-112401901D01*
X134526000Y-112635290D01*
X134283316Y-112635290D01*
X134259157Y-112513835D01*
X134118809Y-112303791D01*
X133908765Y-112163443D01*
X133661000Y-112114160D01*
X131261000Y-112114160D01*
X131013235Y-112163443D01*
X130963612Y-112196600D01*
X130155890Y-112196600D01*
X129108640Y-111149350D01*
X140905000Y-111149350D01*
X140905000Y-111564909D01*
X141001673Y-111798298D01*
X141180301Y-111976927D01*
X141413690Y-112073600D01*
X141954250Y-112073600D01*
X142113000Y-111914850D01*
X142113000Y-110990600D01*
X142367000Y-110990600D01*
X142367000Y-111914850D01*
X142525750Y-112073600D01*
X143066310Y-112073600D01*
X143299699Y-111976927D01*
X143478327Y-111798298D01*
X143575000Y-111564909D01*
X143575000Y-111149350D01*
X143416250Y-110990600D01*
X142367000Y-110990600D01*
X142113000Y-110990600D01*
X141063750Y-110990600D01*
X140905000Y-111149350D01*
X129108640Y-111149350D01*
X128795349Y-110836059D01*
X128818713Y-110718600D01*
X128707340Y-110158691D01*
X128390177Y-109684023D01*
X127915509Y-109366860D01*
X127819950Y-109347852D01*
X128053086Y-109114717D01*
X128116540Y-109072318D01*
X128158938Y-109008865D01*
X128158940Y-109008863D01*
X128284514Y-108820927D01*
X128284515Y-108820926D01*
X128328611Y-108599241D01*
X128328611Y-108599237D01*
X128343499Y-108524390D01*
X128328611Y-108449543D01*
X128328611Y-104123059D01*
X128343499Y-104048211D01*
X128328611Y-103973363D01*
X128328611Y-103973359D01*
X128289209Y-103775273D01*
X128284515Y-103751673D01*
X128158940Y-103563738D01*
X128116540Y-103500282D01*
X128053084Y-103457882D01*
X127541040Y-102945839D01*
X127541040Y-102773200D01*
X127534078Y-102738200D01*
X128057737Y-102738200D01*
X128073543Y-102817665D01*
X128213891Y-103027709D01*
X128423935Y-103168057D01*
X128671700Y-103217340D01*
X129671700Y-103217340D01*
X129919465Y-103168057D01*
X130129509Y-103027709D01*
X130144750Y-103004900D01*
X130736849Y-103004900D01*
X130828314Y-103141786D01*
X130852900Y-103158214D01*
X130852901Y-105737010D01*
X130834583Y-105829100D01*
X130907150Y-106193918D01*
X131061641Y-106425130D01*
X131113804Y-106503197D01*
X131191870Y-106555359D01*
X131601030Y-106964519D01*
X131569208Y-107124500D01*
X131684461Y-107703918D01*
X132012675Y-108195125D01*
X132503882Y-108523339D01*
X132937044Y-108609500D01*
X133229556Y-108609500D01*
X133662718Y-108523339D01*
X134153925Y-108195125D01*
X134166116Y-108176881D01*
X134175143Y-108222265D01*
X134315491Y-108432309D01*
X134525535Y-108572657D01*
X134773300Y-108621940D01*
X136473300Y-108621940D01*
X136721065Y-108572657D01*
X136931109Y-108432309D01*
X137071457Y-108222265D01*
X137120740Y-107974500D01*
X137120740Y-107345890D01*
X143700200Y-107345890D01*
X143700200Y-107486450D01*
X143858950Y-107645200D01*
X144983200Y-107645200D01*
X144983200Y-106995950D01*
X144824450Y-106837200D01*
X144208891Y-106837200D01*
X143975502Y-106933873D01*
X143796873Y-107112501D01*
X143700200Y-107345890D01*
X137120740Y-107345890D01*
X137120740Y-106274500D01*
X137071457Y-106026735D01*
X136931109Y-105816691D01*
X136721065Y-105676343D01*
X136473300Y-105627060D01*
X134773300Y-105627060D01*
X134525535Y-105676343D01*
X134315491Y-105816691D01*
X134175143Y-106026735D01*
X134166116Y-106072119D01*
X134153925Y-106053875D01*
X133662718Y-105725661D01*
X133229556Y-105639500D01*
X132937044Y-105639500D01*
X132923319Y-105642230D01*
X132722900Y-105441811D01*
X132722900Y-103158214D01*
X132747486Y-103141786D01*
X132748277Y-103140603D01*
X132903202Y-103295527D01*
X133136591Y-103392200D01*
X133552150Y-103392200D01*
X133710900Y-103233450D01*
X133710900Y-102184200D01*
X133964900Y-102184200D01*
X133964900Y-103233450D01*
X134123650Y-103392200D01*
X134539209Y-103392200D01*
X134772598Y-103295527D01*
X134951227Y-103116899D01*
X135047900Y-102883510D01*
X135047900Y-102342950D01*
X134889150Y-102184200D01*
X133964900Y-102184200D01*
X133710900Y-102184200D01*
X133690900Y-102184200D01*
X133690900Y-101930200D01*
X133710900Y-101930200D01*
X133710900Y-100880950D01*
X133964900Y-100880950D01*
X133964900Y-101930200D01*
X134889150Y-101930200D01*
X135047900Y-101771450D01*
X135047900Y-101230890D01*
X134951227Y-100997501D01*
X134772598Y-100818873D01*
X134539209Y-100722200D01*
X134123650Y-100722200D01*
X133964900Y-100880950D01*
X133710900Y-100880950D01*
X133552150Y-100722200D01*
X133136591Y-100722200D01*
X132903202Y-100818873D01*
X132748277Y-100973797D01*
X132747486Y-100972614D01*
X132456336Y-100778073D01*
X132112901Y-100709760D01*
X131462899Y-100709760D01*
X131119464Y-100778073D01*
X130828314Y-100972614D01*
X130719878Y-101134900D01*
X130144750Y-101134900D01*
X130129509Y-101112091D01*
X129919465Y-100971743D01*
X129671700Y-100922460D01*
X129269834Y-100922460D01*
X129269819Y-100922450D01*
X128997086Y-100868200D01*
X128905000Y-100849883D01*
X128812914Y-100868200D01*
X126956141Y-100868200D01*
X126893600Y-100855760D01*
X125343600Y-100855760D01*
X125095835Y-100905043D01*
X124885791Y-101045391D01*
X124745443Y-101255435D01*
X124696160Y-101503200D01*
X124696160Y-102103200D01*
X124745443Y-102350965D01*
X124803732Y-102438200D01*
X124745443Y-102525435D01*
X124696160Y-102773200D01*
X124696160Y-103373200D01*
X124745443Y-103620965D01*
X124803732Y-103708200D01*
X124745443Y-103795435D01*
X124696160Y-104043200D01*
X124696160Y-104643200D01*
X124745443Y-104890965D01*
X124803732Y-104978200D01*
X124745443Y-105065435D01*
X124696160Y-105313200D01*
X124696160Y-105913200D01*
X124745443Y-106160965D01*
X124865843Y-106341155D01*
X124521707Y-106685291D01*
X124458252Y-106727691D01*
X124415852Y-106791147D01*
X124415851Y-106791148D01*
X124290277Y-106979083D01*
X124231292Y-107275620D01*
X124246181Y-107350472D01*
X124246180Y-115914333D01*
X124231292Y-115989180D01*
X124246180Y-116064027D01*
X124246180Y-116064031D01*
X124290276Y-116285716D01*
X124458251Y-116537109D01*
X124521710Y-116579511D01*
X125956912Y-118014714D01*
X125892487Y-118338600D01*
X126003860Y-118898509D01*
X126282150Y-119315000D01*
X120750158Y-119315000D01*
X120966641Y-119076023D01*
X121127504Y-118687639D01*
X121005515Y-118465600D01*
X119862600Y-118465600D01*
X119862600Y-118485600D01*
X119608600Y-118485600D01*
X119608600Y-118465600D01*
X118465685Y-118465600D01*
X118343696Y-118687639D01*
X118504559Y-119076023D01*
X118721042Y-119315000D01*
X100685000Y-119315000D01*
X100685000Y-118664275D01*
X110839231Y-118664275D01*
X110901069Y-118900042D01*
X111402022Y-119076419D01*
X111932340Y-119047664D01*
X112288731Y-118900042D01*
X112350569Y-118664275D01*
X111594900Y-117908605D01*
X110839231Y-118664275D01*
X100685000Y-118664275D01*
X100685000Y-117536122D01*
X110247481Y-117536122D01*
X110276236Y-118066440D01*
X110423858Y-118422831D01*
X110659625Y-118484669D01*
X111415295Y-117729000D01*
X111774505Y-117729000D01*
X112530175Y-118484669D01*
X112765942Y-118422831D01*
X112942319Y-117921878D01*
X112913564Y-117391560D01*
X112765942Y-117035169D01*
X112530175Y-116973331D01*
X111774505Y-117729000D01*
X111415295Y-117729000D01*
X110659625Y-116973331D01*
X110423858Y-117035169D01*
X110247481Y-117536122D01*
X100685000Y-117536122D01*
X100685000Y-109555431D01*
X107765000Y-109555431D01*
X107765000Y-110444569D01*
X108105259Y-111266026D01*
X108733974Y-111894741D01*
X109555431Y-112235000D01*
X110444569Y-112235000D01*
X111266026Y-111894741D01*
X111894741Y-111266026D01*
X112235000Y-110444569D01*
X112235000Y-109555431D01*
X111894741Y-108733974D01*
X111266026Y-108105259D01*
X110444569Y-107765000D01*
X109555431Y-107765000D01*
X108733974Y-108105259D01*
X108105259Y-108733974D01*
X107765000Y-109555431D01*
X100685000Y-109555431D01*
X100685000Y-106400121D01*
X100686043Y-106405365D01*
X100826391Y-106615409D01*
X101036435Y-106755757D01*
X101284200Y-106805040D01*
X103084200Y-106805040D01*
X103331965Y-106755757D01*
X103542009Y-106615409D01*
X103682357Y-106405365D01*
X103731640Y-106157600D01*
X103731640Y-106017600D01*
X112666106Y-106017600D01*
X112747214Y-106138986D01*
X113038364Y-106333527D01*
X113381799Y-106401840D01*
X114031801Y-106401840D01*
X114375236Y-106333527D01*
X114666386Y-106138986D01*
X114667177Y-106137803D01*
X114822102Y-106292727D01*
X114832272Y-106296940D01*
X114789701Y-106314573D01*
X114611073Y-106493202D01*
X114514400Y-106726591D01*
X114514400Y-107054650D01*
X114673150Y-107213400D01*
X115722400Y-107213400D01*
X115722400Y-106376650D01*
X115603100Y-106257350D01*
X115629800Y-106230650D01*
X115629800Y-105181400D01*
X115883800Y-105181400D01*
X115883800Y-106230650D01*
X116003100Y-106349950D01*
X115976400Y-106376650D01*
X115976400Y-107213400D01*
X117025650Y-107213400D01*
X117184400Y-107054650D01*
X117184400Y-106726591D01*
X117087727Y-106493202D01*
X116909099Y-106314573D01*
X116739785Y-106244441D01*
X116870127Y-106114099D01*
X116966800Y-105880710D01*
X116966800Y-105340150D01*
X116808050Y-105181400D01*
X115883800Y-105181400D01*
X115629800Y-105181400D01*
X115609800Y-105181400D01*
X115609800Y-104927400D01*
X115629800Y-104927400D01*
X115629800Y-103878150D01*
X115883800Y-103878150D01*
X115883800Y-104927400D01*
X116808050Y-104927400D01*
X116966800Y-104768650D01*
X116966800Y-104228090D01*
X116870127Y-103994701D01*
X116691498Y-103816073D01*
X116458109Y-103719400D01*
X116042550Y-103719400D01*
X115883800Y-103878150D01*
X115629800Y-103878150D01*
X115471050Y-103719400D01*
X115055491Y-103719400D01*
X114822102Y-103816073D01*
X114667177Y-103970997D01*
X114666386Y-103969814D01*
X114375236Y-103775273D01*
X114031801Y-103706960D01*
X113381799Y-103706960D01*
X113038364Y-103775273D01*
X112747214Y-103969814D01*
X112552673Y-104260964D01*
X112505603Y-104497600D01*
X103731640Y-104497600D01*
X103731640Y-104357600D01*
X103682357Y-104109835D01*
X103542009Y-103899791D01*
X103331965Y-103759443D01*
X103316292Y-103756325D01*
X103485510Y-103587107D01*
X103719200Y-103022930D01*
X103719200Y-102412270D01*
X103673840Y-102302761D01*
X104429402Y-101547200D01*
X119296160Y-101547200D01*
X119296160Y-101675838D01*
X117828728Y-103143271D01*
X117765272Y-103185671D01*
X117722872Y-103249127D01*
X117722871Y-103249128D01*
X117597297Y-103437063D01*
X117538312Y-103733600D01*
X117553201Y-103808452D01*
X117553200Y-108171353D01*
X117538312Y-108246200D01*
X117553200Y-108321047D01*
X117553200Y-108321051D01*
X117597296Y-108542736D01*
X117765271Y-108794129D01*
X117828730Y-108836531D01*
X118467857Y-109475659D01*
X118337443Y-109670835D01*
X118288160Y-109918600D01*
X118288160Y-109958600D01*
X117033287Y-109958600D01*
X117028222Y-109951021D01*
X117129002Y-109800194D01*
X117196840Y-109459150D01*
X117196840Y-108971650D01*
X117129002Y-108630606D01*
X116935816Y-108341484D01*
X116934633Y-108340693D01*
X117087727Y-108187598D01*
X117184400Y-107954209D01*
X117184400Y-107626150D01*
X117025650Y-107467400D01*
X115976400Y-107467400D01*
X115976400Y-107487400D01*
X115722400Y-107487400D01*
X115722400Y-107467400D01*
X114673150Y-107467400D01*
X114514400Y-107626150D01*
X114514400Y-107954209D01*
X114611073Y-108187598D01*
X114764167Y-108340693D01*
X114762984Y-108341484D01*
X114569798Y-108630606D01*
X114501960Y-108971650D01*
X114501960Y-109459150D01*
X114569798Y-109800194D01*
X114721378Y-110027048D01*
X114621073Y-110177164D01*
X114552760Y-110520599D01*
X114552760Y-111170601D01*
X114621073Y-111514036D01*
X114815614Y-111805186D01*
X114913513Y-111870600D01*
X114815614Y-111936014D01*
X114621073Y-112227164D01*
X114552760Y-112570599D01*
X114552760Y-113220601D01*
X114621073Y-113564036D01*
X114815614Y-113855186D01*
X114927100Y-113929679D01*
X114927100Y-114429000D01*
X112722875Y-114429000D01*
X112351117Y-114057242D01*
X111860448Y-113854000D01*
X111329352Y-113854000D01*
X110838683Y-114057242D01*
X110463142Y-114432783D01*
X110259900Y-114923452D01*
X110259900Y-115454548D01*
X110463142Y-115945217D01*
X110838683Y-116320758D01*
X111156202Y-116452279D01*
X110901069Y-116557958D01*
X110839231Y-116793725D01*
X111594900Y-117549395D01*
X112350569Y-116793725D01*
X112288731Y-116557958D01*
X112012913Y-116460847D01*
X112351117Y-116320758D01*
X112722875Y-115949000D01*
X114739297Y-115949000D01*
X115073369Y-116283073D01*
X115115769Y-116346529D01*
X115367161Y-116514504D01*
X115588846Y-116558600D01*
X115588850Y-116558600D01*
X115663698Y-116573488D01*
X115738546Y-116558600D01*
X118517557Y-116558600D01*
X118701023Y-116833177D01*
X119084708Y-117089547D01*
X118880466Y-117186211D01*
X118504559Y-117601177D01*
X118343696Y-117989561D01*
X118465685Y-118211600D01*
X119608600Y-118211600D01*
X119608600Y-118191600D01*
X119862600Y-118191600D01*
X119862600Y-118211600D01*
X121005515Y-118211600D01*
X121127504Y-117989561D01*
X120966641Y-117601177D01*
X120590734Y-117186211D01*
X120386492Y-117089547D01*
X120770177Y-116833177D01*
X121087340Y-116358509D01*
X121198713Y-115798600D01*
X121134288Y-115474714D01*
X122499686Y-114109317D01*
X122563139Y-114066919D01*
X122605537Y-114003466D01*
X122605539Y-114003464D01*
X122708795Y-113848929D01*
X122731114Y-113815527D01*
X122775210Y-113593842D01*
X122775210Y-113593838D01*
X122790098Y-113518991D01*
X122775210Y-113444144D01*
X122775210Y-109466256D01*
X122790098Y-109391409D01*
X122775210Y-109316562D01*
X122775210Y-109316558D01*
X122731114Y-109094873D01*
X122643935Y-108964400D01*
X122605539Y-108906936D01*
X122605537Y-108906934D01*
X122563139Y-108843481D01*
X122499686Y-108801083D01*
X120328599Y-106629998D01*
X120328599Y-106548200D01*
X120432850Y-106548200D01*
X120591600Y-106389450D01*
X120591600Y-105740200D01*
X120845600Y-105740200D01*
X120845600Y-106389450D01*
X121004350Y-106548200D01*
X121619909Y-106548200D01*
X121853298Y-106451527D01*
X122031927Y-106272899D01*
X122128600Y-106039510D01*
X122128600Y-105898950D01*
X121969850Y-105740200D01*
X120845600Y-105740200D01*
X120591600Y-105740200D01*
X120571600Y-105740200D01*
X120571600Y-105486200D01*
X120591600Y-105486200D01*
X120591600Y-105466200D01*
X120845600Y-105466200D01*
X120845600Y-105486200D01*
X121969850Y-105486200D01*
X122128600Y-105327450D01*
X122128600Y-105186890D01*
X122038832Y-104970172D01*
X122091757Y-104890965D01*
X122141040Y-104643200D01*
X122141040Y-104043200D01*
X122091757Y-103795435D01*
X122033468Y-103708200D01*
X122091757Y-103620965D01*
X122141040Y-103373200D01*
X122141040Y-103200561D01*
X122823573Y-102518029D01*
X122887029Y-102475629D01*
X123055004Y-102224237D01*
X123099100Y-102002552D01*
X123099100Y-102002548D01*
X123113988Y-101927700D01*
X123099100Y-101852852D01*
X123099100Y-101522448D01*
X123113988Y-101447600D01*
X123099100Y-101372752D01*
X123099100Y-101372748D01*
X123055004Y-101151063D01*
X122887029Y-100899671D01*
X122823573Y-100857271D01*
X122651302Y-100685000D01*
X142919314Y-100685000D01*
X142888014Y-100705914D01*
G36*
X176315001Y-119315000D02*
X155277426Y-119315000D01*
X155317927Y-119274499D01*
X155414600Y-119041110D01*
X155414600Y-118700550D01*
X155255850Y-118541800D01*
X154406600Y-118541800D01*
X154406600Y-118561800D01*
X154152600Y-118561800D01*
X154152600Y-118541800D01*
X154132600Y-118541800D01*
X154132600Y-118287800D01*
X154152600Y-118287800D01*
X154152600Y-117438550D01*
X154406600Y-117438550D01*
X154406600Y-118287800D01*
X155255850Y-118287800D01*
X155414600Y-118129050D01*
X155414600Y-117788490D01*
X155317927Y-117555101D01*
X155139298Y-117376473D01*
X154905909Y-117279800D01*
X154565350Y-117279800D01*
X154406600Y-117438550D01*
X154152600Y-117438550D01*
X153993850Y-117279800D01*
X153653291Y-117279800D01*
X153419902Y-117376473D01*
X153241273Y-117555101D01*
X153172240Y-117721761D01*
X153172240Y-117541000D01*
X153122957Y-117293235D01*
X152982609Y-117083191D01*
X152772565Y-116942843D01*
X152524800Y-116893560D01*
X150624800Y-116893560D01*
X150377035Y-116942843D01*
X150281235Y-117006855D01*
X150417455Y-116870635D01*
X150559800Y-116526983D01*
X150559800Y-116155017D01*
X150417455Y-115811365D01*
X150154435Y-115548345D01*
X149810783Y-115406000D01*
X149759800Y-115406000D01*
X149759800Y-115014690D01*
X149690717Y-114847908D01*
X149839327Y-114699299D01*
X149936000Y-114465910D01*
X149936000Y-113925350D01*
X149777250Y-113766600D01*
X148853000Y-113766600D01*
X148853000Y-113786600D01*
X148599000Y-113786600D01*
X148599000Y-113766600D01*
X148579000Y-113766600D01*
X148579000Y-113512600D01*
X148599000Y-113512600D01*
X148599000Y-112463350D01*
X148440250Y-112304600D01*
X148024691Y-112304600D01*
X147791302Y-112401273D01*
X147636377Y-112556197D01*
X147635586Y-112555014D01*
X147344436Y-112360473D01*
X147001001Y-112292160D01*
X146650849Y-112292160D01*
X146593591Y-112234902D01*
X146631459Y-112178228D01*
X149170160Y-109639527D01*
X149195332Y-109677200D01*
X149137043Y-109764435D01*
X149087760Y-110012200D01*
X149087760Y-110612200D01*
X149137043Y-110859965D01*
X149195332Y-110947200D01*
X149137043Y-111034435D01*
X149087760Y-111282200D01*
X149087760Y-111882200D01*
X149137043Y-112129965D01*
X149253731Y-112304600D01*
X149011750Y-112304600D01*
X148853000Y-112463350D01*
X148853000Y-113512600D01*
X149777250Y-113512600D01*
X149936000Y-113353850D01*
X149936000Y-112813290D01*
X149839327Y-112579901D01*
X149789066Y-112529640D01*
X150135351Y-112529640D01*
X150876140Y-113270430D01*
X150928303Y-113348497D01*
X151006369Y-113400659D01*
X151237581Y-113555150D01*
X151602399Y-113627717D01*
X151694485Y-113609400D01*
X153572286Y-113609400D01*
X153588714Y-113633986D01*
X153879864Y-113828527D01*
X154223299Y-113896840D01*
X155123301Y-113896840D01*
X155466736Y-113828527D01*
X155476508Y-113821997D01*
X160157341Y-118502831D01*
X160209503Y-118580897D01*
X160287569Y-118633059D01*
X160518781Y-118787550D01*
X160883599Y-118860117D01*
X160975685Y-118841800D01*
X170146750Y-118841800D01*
X170161991Y-118864609D01*
X170372035Y-119004957D01*
X170619800Y-119054240D01*
X171619800Y-119054240D01*
X171867565Y-119004957D01*
X172077609Y-118864609D01*
X172092850Y-118841800D01*
X173531814Y-118841800D01*
X173623900Y-118860117D01*
X173715986Y-118841800D01*
X173988719Y-118787550D01*
X174297997Y-118580897D01*
X174350161Y-118502828D01*
X174941631Y-117911359D01*
X175019697Y-117859197D01*
X175226350Y-117549919D01*
X175280600Y-117277186D01*
X175280600Y-117277185D01*
X175293348Y-117213097D01*
X175443365Y-117183257D01*
X175653409Y-117042909D01*
X175793757Y-116832865D01*
X175843040Y-116585100D01*
X175843040Y-116064274D01*
X175908517Y-115735100D01*
X175843040Y-115405927D01*
X175843040Y-114885100D01*
X175793757Y-114637335D01*
X175653409Y-114427291D01*
X175443365Y-114286943D01*
X175397981Y-114277916D01*
X175416225Y-114265725D01*
X175744439Y-113774518D01*
X175859692Y-113195100D01*
X175744439Y-112615682D01*
X175416225Y-112124475D01*
X175289598Y-112039865D01*
X175298916Y-111993018D01*
X175280600Y-111900936D01*
X175280600Y-111900933D01*
X175226350Y-111628200D01*
X175019697Y-111318922D01*
X174941628Y-111266758D01*
X174874200Y-111199330D01*
X174874200Y-110062640D01*
X175088400Y-110062640D01*
X175336165Y-110013357D01*
X175546209Y-109873009D01*
X175686557Y-109662965D01*
X175735840Y-109415200D01*
X175735840Y-107965200D01*
X175686557Y-107717435D01*
X175618462Y-107615525D01*
X175579304Y-107418663D01*
X175411329Y-107167271D01*
X175347874Y-107124872D01*
X173504003Y-105281000D01*
X174032753Y-105281000D01*
X174107600Y-105295888D01*
X174182447Y-105281000D01*
X174182452Y-105281000D01*
X174404137Y-105236904D01*
X174655529Y-105068929D01*
X174697931Y-105005470D01*
X175347873Y-104355529D01*
X175411329Y-104313129D01*
X175579304Y-104061737D01*
X175618462Y-103864875D01*
X175686557Y-103762965D01*
X175735840Y-103515200D01*
X175735840Y-102065200D01*
X175686557Y-101817435D01*
X175546209Y-101607391D01*
X175336165Y-101467043D01*
X175088400Y-101417760D01*
X174638400Y-101417760D01*
X174568327Y-101431698D01*
X174564710Y-101430200D01*
X174484650Y-101430200D01*
X174462003Y-101452847D01*
X174390635Y-101467043D01*
X174209380Y-101588155D01*
X174148099Y-101526873D01*
X173961553Y-101449603D01*
X173942150Y-101430200D01*
X173834650Y-101430200D01*
X173815247Y-101449603D01*
X173628701Y-101526873D01*
X173567420Y-101588155D01*
X173386165Y-101467043D01*
X173314797Y-101452847D01*
X173292150Y-101430200D01*
X173212090Y-101430200D01*
X173208473Y-101431698D01*
X173138400Y-101417760D01*
X172688400Y-101417760D01*
X172440635Y-101467043D01*
X172230591Y-101607391D01*
X172090243Y-101817435D01*
X172040960Y-102065200D01*
X172040960Y-103515200D01*
X172089852Y-103761000D01*
X168488903Y-103761000D01*
X166300631Y-101572730D01*
X166258229Y-101509271D01*
X166073678Y-101385958D01*
X166058457Y-101309435D01*
X165918109Y-101099391D01*
X165708065Y-100959043D01*
X165460300Y-100909760D01*
X164460300Y-100909760D01*
X164212535Y-100959043D01*
X164002491Y-101099391D01*
X163862143Y-101309435D01*
X163846922Y-101385958D01*
X163662371Y-101509271D01*
X163619971Y-101572727D01*
X163525500Y-101667198D01*
X163482252Y-101667198D01*
X163641000Y-101508450D01*
X163641000Y-101092891D01*
X163544327Y-100859502D01*
X163369826Y-100685000D01*
X176315000Y-100685000D01*
X176315001Y-119315000D01*
X176315001Y-119315000D01*
G37*
X176315001Y-119315000D02*
X155277426Y-119315000D01*
X155317927Y-119274499D01*
X155414600Y-119041110D01*
X155414600Y-118700550D01*
X155255850Y-118541800D01*
X154406600Y-118541800D01*
X154406600Y-118561800D01*
X154152600Y-118561800D01*
X154152600Y-118541800D01*
X154132600Y-118541800D01*
X154132600Y-118287800D01*
X154152600Y-118287800D01*
X154152600Y-117438550D01*
X154406600Y-117438550D01*
X154406600Y-118287800D01*
X155255850Y-118287800D01*
X155414600Y-118129050D01*
X155414600Y-117788490D01*
X155317927Y-117555101D01*
X155139298Y-117376473D01*
X154905909Y-117279800D01*
X154565350Y-117279800D01*
X154406600Y-117438550D01*
X154152600Y-117438550D01*
X153993850Y-117279800D01*
X153653291Y-117279800D01*
X153419902Y-117376473D01*
X153241273Y-117555101D01*
X153172240Y-117721761D01*
X153172240Y-117541000D01*
X153122957Y-117293235D01*
X152982609Y-117083191D01*
X152772565Y-116942843D01*
X152524800Y-116893560D01*
X150624800Y-116893560D01*
X150377035Y-116942843D01*
X150281235Y-117006855D01*
X150417455Y-116870635D01*
X150559800Y-116526983D01*
X150559800Y-116155017D01*
X150417455Y-115811365D01*
X150154435Y-115548345D01*
X149810783Y-115406000D01*
X149759800Y-115406000D01*
X149759800Y-115014690D01*
X149690717Y-114847908D01*
X149839327Y-114699299D01*
X149936000Y-114465910D01*
X149936000Y-113925350D01*
X149777250Y-113766600D01*
X148853000Y-113766600D01*
X148853000Y-113786600D01*
X148599000Y-113786600D01*
X148599000Y-113766600D01*
X148579000Y-113766600D01*
X148579000Y-113512600D01*
X148599000Y-113512600D01*
X148599000Y-112463350D01*
X148440250Y-112304600D01*
X148024691Y-112304600D01*
X147791302Y-112401273D01*
X147636377Y-112556197D01*
X147635586Y-112555014D01*
X147344436Y-112360473D01*
X147001001Y-112292160D01*
X146650849Y-112292160D01*
X146593591Y-112234902D01*
X146631459Y-112178228D01*
X149170160Y-109639527D01*
X149195332Y-109677200D01*
X149137043Y-109764435D01*
X149087760Y-110012200D01*
X149087760Y-110612200D01*
X149137043Y-110859965D01*
X149195332Y-110947200D01*
X149137043Y-111034435D01*
X149087760Y-111282200D01*
X149087760Y-111882200D01*
X149137043Y-112129965D01*
X149253731Y-112304600D01*
X149011750Y-112304600D01*
X148853000Y-112463350D01*
X148853000Y-113512600D01*
X149777250Y-113512600D01*
X149936000Y-113353850D01*
X149936000Y-112813290D01*
X149839327Y-112579901D01*
X149789066Y-112529640D01*
X150135351Y-112529640D01*
X150876140Y-113270430D01*
X150928303Y-113348497D01*
X151006369Y-113400659D01*
X151237581Y-113555150D01*
X151602399Y-113627717D01*
X151694485Y-113609400D01*
X153572286Y-113609400D01*
X153588714Y-113633986D01*
X153879864Y-113828527D01*
X154223299Y-113896840D01*
X155123301Y-113896840D01*
X155466736Y-113828527D01*
X155476508Y-113821997D01*
X160157341Y-118502831D01*
X160209503Y-118580897D01*
X160287569Y-118633059D01*
X160518781Y-118787550D01*
X160883599Y-118860117D01*
X160975685Y-118841800D01*
X170146750Y-118841800D01*
X170161991Y-118864609D01*
X170372035Y-119004957D01*
X170619800Y-119054240D01*
X171619800Y-119054240D01*
X171867565Y-119004957D01*
X172077609Y-118864609D01*
X172092850Y-118841800D01*
X173531814Y-118841800D01*
X173623900Y-118860117D01*
X173715986Y-118841800D01*
X173988719Y-118787550D01*
X174297997Y-118580897D01*
X174350161Y-118502828D01*
X174941631Y-117911359D01*
X175019697Y-117859197D01*
X175226350Y-117549919D01*
X175280600Y-117277186D01*
X175280600Y-117277185D01*
X175293348Y-117213097D01*
X175443365Y-117183257D01*
X175653409Y-117042909D01*
X175793757Y-116832865D01*
X175843040Y-116585100D01*
X175843040Y-116064274D01*
X175908517Y-115735100D01*
X175843040Y-115405927D01*
X175843040Y-114885100D01*
X175793757Y-114637335D01*
X175653409Y-114427291D01*
X175443365Y-114286943D01*
X175397981Y-114277916D01*
X175416225Y-114265725D01*
X175744439Y-113774518D01*
X175859692Y-113195100D01*
X175744439Y-112615682D01*
X175416225Y-112124475D01*
X175289598Y-112039865D01*
X175298916Y-111993018D01*
X175280600Y-111900936D01*
X175280600Y-111900933D01*
X175226350Y-111628200D01*
X175019697Y-111318922D01*
X174941628Y-111266758D01*
X174874200Y-111199330D01*
X174874200Y-110062640D01*
X175088400Y-110062640D01*
X175336165Y-110013357D01*
X175546209Y-109873009D01*
X175686557Y-109662965D01*
X175735840Y-109415200D01*
X175735840Y-107965200D01*
X175686557Y-107717435D01*
X175618462Y-107615525D01*
X175579304Y-107418663D01*
X175411329Y-107167271D01*
X175347874Y-107124872D01*
X173504003Y-105281000D01*
X174032753Y-105281000D01*
X174107600Y-105295888D01*
X174182447Y-105281000D01*
X174182452Y-105281000D01*
X174404137Y-105236904D01*
X174655529Y-105068929D01*
X174697931Y-105005470D01*
X175347873Y-104355529D01*
X175411329Y-104313129D01*
X175579304Y-104061737D01*
X175618462Y-103864875D01*
X175686557Y-103762965D01*
X175735840Y-103515200D01*
X175735840Y-102065200D01*
X175686557Y-101817435D01*
X175546209Y-101607391D01*
X175336165Y-101467043D01*
X175088400Y-101417760D01*
X174638400Y-101417760D01*
X174568327Y-101431698D01*
X174564710Y-101430200D01*
X174484650Y-101430200D01*
X174462003Y-101452847D01*
X174390635Y-101467043D01*
X174209380Y-101588155D01*
X174148099Y-101526873D01*
X173961553Y-101449603D01*
X173942150Y-101430200D01*
X173834650Y-101430200D01*
X173815247Y-101449603D01*
X173628701Y-101526873D01*
X173567420Y-101588155D01*
X173386165Y-101467043D01*
X173314797Y-101452847D01*
X173292150Y-101430200D01*
X173212090Y-101430200D01*
X173208473Y-101431698D01*
X173138400Y-101417760D01*
X172688400Y-101417760D01*
X172440635Y-101467043D01*
X172230591Y-101607391D01*
X172090243Y-101817435D01*
X172040960Y-102065200D01*
X172040960Y-103515200D01*
X172089852Y-103761000D01*
X168488903Y-103761000D01*
X166300631Y-101572730D01*
X166258229Y-101509271D01*
X166073678Y-101385958D01*
X166058457Y-101309435D01*
X165918109Y-101099391D01*
X165708065Y-100959043D01*
X165460300Y-100909760D01*
X164460300Y-100909760D01*
X164212535Y-100959043D01*
X164002491Y-101099391D01*
X163862143Y-101309435D01*
X163846922Y-101385958D01*
X163662371Y-101509271D01*
X163619971Y-101572727D01*
X163525500Y-101667198D01*
X163482252Y-101667198D01*
X163641000Y-101508450D01*
X163641000Y-101092891D01*
X163544327Y-100859502D01*
X163369826Y-100685000D01*
X176315000Y-100685000D01*
X176315001Y-119315000D01*
G36*
X156109050Y-105086918D02*
X156260247Y-105313200D01*
X156315704Y-105396197D01*
X156393770Y-105448359D01*
X159391439Y-108446029D01*
X159443602Y-108524096D01*
X159752880Y-108730749D01*
X160025613Y-108784999D01*
X160025616Y-108784999D01*
X160117698Y-108803315D01*
X160209780Y-108784999D01*
X163084124Y-108784999D01*
X162765000Y-109555431D01*
X162765000Y-110444569D01*
X163105259Y-111266026D01*
X163733974Y-111894741D01*
X164555431Y-112235000D01*
X165444569Y-112235000D01*
X166266026Y-111894741D01*
X166894741Y-111266026D01*
X167235000Y-110444569D01*
X167235000Y-109967289D01*
X169242741Y-111975031D01*
X169294903Y-112053097D01*
X169372969Y-112105259D01*
X169604181Y-112259750D01*
X169968999Y-112332317D01*
X170061085Y-112314000D01*
X170095950Y-112314000D01*
X170111191Y-112336809D01*
X170321235Y-112477157D01*
X170569000Y-112526440D01*
X171569000Y-112526440D01*
X171816765Y-112477157D01*
X172026809Y-112336809D01*
X172042050Y-112314000D01*
X172076914Y-112314000D01*
X172169000Y-112332317D01*
X172261086Y-112314000D01*
X172533819Y-112259750D01*
X172843097Y-112053097D01*
X172895261Y-111975028D01*
X173035289Y-111835000D01*
X173058450Y-111951437D01*
X173224522Y-112199983D01*
X172946761Y-112615682D01*
X172831508Y-113195100D01*
X172946761Y-113774518D01*
X173274975Y-114265725D01*
X173293219Y-114277916D01*
X173247835Y-114286943D01*
X173037791Y-114427291D01*
X172897443Y-114637335D01*
X172877698Y-114736600D01*
X172239926Y-114736600D01*
X172332727Y-114643798D01*
X172429400Y-114410409D01*
X172429400Y-114082350D01*
X172270650Y-113923600D01*
X171221400Y-113923600D01*
X171221400Y-113943600D01*
X170967400Y-113943600D01*
X170967400Y-113923600D01*
X169918150Y-113923600D01*
X169759400Y-114082350D01*
X169759400Y-114410409D01*
X169856073Y-114643798D01*
X170009167Y-114796893D01*
X170007984Y-114797684D01*
X169814798Y-115086806D01*
X169746960Y-115427850D01*
X169746960Y-115915350D01*
X169814798Y-116256394D01*
X170007984Y-116545516D01*
X170297106Y-116738702D01*
X170510380Y-116781125D01*
X170372035Y-116808643D01*
X170161991Y-116948991D01*
X170146750Y-116971800D01*
X161270890Y-116971800D01*
X157481881Y-113182791D01*
X169759400Y-113182791D01*
X169759400Y-113510850D01*
X169918150Y-113669600D01*
X170967400Y-113669600D01*
X170967400Y-112832850D01*
X171221400Y-112832850D01*
X171221400Y-113669600D01*
X172270650Y-113669600D01*
X172429400Y-113510850D01*
X172429400Y-113182791D01*
X172332727Y-112949402D01*
X172154099Y-112770773D01*
X171920710Y-112674100D01*
X171380150Y-112674100D01*
X171221400Y-112832850D01*
X170967400Y-112832850D01*
X170808650Y-112674100D01*
X170268090Y-112674100D01*
X170034701Y-112770773D01*
X169856073Y-112949402D01*
X169759400Y-113182791D01*
X157481881Y-113182791D01*
X156377461Y-112078372D01*
X156325297Y-112000303D01*
X156016019Y-111793650D01*
X155779070Y-111746518D01*
X155757886Y-111714814D01*
X155659987Y-111649400D01*
X155757886Y-111583986D01*
X155952427Y-111292836D01*
X156020740Y-110949401D01*
X156020740Y-110299399D01*
X155952427Y-109955964D01*
X155757886Y-109664814D01*
X155466736Y-109470273D01*
X155236616Y-109424500D01*
X155221229Y-109401471D01*
X155157773Y-109359071D01*
X154040790Y-108242089D01*
X154040790Y-105029040D01*
X154812050Y-105029040D01*
X155153094Y-104961202D01*
X155350798Y-104829100D01*
X156057767Y-104829100D01*
X156109050Y-105086918D01*
X156109050Y-105086918D01*
G37*
X156109050Y-105086918D02*
X156260247Y-105313200D01*
X156315704Y-105396197D01*
X156393770Y-105448359D01*
X159391439Y-108446029D01*
X159443602Y-108524096D01*
X159752880Y-108730749D01*
X160025613Y-108784999D01*
X160025616Y-108784999D01*
X160117698Y-108803315D01*
X160209780Y-108784999D01*
X163084124Y-108784999D01*
X162765000Y-109555431D01*
X162765000Y-110444569D01*
X163105259Y-111266026D01*
X163733974Y-111894741D01*
X164555431Y-112235000D01*
X165444569Y-112235000D01*
X166266026Y-111894741D01*
X166894741Y-111266026D01*
X167235000Y-110444569D01*
X167235000Y-109967289D01*
X169242741Y-111975031D01*
X169294903Y-112053097D01*
X169372969Y-112105259D01*
X169604181Y-112259750D01*
X169968999Y-112332317D01*
X170061085Y-112314000D01*
X170095950Y-112314000D01*
X170111191Y-112336809D01*
X170321235Y-112477157D01*
X170569000Y-112526440D01*
X171569000Y-112526440D01*
X171816765Y-112477157D01*
X172026809Y-112336809D01*
X172042050Y-112314000D01*
X172076914Y-112314000D01*
X172169000Y-112332317D01*
X172261086Y-112314000D01*
X172533819Y-112259750D01*
X172843097Y-112053097D01*
X172895261Y-111975028D01*
X173035289Y-111835000D01*
X173058450Y-111951437D01*
X173224522Y-112199983D01*
X172946761Y-112615682D01*
X172831508Y-113195100D01*
X172946761Y-113774518D01*
X173274975Y-114265725D01*
X173293219Y-114277916D01*
X173247835Y-114286943D01*
X173037791Y-114427291D01*
X172897443Y-114637335D01*
X172877698Y-114736600D01*
X172239926Y-114736600D01*
X172332727Y-114643798D01*
X172429400Y-114410409D01*
X172429400Y-114082350D01*
X172270650Y-113923600D01*
X171221400Y-113923600D01*
X171221400Y-113943600D01*
X170967400Y-113943600D01*
X170967400Y-113923600D01*
X169918150Y-113923600D01*
X169759400Y-114082350D01*
X169759400Y-114410409D01*
X169856073Y-114643798D01*
X170009167Y-114796893D01*
X170007984Y-114797684D01*
X169814798Y-115086806D01*
X169746960Y-115427850D01*
X169746960Y-115915350D01*
X169814798Y-116256394D01*
X170007984Y-116545516D01*
X170297106Y-116738702D01*
X170510380Y-116781125D01*
X170372035Y-116808643D01*
X170161991Y-116948991D01*
X170146750Y-116971800D01*
X161270890Y-116971800D01*
X157481881Y-113182791D01*
X169759400Y-113182791D01*
X169759400Y-113510850D01*
X169918150Y-113669600D01*
X170967400Y-113669600D01*
X170967400Y-112832850D01*
X171221400Y-112832850D01*
X171221400Y-113669600D01*
X172270650Y-113669600D01*
X172429400Y-113510850D01*
X172429400Y-113182791D01*
X172332727Y-112949402D01*
X172154099Y-112770773D01*
X171920710Y-112674100D01*
X171380150Y-112674100D01*
X171221400Y-112832850D01*
X170967400Y-112832850D01*
X170808650Y-112674100D01*
X170268090Y-112674100D01*
X170034701Y-112770773D01*
X169856073Y-112949402D01*
X169759400Y-113182791D01*
X157481881Y-113182791D01*
X156377461Y-112078372D01*
X156325297Y-112000303D01*
X156016019Y-111793650D01*
X155779070Y-111746518D01*
X155757886Y-111714814D01*
X155659987Y-111649400D01*
X155757886Y-111583986D01*
X155952427Y-111292836D01*
X156020740Y-110949401D01*
X156020740Y-110299399D01*
X155952427Y-109955964D01*
X155757886Y-109664814D01*
X155466736Y-109470273D01*
X155236616Y-109424500D01*
X155221229Y-109401471D01*
X155157773Y-109359071D01*
X154040790Y-108242089D01*
X154040790Y-105029040D01*
X154812050Y-105029040D01*
X155153094Y-104961202D01*
X155350798Y-104829100D01*
X156057767Y-104829100D01*
X156109050Y-105086918D01*
G36*
X162433000Y-101667200D02*
X162453000Y-101667200D01*
X162453000Y-101921200D01*
X162433000Y-101921200D01*
X162433000Y-101941200D01*
X162179000Y-101941200D01*
X162179000Y-101921200D01*
X162159000Y-101921200D01*
X162159000Y-101667200D01*
X162179000Y-101667200D01*
X162179000Y-101647200D01*
X162433000Y-101647200D01*
X162433000Y-101667200D01*
X162433000Y-101667200D01*
G37*
X162433000Y-101667200D02*
X162453000Y-101667200D01*
X162453000Y-101921200D01*
X162433000Y-101921200D01*
X162433000Y-101941200D01*
X162179000Y-101941200D01*
X162179000Y-101921200D01*
X162159000Y-101921200D01*
X162159000Y-101667200D01*
X162179000Y-101667200D01*
X162179000Y-101647200D01*
X162433000Y-101647200D01*
X162433000Y-101667200D01*
G04 #@! TD*
M02*
