M48
;DRILL file {KiCad (5.0.1)-4} date 30/10/2019 18:23:38
;FORMAT={-:-/ absolute / inch / decimal}
FMAT,2
INCH,TZ
T1C0.0157
T2C0.0315
T3C0.0354
T4C0.0394
%
G90
G05
M72
T1
X4.2315Y-4.671
X4.265Y-4.67
X4.5615Y-4.51
X4.867Y-4.6625
X5.4307Y-3.9902
X5.452Y-4.6005
X5.468Y-4.5095
X5.4701Y-3.9902
X5.4855Y-4.5995
X6.0236Y-4.5276
X6.063Y-4.5276
X6.5351Y-4.4821
X6.5745Y-4.4821
X6.811Y-3.9764
X6.8504Y-3.9764
X6.8898Y-3.9764
T2
X4.714Y-4.359
X4.714Y-4.459
X4.714Y-4.559
X4.714Y-4.659
X5.014Y-4.359
X5.014Y-4.459
X5.014Y-4.559
X5.014Y-4.659
X4.3935Y-4.535
X4.3935Y-4.635
T3
X4.023Y-4.044
X4.023Y-4.144
T4
X5.2395Y-4.2175
X5.3395Y-4.2175
X6.864Y-4.4565
X6.864Y-4.5565
T0
M30
