G04 #@! TF.GenerationSoftware,KiCad,Pcbnew,(5.0.1)-4*
G04 #@! TF.CreationDate,2019-10-30T18:23:07+01:00*
G04 #@! TF.ProjectId,PCB,5043422E6B696361645F706362000000,rev?*
G04 #@! TF.SameCoordinates,Original*
G04 #@! TF.FileFunction,Legend,Top*
G04 #@! TF.FilePolarity,Positive*
%FSLAX46Y46*%
G04 Gerber Fmt 4.6, Leading zero omitted, Abs format (unit mm)*
G04 Created by KiCad (PCBNEW (5.0.1)-4) date 30/10/2019 18:23:07*
%MOMM*%
%LPD*%
G01*
G04 APERTURE LIST*
%ADD10C,0.200000*%
%ADD11C,0.150000*%
%ADD12C,0.300000*%
%ADD13C,0.120000*%
%ADD14C,0.010000*%
G04 APERTURE END LIST*
D10*
X121516042Y-118914342D02*
X122158900Y-118914342D01*
X122287471Y-118957200D01*
X122373185Y-119042914D01*
X122416042Y-119171485D01*
X122416042Y-119257200D01*
X122416042Y-118057200D02*
X122416042Y-118485771D01*
X121516042Y-118485771D01*
X122330328Y-117242914D02*
X122373185Y-117285771D01*
X122416042Y-117414342D01*
X122416042Y-117500057D01*
X122373185Y-117628628D01*
X122287471Y-117714342D01*
X122201757Y-117757200D01*
X122030328Y-117800057D01*
X121901757Y-117800057D01*
X121730328Y-117757200D01*
X121644614Y-117714342D01*
X121558900Y-117628628D01*
X121516042Y-117500057D01*
X121516042Y-117414342D01*
X121558900Y-117285771D01*
X121601757Y-117242914D01*
X121516042Y-116600057D02*
X122158900Y-116600057D01*
X122287471Y-116642914D01*
X122373185Y-116728628D01*
X122416042Y-116857200D01*
X122416042Y-116942914D01*
X122416042Y-115742914D02*
X122416042Y-116171485D01*
X121516042Y-116171485D01*
X122330328Y-114928628D02*
X122373185Y-114971485D01*
X122416042Y-115100057D01*
X122416042Y-115185771D01*
X122373185Y-115314342D01*
X122287471Y-115400057D01*
X122201757Y-115442914D01*
X122030328Y-115485771D01*
X121901757Y-115485771D01*
X121730328Y-115442914D01*
X121644614Y-115400057D01*
X121558900Y-115314342D01*
X121516042Y-115185771D01*
X121516042Y-115100057D01*
X121558900Y-114971485D01*
X121601757Y-114928628D01*
X121516042Y-114285771D02*
X122158900Y-114285771D01*
X122287471Y-114328628D01*
X122373185Y-114414342D01*
X122416042Y-114542914D01*
X122416042Y-114628628D01*
X122416042Y-113428628D02*
X122416042Y-113857200D01*
X121516042Y-113857200D01*
X122330328Y-112614342D02*
X122373185Y-112657200D01*
X122416042Y-112785771D01*
X122416042Y-112871485D01*
X122373185Y-113000057D01*
X122287471Y-113085771D01*
X122201757Y-113128628D01*
X122030328Y-113171485D01*
X121901757Y-113171485D01*
X121730328Y-113128628D01*
X121644614Y-113085771D01*
X121558900Y-113000057D01*
X121516042Y-112871485D01*
X121516042Y-112785771D01*
X121558900Y-112657200D01*
X121601757Y-112614342D01*
X121516042Y-111971485D02*
X122158900Y-111971485D01*
X122287471Y-112014342D01*
X122373185Y-112100057D01*
X122416042Y-112228628D01*
X122416042Y-112314342D01*
X122416042Y-111114342D02*
X122416042Y-111542914D01*
X121516042Y-111542914D01*
X122330328Y-110300057D02*
X122373185Y-110342914D01*
X122416042Y-110471485D01*
X122416042Y-110557200D01*
X122373185Y-110685771D01*
X122287471Y-110771485D01*
X122201757Y-110814342D01*
X122030328Y-110857200D01*
X121901757Y-110857200D01*
X121730328Y-110814342D01*
X121644614Y-110771485D01*
X121558900Y-110685771D01*
X121516042Y-110557200D01*
X121516042Y-110471485D01*
X121558900Y-110342914D01*
X121601757Y-110300057D01*
D11*
X107662404Y-116731900D02*
X108233833Y-116731900D01*
X108348119Y-116769995D01*
X108424309Y-116846185D01*
X108462404Y-116960471D01*
X108462404Y-117036661D01*
X108386214Y-116350947D02*
X108424309Y-116312852D01*
X108462404Y-116350947D01*
X108424309Y-116389042D01*
X108386214Y-116350947D01*
X108462404Y-116350947D01*
X108043357Y-115969995D02*
X108043357Y-115703328D01*
X108462404Y-115589042D02*
X108462404Y-115969995D01*
X107662404Y-115969995D01*
X107662404Y-115589042D01*
X108462404Y-115131900D02*
X108424309Y-115208090D01*
X108348119Y-115246185D01*
X107662404Y-115246185D01*
X108462404Y-114827138D02*
X107929071Y-114827138D01*
X107662404Y-114827138D02*
X107700500Y-114865233D01*
X107738595Y-114827138D01*
X107700500Y-114789042D01*
X107662404Y-114827138D01*
X107738595Y-114827138D01*
X108462404Y-114331900D02*
X108424309Y-114408090D01*
X108386214Y-114446185D01*
X108310023Y-114484280D01*
X108081452Y-114484280D01*
X108005261Y-114446185D01*
X107967166Y-114408090D01*
X107929071Y-114331900D01*
X107929071Y-114217614D01*
X107967166Y-114141423D01*
X108005261Y-114103328D01*
X108081452Y-114065233D01*
X108310023Y-114065233D01*
X108386214Y-114103328D01*
X108424309Y-114141423D01*
X108462404Y-114217614D01*
X108462404Y-114331900D01*
X109012404Y-119074757D02*
X109012404Y-118579519D01*
X109317166Y-118846185D01*
X109317166Y-118731900D01*
X109355261Y-118655709D01*
X109393357Y-118617614D01*
X109469547Y-118579519D01*
X109660023Y-118579519D01*
X109736214Y-118617614D01*
X109774309Y-118655709D01*
X109812404Y-118731900D01*
X109812404Y-118960471D01*
X109774309Y-119036661D01*
X109736214Y-119074757D01*
X109012404Y-118084280D02*
X109012404Y-118008090D01*
X109050500Y-117931900D01*
X109088595Y-117893804D01*
X109164785Y-117855709D01*
X109317166Y-117817614D01*
X109507642Y-117817614D01*
X109660023Y-117855709D01*
X109736214Y-117893804D01*
X109774309Y-117931900D01*
X109812404Y-118008090D01*
X109812404Y-118084280D01*
X109774309Y-118160471D01*
X109736214Y-118198566D01*
X109660023Y-118236661D01*
X109507642Y-118274757D01*
X109317166Y-118274757D01*
X109164785Y-118236661D01*
X109088595Y-118198566D01*
X109050500Y-118160471D01*
X109012404Y-118084280D01*
X109507642Y-117474757D02*
X109507642Y-116865233D01*
X109012404Y-116560471D02*
X109812404Y-116027138D01*
X109012404Y-116027138D02*
X109812404Y-116560471D01*
X109507642Y-115722376D02*
X109507642Y-115112852D01*
X109088595Y-114769995D02*
X109050500Y-114731900D01*
X109012404Y-114655709D01*
X109012404Y-114465233D01*
X109050500Y-114389042D01*
X109088595Y-114350947D01*
X109164785Y-114312852D01*
X109240976Y-114312852D01*
X109355261Y-114350947D01*
X109812404Y-114808090D01*
X109812404Y-114312852D01*
X109012404Y-113817614D02*
X109012404Y-113741423D01*
X109050500Y-113665233D01*
X109088595Y-113627138D01*
X109164785Y-113589042D01*
X109317166Y-113550947D01*
X109507642Y-113550947D01*
X109660023Y-113589042D01*
X109736214Y-113627138D01*
X109774309Y-113665233D01*
X109812404Y-113741423D01*
X109812404Y-113817614D01*
X109774309Y-113893804D01*
X109736214Y-113931900D01*
X109660023Y-113969995D01*
X109507642Y-114008090D01*
X109317166Y-114008090D01*
X109164785Y-113969995D01*
X109088595Y-113931900D01*
X109050500Y-113893804D01*
X109012404Y-113817614D01*
X109812404Y-112789042D02*
X109812404Y-113246185D01*
X109812404Y-113017614D02*
X109012404Y-113017614D01*
X109126690Y-113093804D01*
X109202880Y-113169995D01*
X109240976Y-113246185D01*
X109812404Y-112408090D02*
X109812404Y-112255709D01*
X109774309Y-112179519D01*
X109736214Y-112141423D01*
X109621928Y-112065233D01*
X109469547Y-112027138D01*
X109164785Y-112027138D01*
X109088595Y-112065233D01*
X109050500Y-112103328D01*
X109012404Y-112179519D01*
X109012404Y-112331900D01*
X109050500Y-112408090D01*
X109088595Y-112446185D01*
X109164785Y-112484280D01*
X109355261Y-112484280D01*
X109431452Y-112446185D01*
X109469547Y-112408090D01*
X109507642Y-112331900D01*
X109507642Y-112179519D01*
X109469547Y-112103328D01*
X109431452Y-112065233D01*
X109355261Y-112027138D01*
D10*
X132367614Y-109751761D02*
X132510471Y-109799380D01*
X132748566Y-109799380D01*
X132843804Y-109751761D01*
X132891423Y-109704142D01*
X132939042Y-109608904D01*
X132939042Y-109513666D01*
X132891423Y-109418428D01*
X132843804Y-109370809D01*
X132748566Y-109323190D01*
X132558090Y-109275571D01*
X132462852Y-109227952D01*
X132415233Y-109180333D01*
X132367614Y-109085095D01*
X132367614Y-108989857D01*
X132415233Y-108894619D01*
X132462852Y-108847000D01*
X132558090Y-108799380D01*
X132796185Y-108799380D01*
X132939042Y-108847000D01*
X133272376Y-109132714D02*
X133462852Y-109799380D01*
X133653328Y-109323190D01*
X133843804Y-109799380D01*
X134034280Y-109132714D01*
X134415233Y-109799380D02*
X134415233Y-109132714D01*
X134415233Y-108799380D02*
X134367614Y-108847000D01*
X134415233Y-108894619D01*
X134462852Y-108847000D01*
X134415233Y-108799380D01*
X134415233Y-108894619D01*
X134748566Y-109132714D02*
X135129519Y-109132714D01*
X134891423Y-108799380D02*
X134891423Y-109656523D01*
X134939042Y-109751761D01*
X135034280Y-109799380D01*
X135129519Y-109799380D01*
X135891423Y-109751761D02*
X135796185Y-109799380D01*
X135605709Y-109799380D01*
X135510471Y-109751761D01*
X135462852Y-109704142D01*
X135415233Y-109608904D01*
X135415233Y-109323190D01*
X135462852Y-109227952D01*
X135510471Y-109180333D01*
X135605709Y-109132714D01*
X135796185Y-109132714D01*
X135891423Y-109180333D01*
X136319995Y-109799380D02*
X136319995Y-108799380D01*
X136748566Y-109799380D02*
X136748566Y-109275571D01*
X136700947Y-109180333D01*
X136605709Y-109132714D01*
X136462852Y-109132714D01*
X136367614Y-109180333D01*
X136319995Y-109227952D01*
D12*
X173545571Y-110724142D02*
X174688428Y-110724142D01*
X173774171Y-118140942D02*
X174917028Y-118140942D01*
X174345600Y-118712371D02*
X174345600Y-117569514D01*
D11*
G04 #@! TO.C,BZ1*
X112494900Y-114659000D02*
X112494900Y-118259000D01*
X112494900Y-118259000D02*
X111994900Y-118759000D01*
X111994900Y-118759000D02*
X111194900Y-118759000D01*
X111194900Y-118759000D02*
X110694900Y-118259000D01*
X110694900Y-118259000D02*
X110694900Y-114659000D01*
X110694900Y-114659000D02*
X111194900Y-114159000D01*
X111194900Y-114159000D02*
X111994900Y-114159000D01*
X111994900Y-114159000D02*
X112494900Y-114659000D01*
D13*
G04 #@! TO.C,C1*
X147439748Y-112929600D02*
X147962252Y-112929600D01*
X147439748Y-114349600D02*
X147962252Y-114349600D01*
G04 #@! TO.C,C2*
X155065800Y-102698022D02*
X155065800Y-103215178D01*
X153645800Y-102698022D02*
X153645800Y-103215178D01*
G04 #@! TO.C,C3*
X171804400Y-114992678D02*
X171804400Y-114475522D01*
X170384400Y-114992678D02*
X170384400Y-114475522D01*
G04 #@! TO.C,C4*
X115139400Y-108536478D02*
X115139400Y-108019322D01*
X116559400Y-108536478D02*
X116559400Y-108019322D01*
G04 #@! TO.C,D1*
X143821800Y-104731700D02*
X146681800Y-104731700D01*
X146681800Y-104731700D02*
X146681800Y-102811700D01*
X146681800Y-102811700D02*
X143821800Y-102811700D01*
G04 #@! TO.C,D2*
X146732600Y-100830500D02*
X143872600Y-100830500D01*
X146732600Y-102750500D02*
X146732600Y-100830500D01*
X143872600Y-102750500D02*
X146732600Y-102750500D01*
D11*
G04 #@! TO.C,J1*
X144124800Y-115691000D02*
X144124800Y-120391000D01*
X144124800Y-120391000D02*
X151024800Y-120391000D01*
X151024800Y-120391000D02*
X151024800Y-115691000D01*
X151024800Y-115691000D02*
X144124800Y-115691000D01*
D13*
G04 #@! TO.C,J2*
X132646000Y-112436600D02*
X136176000Y-112436600D01*
X132646000Y-116366600D02*
X136176000Y-116366600D01*
X131321000Y-112501600D02*
X132646000Y-112501600D01*
X132646000Y-112436600D02*
X132646000Y-112501600D01*
X136176000Y-112436600D02*
X136176000Y-112501600D01*
X132646000Y-116301600D02*
X132646000Y-116366600D01*
X136176000Y-116301600D02*
X136176000Y-116366600D01*
D11*
G04 #@! TO.C,Q1*
X172263400Y-108065200D02*
X172363400Y-108065200D01*
X172263400Y-103415200D02*
X172463400Y-103415200D01*
X175513400Y-103415200D02*
X175313400Y-103415200D01*
X175513400Y-108065200D02*
X175313400Y-108065200D01*
X172263400Y-108065200D02*
X172263400Y-103415200D01*
X175513400Y-108065200D02*
X175513400Y-103415200D01*
X172363400Y-108065200D02*
X172363400Y-109415200D01*
D13*
G04 #@! TO.C,R1*
X148443048Y-103049000D02*
X148965552Y-103049000D01*
X148443048Y-104469000D02*
X148965552Y-104469000D01*
G04 #@! TO.C,R2*
X153963300Y-111388148D02*
X153963300Y-111910652D01*
X155383300Y-111388148D02*
X155383300Y-111910652D01*
G04 #@! TO.C,R3*
X148446748Y-101080500D02*
X148969252Y-101080500D01*
X148446748Y-102500500D02*
X148969252Y-102500500D01*
G04 #@! TO.C,R4*
X161596000Y-103080452D02*
X161596000Y-102557948D01*
X163016000Y-103080452D02*
X163016000Y-102557948D01*
G04 #@! TO.C,R5*
X141530000Y-109577348D02*
X141530000Y-110099852D01*
X142950000Y-109577348D02*
X142950000Y-110099852D01*
G04 #@! TO.C,R6*
X114470548Y-105764400D02*
X114993052Y-105764400D01*
X114470548Y-104344400D02*
X114993052Y-104344400D01*
G04 #@! TO.C,R7*
X115190200Y-112131852D02*
X115190200Y-111609348D01*
X116610200Y-112131852D02*
X116610200Y-111609348D01*
G04 #@! TO.C,TP1*
X140473200Y-119165600D02*
X140473200Y-117765600D01*
X141873200Y-119165600D02*
X140473200Y-119165600D01*
X141873200Y-117765600D02*
X141873200Y-119165600D01*
X140473200Y-117765600D02*
X141873200Y-117765600D01*
G04 #@! TO.C,TP2*
X170419800Y-118606800D02*
X170419800Y-117206800D01*
X170419800Y-117206800D02*
X171819800Y-117206800D01*
X171819800Y-117206800D02*
X171819800Y-118606800D01*
X171819800Y-118606800D02*
X170419800Y-118606800D01*
G04 #@! TO.C,TP3*
X164234900Y-105017800D02*
X164234900Y-103617800D01*
X165634900Y-105017800D02*
X164234900Y-105017800D01*
X165634900Y-103617800D02*
X165634900Y-105017800D01*
X164234900Y-103617800D02*
X165634900Y-103617800D01*
G04 #@! TO.C,TP4*
X170369000Y-112079000D02*
X170369000Y-110679000D01*
X170369000Y-110679000D02*
X171769000Y-110679000D01*
X171769000Y-110679000D02*
X171769000Y-112079000D01*
X171769000Y-112079000D02*
X170369000Y-112079000D01*
G04 #@! TO.C,TP5*
X164260300Y-101357200D02*
X165660300Y-101357200D01*
X165660300Y-101357200D02*
X165660300Y-102757200D01*
X165660300Y-102757200D02*
X164260300Y-102757200D01*
X164260300Y-102757200D02*
X164260300Y-101357200D01*
G04 #@! TO.C,TP6*
X153579600Y-117714800D02*
X154979600Y-117714800D01*
X154979600Y-117714800D02*
X154979600Y-119114800D01*
X154979600Y-119114800D02*
X153579600Y-119114800D01*
X153579600Y-119114800D02*
X153579600Y-117714800D01*
G04 #@! TO.C,TP7*
X128471700Y-102769900D02*
X128471700Y-101369900D01*
X129871700Y-102769900D02*
X128471700Y-102769900D01*
X129871700Y-101369900D02*
X129871700Y-102769900D01*
X128471700Y-101369900D02*
X129871700Y-101369900D01*
D11*
G04 #@! TO.C,U1*
X145735200Y-107152200D02*
X144335200Y-107152200D01*
X145735200Y-112252200D02*
X149885200Y-112252200D01*
X145735200Y-107102200D02*
X149885200Y-107102200D01*
X145735200Y-112252200D02*
X145735200Y-112107200D01*
X149885200Y-112252200D02*
X149885200Y-112107200D01*
X149885200Y-107102200D02*
X149885200Y-107247200D01*
X145735200Y-107102200D02*
X145735200Y-107152200D01*
D13*
G04 #@! TO.C,U2*
X159239800Y-101237100D02*
X157439800Y-101237100D01*
X157439800Y-104457100D02*
X160389800Y-104457100D01*
G04 #@! TO.C,U3*
X124545600Y-109388600D02*
G75*
G02X122545600Y-109388600I-1000000J0D01*
G01*
X122545600Y-109388600D02*
X120895600Y-109388600D01*
X120895600Y-109388600D02*
X120895600Y-119668600D01*
X120895600Y-119668600D02*
X126195600Y-119668600D01*
X126195600Y-119668600D02*
X126195600Y-109388600D01*
X126195600Y-109388600D02*
X124545600Y-109388600D01*
D11*
G04 #@! TO.C,U4*
X121343600Y-101133200D02*
X121343600Y-101183200D01*
X125493600Y-101133200D02*
X125493600Y-101278200D01*
X125493600Y-106283200D02*
X125493600Y-106138200D01*
X121343600Y-106283200D02*
X121343600Y-106138200D01*
X121343600Y-101133200D02*
X125493600Y-101133200D01*
X121343600Y-106283200D02*
X125493600Y-106283200D01*
X121343600Y-101183200D02*
X119943600Y-101183200D01*
D14*
G04 #@! TO.C,G\002A\002A\002A*
G36*
X104252288Y-110764068D02*
X104298194Y-110789315D01*
X104359930Y-110837155D01*
X104443505Y-110912300D01*
X104554932Y-111019464D01*
X104569350Y-111033607D01*
X104851200Y-111310515D01*
X105141320Y-111033607D01*
X105263314Y-110919178D01*
X105356645Y-110838137D01*
X105427860Y-110787252D01*
X105483505Y-110763293D01*
X105530127Y-110763028D01*
X105574271Y-110783226D01*
X105604036Y-110805229D01*
X105664000Y-110853758D01*
X105671348Y-111681296D01*
X105678696Y-112508833D01*
X105734848Y-112520766D01*
X105790014Y-112531834D01*
X105874081Y-112548004D01*
X105943400Y-112561029D01*
X106091107Y-112591787D01*
X106271729Y-112634454D01*
X106469954Y-112684965D01*
X106670471Y-112739255D01*
X106857972Y-112793261D01*
X107017146Y-112842919D01*
X107061000Y-112857711D01*
X107267501Y-112931080D01*
X107429033Y-112993035D01*
X107549654Y-113045460D01*
X107633424Y-113090238D01*
X107684402Y-113129251D01*
X107703473Y-113155671D01*
X107715527Y-113222380D01*
X107712804Y-113330646D01*
X107696762Y-113473891D01*
X107668855Y-113645537D01*
X107630541Y-113839004D01*
X107583275Y-114047713D01*
X107528515Y-114265086D01*
X107467716Y-114484544D01*
X107402334Y-114699508D01*
X107333826Y-114903399D01*
X107290564Y-115020988D01*
X107045884Y-115594561D01*
X106753613Y-116162196D01*
X106416943Y-116719335D01*
X106039063Y-117261420D01*
X105623164Y-117783890D01*
X105172437Y-118282189D01*
X104690073Y-118751756D01*
X104660700Y-118778459D01*
X104520991Y-118902780D01*
X104411677Y-118994543D01*
X104327599Y-119057477D01*
X104263599Y-119095310D01*
X104214519Y-119111769D01*
X104197492Y-119113205D01*
X104159046Y-119097627D01*
X104094265Y-119055961D01*
X104014715Y-118995946D01*
X103981592Y-118968738D01*
X103673155Y-118698552D01*
X103373560Y-118415737D01*
X103099244Y-118135948D01*
X103039831Y-118071900D01*
X102588785Y-117548922D01*
X102183409Y-117014236D01*
X101824492Y-116469296D01*
X101512821Y-115915555D01*
X101249184Y-115354466D01*
X101034370Y-114787483D01*
X100869166Y-114216059D01*
X100812247Y-113962878D01*
X100777261Y-113781209D01*
X100748203Y-113608282D01*
X100726101Y-113452253D01*
X100713249Y-113333014D01*
X101050634Y-113333014D01*
X101067015Y-113460907D01*
X101149875Y-113937948D01*
X101277271Y-114429049D01*
X101447223Y-114927855D01*
X101657748Y-115428014D01*
X101724938Y-115570000D01*
X101934229Y-115977857D01*
X102156272Y-116362021D01*
X102397917Y-116732575D01*
X102666013Y-117099602D01*
X102967409Y-117473184D01*
X103201548Y-117743630D01*
X103290625Y-117841293D01*
X103394262Y-117950611D01*
X103506495Y-118065755D01*
X103621357Y-118180901D01*
X103732882Y-118290221D01*
X103835105Y-118387890D01*
X103922059Y-118468080D01*
X103987779Y-118524966D01*
X104026299Y-118552721D01*
X104031828Y-118554500D01*
X104036194Y-118530032D01*
X104040213Y-118460357D01*
X104043771Y-118351068D01*
X104046753Y-118207756D01*
X104049045Y-118036014D01*
X104050531Y-117841434D01*
X104051097Y-117629609D01*
X104051100Y-117615352D01*
X104051100Y-116679749D01*
X104381300Y-116679749D01*
X104381300Y-117617124D01*
X104381733Y-117829670D01*
X104382967Y-118025330D01*
X104384902Y-118198506D01*
X104387439Y-118343599D01*
X104390480Y-118455014D01*
X104393924Y-118527151D01*
X104397673Y-118554413D01*
X104397900Y-118554500D01*
X104420726Y-118537579D01*
X104473089Y-118490825D01*
X104548527Y-118420244D01*
X104640580Y-118331847D01*
X104705176Y-118268750D01*
X105185080Y-117766911D01*
X105621632Y-117248069D01*
X106013855Y-116713960D01*
X106360768Y-116166321D01*
X106661395Y-115606886D01*
X106914755Y-115037393D01*
X107119871Y-114459577D01*
X107275764Y-113875174D01*
X107328916Y-113614200D01*
X107349560Y-113498484D01*
X107360397Y-113422378D01*
X107361602Y-113375686D01*
X107353350Y-113348207D01*
X107335815Y-113329743D01*
X107333823Y-113328202D01*
X107282107Y-113300920D01*
X107188950Y-113263922D01*
X107062263Y-113219525D01*
X106909959Y-113170050D01*
X106739950Y-113117814D01*
X106560146Y-113065138D01*
X106378462Y-113014338D01*
X106202808Y-112967736D01*
X106041097Y-112927649D01*
X105901241Y-112896396D01*
X105792712Y-112876529D01*
X105676700Y-112859131D01*
X105676323Y-113198565D01*
X105662832Y-113727722D01*
X105623748Y-114219348D01*
X105559334Y-114672251D01*
X105469851Y-115085239D01*
X105355561Y-115457117D01*
X105216726Y-115786694D01*
X105053609Y-116072777D01*
X105041116Y-116091396D01*
X104935147Y-116229819D01*
X104809215Y-116366493D01*
X104676635Y-116488437D01*
X104550723Y-116582667D01*
X104515160Y-116604202D01*
X104381300Y-116679749D01*
X104051100Y-116679749D01*
X104051100Y-116676204D01*
X103968550Y-116634457D01*
X103771587Y-116508071D01*
X103585731Y-116335302D01*
X103413723Y-116119875D01*
X103258306Y-115865514D01*
X103122223Y-115575944D01*
X103052036Y-115389867D01*
X102969303Y-115125479D01*
X102902169Y-114852914D01*
X102849411Y-114564016D01*
X102809805Y-114250633D01*
X102782129Y-113904612D01*
X102765161Y-113517798D01*
X102763772Y-113467723D01*
X102747978Y-112864046D01*
X102656589Y-112879739D01*
X102241172Y-112964825D01*
X101807546Y-113079348D01*
X101374785Y-113218239D01*
X101350717Y-113226722D01*
X101050634Y-113333014D01*
X100713249Y-113333014D01*
X100711984Y-113321279D01*
X100706880Y-113223517D01*
X100711817Y-113167125D01*
X100711882Y-113166918D01*
X100742355Y-113128127D01*
X100803405Y-113082269D01*
X100849355Y-113056081D01*
X100976723Y-112998989D01*
X101144296Y-112935103D01*
X101342415Y-112867340D01*
X101489947Y-112821042D01*
X103105580Y-112821042D01*
X103118110Y-113509721D01*
X103123245Y-113745598D01*
X103129584Y-113939513D01*
X103137715Y-114100304D01*
X103148222Y-114236805D01*
X103161692Y-114357852D01*
X103178711Y-114472280D01*
X103183992Y-114503200D01*
X103261813Y-114883938D01*
X103354662Y-115219587D01*
X103464065Y-115514029D01*
X103591550Y-115771148D01*
X103738643Y-115994828D01*
X103801337Y-116073462D01*
X103870491Y-116145158D01*
X103956149Y-116219092D01*
X104046269Y-116286489D01*
X104128811Y-116338574D01*
X104191734Y-116366573D01*
X104206955Y-116369059D01*
X104247571Y-116356112D01*
X104315458Y-116321059D01*
X104396502Y-116271250D01*
X104402974Y-116266953D01*
X104582677Y-116117699D01*
X104744691Y-115923117D01*
X104888227Y-115685787D01*
X105012496Y-115408289D01*
X105116708Y-115093203D01*
X105200072Y-114743107D01*
X105261798Y-114360582D01*
X105301098Y-113948207D01*
X105317181Y-113508561D01*
X105316348Y-113284000D01*
X105308400Y-112801400D01*
X105168700Y-112783912D01*
X105016949Y-112769137D01*
X104833549Y-112758079D01*
X104626931Y-112750643D01*
X104405522Y-112746738D01*
X104177753Y-112746269D01*
X103952053Y-112749145D01*
X103736852Y-112755271D01*
X103540580Y-112764556D01*
X103371665Y-112776905D01*
X103238538Y-112792226D01*
X103165590Y-112806022D01*
X103105580Y-112821042D01*
X101489947Y-112821042D01*
X101561419Y-112798613D01*
X101791651Y-112731838D01*
X102023451Y-112669928D01*
X102247160Y-112615800D01*
X102450900Y-112572793D01*
X102554750Y-112552390D01*
X102643043Y-112534191D01*
X102701074Y-112521256D01*
X102711250Y-112518615D01*
X102723604Y-112511985D01*
X102733443Y-112496462D01*
X102741049Y-112466808D01*
X102746707Y-112417787D01*
X102750701Y-112344163D01*
X102753313Y-112240700D01*
X102754827Y-112102162D01*
X102755528Y-111923311D01*
X102755699Y-111698912D01*
X102755700Y-111698213D01*
X102755820Y-111474020D01*
X102756287Y-111332090D01*
X103111300Y-111332090D01*
X103111300Y-112461150D01*
X103333550Y-112440775D01*
X103420386Y-112435211D01*
X103548328Y-112430227D01*
X103707683Y-112426038D01*
X103888757Y-112422864D01*
X104081859Y-112420921D01*
X104241600Y-112420400D01*
X104435513Y-112421107D01*
X104623646Y-112423100D01*
X104796699Y-112426179D01*
X104945376Y-112430148D01*
X105060378Y-112434810D01*
X105124250Y-112439126D01*
X105321100Y-112457852D01*
X105321100Y-111332090D01*
X105120816Y-111526995D01*
X105026995Y-111616961D01*
X104952884Y-111678889D01*
X104890091Y-111711665D01*
X104830227Y-111714177D01*
X104764899Y-111685311D01*
X104685717Y-111623953D01*
X104584289Y-111528992D01*
X104498049Y-111444379D01*
X104216200Y-111166858D01*
X103930765Y-111444379D01*
X103811453Y-111558160D01*
X103721180Y-111638616D01*
X103654683Y-111689894D01*
X103606701Y-111716138D01*
X103578598Y-111721900D01*
X103533337Y-111709867D01*
X103472178Y-111670814D01*
X103389052Y-111600311D01*
X103311583Y-111526995D01*
X103111300Y-111332090D01*
X102756287Y-111332090D01*
X102756410Y-111294980D01*
X102757808Y-111155445D01*
X102760354Y-111049769D01*
X102764389Y-110972306D01*
X102770252Y-110917407D01*
X102778283Y-110879426D01*
X102788822Y-110852716D01*
X102802209Y-110831630D01*
X102808343Y-110823625D01*
X102848746Y-110780553D01*
X102890356Y-110759262D01*
X102939059Y-110762367D01*
X103000739Y-110792484D01*
X103081283Y-110852226D01*
X103186575Y-110944210D01*
X103284557Y-111035203D01*
X103580340Y-111313707D01*
X103862620Y-111035203D01*
X103977385Y-110923818D01*
X104063675Y-110845014D01*
X104127491Y-110794065D01*
X104174834Y-110766242D01*
X104211707Y-110756820D01*
X104216199Y-110756700D01*
X104252288Y-110764068D01*
X104252288Y-110764068D01*
G37*
X104252288Y-110764068D02*
X104298194Y-110789315D01*
X104359930Y-110837155D01*
X104443505Y-110912300D01*
X104554932Y-111019464D01*
X104569350Y-111033607D01*
X104851200Y-111310515D01*
X105141320Y-111033607D01*
X105263314Y-110919178D01*
X105356645Y-110838137D01*
X105427860Y-110787252D01*
X105483505Y-110763293D01*
X105530127Y-110763028D01*
X105574271Y-110783226D01*
X105604036Y-110805229D01*
X105664000Y-110853758D01*
X105671348Y-111681296D01*
X105678696Y-112508833D01*
X105734848Y-112520766D01*
X105790014Y-112531834D01*
X105874081Y-112548004D01*
X105943400Y-112561029D01*
X106091107Y-112591787D01*
X106271729Y-112634454D01*
X106469954Y-112684965D01*
X106670471Y-112739255D01*
X106857972Y-112793261D01*
X107017146Y-112842919D01*
X107061000Y-112857711D01*
X107267501Y-112931080D01*
X107429033Y-112993035D01*
X107549654Y-113045460D01*
X107633424Y-113090238D01*
X107684402Y-113129251D01*
X107703473Y-113155671D01*
X107715527Y-113222380D01*
X107712804Y-113330646D01*
X107696762Y-113473891D01*
X107668855Y-113645537D01*
X107630541Y-113839004D01*
X107583275Y-114047713D01*
X107528515Y-114265086D01*
X107467716Y-114484544D01*
X107402334Y-114699508D01*
X107333826Y-114903399D01*
X107290564Y-115020988D01*
X107045884Y-115594561D01*
X106753613Y-116162196D01*
X106416943Y-116719335D01*
X106039063Y-117261420D01*
X105623164Y-117783890D01*
X105172437Y-118282189D01*
X104690073Y-118751756D01*
X104660700Y-118778459D01*
X104520991Y-118902780D01*
X104411677Y-118994543D01*
X104327599Y-119057477D01*
X104263599Y-119095310D01*
X104214519Y-119111769D01*
X104197492Y-119113205D01*
X104159046Y-119097627D01*
X104094265Y-119055961D01*
X104014715Y-118995946D01*
X103981592Y-118968738D01*
X103673155Y-118698552D01*
X103373560Y-118415737D01*
X103099244Y-118135948D01*
X103039831Y-118071900D01*
X102588785Y-117548922D01*
X102183409Y-117014236D01*
X101824492Y-116469296D01*
X101512821Y-115915555D01*
X101249184Y-115354466D01*
X101034370Y-114787483D01*
X100869166Y-114216059D01*
X100812247Y-113962878D01*
X100777261Y-113781209D01*
X100748203Y-113608282D01*
X100726101Y-113452253D01*
X100713249Y-113333014D01*
X101050634Y-113333014D01*
X101067015Y-113460907D01*
X101149875Y-113937948D01*
X101277271Y-114429049D01*
X101447223Y-114927855D01*
X101657748Y-115428014D01*
X101724938Y-115570000D01*
X101934229Y-115977857D01*
X102156272Y-116362021D01*
X102397917Y-116732575D01*
X102666013Y-117099602D01*
X102967409Y-117473184D01*
X103201548Y-117743630D01*
X103290625Y-117841293D01*
X103394262Y-117950611D01*
X103506495Y-118065755D01*
X103621357Y-118180901D01*
X103732882Y-118290221D01*
X103835105Y-118387890D01*
X103922059Y-118468080D01*
X103987779Y-118524966D01*
X104026299Y-118552721D01*
X104031828Y-118554500D01*
X104036194Y-118530032D01*
X104040213Y-118460357D01*
X104043771Y-118351068D01*
X104046753Y-118207756D01*
X104049045Y-118036014D01*
X104050531Y-117841434D01*
X104051097Y-117629609D01*
X104051100Y-117615352D01*
X104051100Y-116679749D01*
X104381300Y-116679749D01*
X104381300Y-117617124D01*
X104381733Y-117829670D01*
X104382967Y-118025330D01*
X104384902Y-118198506D01*
X104387439Y-118343599D01*
X104390480Y-118455014D01*
X104393924Y-118527151D01*
X104397673Y-118554413D01*
X104397900Y-118554500D01*
X104420726Y-118537579D01*
X104473089Y-118490825D01*
X104548527Y-118420244D01*
X104640580Y-118331847D01*
X104705176Y-118268750D01*
X105185080Y-117766911D01*
X105621632Y-117248069D01*
X106013855Y-116713960D01*
X106360768Y-116166321D01*
X106661395Y-115606886D01*
X106914755Y-115037393D01*
X107119871Y-114459577D01*
X107275764Y-113875174D01*
X107328916Y-113614200D01*
X107349560Y-113498484D01*
X107360397Y-113422378D01*
X107361602Y-113375686D01*
X107353350Y-113348207D01*
X107335815Y-113329743D01*
X107333823Y-113328202D01*
X107282107Y-113300920D01*
X107188950Y-113263922D01*
X107062263Y-113219525D01*
X106909959Y-113170050D01*
X106739950Y-113117814D01*
X106560146Y-113065138D01*
X106378462Y-113014338D01*
X106202808Y-112967736D01*
X106041097Y-112927649D01*
X105901241Y-112896396D01*
X105792712Y-112876529D01*
X105676700Y-112859131D01*
X105676323Y-113198565D01*
X105662832Y-113727722D01*
X105623748Y-114219348D01*
X105559334Y-114672251D01*
X105469851Y-115085239D01*
X105355561Y-115457117D01*
X105216726Y-115786694D01*
X105053609Y-116072777D01*
X105041116Y-116091396D01*
X104935147Y-116229819D01*
X104809215Y-116366493D01*
X104676635Y-116488437D01*
X104550723Y-116582667D01*
X104515160Y-116604202D01*
X104381300Y-116679749D01*
X104051100Y-116679749D01*
X104051100Y-116676204D01*
X103968550Y-116634457D01*
X103771587Y-116508071D01*
X103585731Y-116335302D01*
X103413723Y-116119875D01*
X103258306Y-115865514D01*
X103122223Y-115575944D01*
X103052036Y-115389867D01*
X102969303Y-115125479D01*
X102902169Y-114852914D01*
X102849411Y-114564016D01*
X102809805Y-114250633D01*
X102782129Y-113904612D01*
X102765161Y-113517798D01*
X102763772Y-113467723D01*
X102747978Y-112864046D01*
X102656589Y-112879739D01*
X102241172Y-112964825D01*
X101807546Y-113079348D01*
X101374785Y-113218239D01*
X101350717Y-113226722D01*
X101050634Y-113333014D01*
X100713249Y-113333014D01*
X100711984Y-113321279D01*
X100706880Y-113223517D01*
X100711817Y-113167125D01*
X100711882Y-113166918D01*
X100742355Y-113128127D01*
X100803405Y-113082269D01*
X100849355Y-113056081D01*
X100976723Y-112998989D01*
X101144296Y-112935103D01*
X101342415Y-112867340D01*
X101489947Y-112821042D01*
X103105580Y-112821042D01*
X103118110Y-113509721D01*
X103123245Y-113745598D01*
X103129584Y-113939513D01*
X103137715Y-114100304D01*
X103148222Y-114236805D01*
X103161692Y-114357852D01*
X103178711Y-114472280D01*
X103183992Y-114503200D01*
X103261813Y-114883938D01*
X103354662Y-115219587D01*
X103464065Y-115514029D01*
X103591550Y-115771148D01*
X103738643Y-115994828D01*
X103801337Y-116073462D01*
X103870491Y-116145158D01*
X103956149Y-116219092D01*
X104046269Y-116286489D01*
X104128811Y-116338574D01*
X104191734Y-116366573D01*
X104206955Y-116369059D01*
X104247571Y-116356112D01*
X104315458Y-116321059D01*
X104396502Y-116271250D01*
X104402974Y-116266953D01*
X104582677Y-116117699D01*
X104744691Y-115923117D01*
X104888227Y-115685787D01*
X105012496Y-115408289D01*
X105116708Y-115093203D01*
X105200072Y-114743107D01*
X105261798Y-114360582D01*
X105301098Y-113948207D01*
X105317181Y-113508561D01*
X105316348Y-113284000D01*
X105308400Y-112801400D01*
X105168700Y-112783912D01*
X105016949Y-112769137D01*
X104833549Y-112758079D01*
X104626931Y-112750643D01*
X104405522Y-112746738D01*
X104177753Y-112746269D01*
X103952053Y-112749145D01*
X103736852Y-112755271D01*
X103540580Y-112764556D01*
X103371665Y-112776905D01*
X103238538Y-112792226D01*
X103165590Y-112806022D01*
X103105580Y-112821042D01*
X101489947Y-112821042D01*
X101561419Y-112798613D01*
X101791651Y-112731838D01*
X102023451Y-112669928D01*
X102247160Y-112615800D01*
X102450900Y-112572793D01*
X102554750Y-112552390D01*
X102643043Y-112534191D01*
X102701074Y-112521256D01*
X102711250Y-112518615D01*
X102723604Y-112511985D01*
X102733443Y-112496462D01*
X102741049Y-112466808D01*
X102746707Y-112417787D01*
X102750701Y-112344163D01*
X102753313Y-112240700D01*
X102754827Y-112102162D01*
X102755528Y-111923311D01*
X102755699Y-111698912D01*
X102755700Y-111698213D01*
X102755820Y-111474020D01*
X102756287Y-111332090D01*
X103111300Y-111332090D01*
X103111300Y-112461150D01*
X103333550Y-112440775D01*
X103420386Y-112435211D01*
X103548328Y-112430227D01*
X103707683Y-112426038D01*
X103888757Y-112422864D01*
X104081859Y-112420921D01*
X104241600Y-112420400D01*
X104435513Y-112421107D01*
X104623646Y-112423100D01*
X104796699Y-112426179D01*
X104945376Y-112430148D01*
X105060378Y-112434810D01*
X105124250Y-112439126D01*
X105321100Y-112457852D01*
X105321100Y-111332090D01*
X105120816Y-111526995D01*
X105026995Y-111616961D01*
X104952884Y-111678889D01*
X104890091Y-111711665D01*
X104830227Y-111714177D01*
X104764899Y-111685311D01*
X104685717Y-111623953D01*
X104584289Y-111528992D01*
X104498049Y-111444379D01*
X104216200Y-111166858D01*
X103930765Y-111444379D01*
X103811453Y-111558160D01*
X103721180Y-111638616D01*
X103654683Y-111689894D01*
X103606701Y-111716138D01*
X103578598Y-111721900D01*
X103533337Y-111709867D01*
X103472178Y-111670814D01*
X103389052Y-111600311D01*
X103311583Y-111526995D01*
X103111300Y-111332090D01*
X102756287Y-111332090D01*
X102756410Y-111294980D01*
X102757808Y-111155445D01*
X102760354Y-111049769D01*
X102764389Y-110972306D01*
X102770252Y-110917407D01*
X102778283Y-110879426D01*
X102788822Y-110852716D01*
X102802209Y-110831630D01*
X102808343Y-110823625D01*
X102848746Y-110780553D01*
X102890356Y-110759262D01*
X102939059Y-110762367D01*
X103000739Y-110792484D01*
X103081283Y-110852226D01*
X103186575Y-110944210D01*
X103284557Y-111035203D01*
X103580340Y-111313707D01*
X103862620Y-111035203D01*
X103977385Y-110923818D01*
X104063675Y-110845014D01*
X104127491Y-110794065D01*
X104174834Y-110766242D01*
X104211707Y-110756820D01*
X104216199Y-110756700D01*
X104252288Y-110764068D01*
D13*
G04 #@! TO.C,D3*
X101105592Y-102315265D02*
G75*
G03X100948684Y-105547600I1078608J-1672335D01*
G01*
X103262808Y-102315265D02*
G75*
G02X103419716Y-105547600I-1078608J-1672335D01*
G01*
X101104363Y-102946470D02*
G75*
G03X101104200Y-105028561I1079837J-1041130D01*
G01*
X103264037Y-102946470D02*
G75*
G02X103264200Y-105028561I-1079837J-1041130D01*
G01*
X100948200Y-105547600D02*
X101104200Y-105547600D01*
X103264200Y-105547600D02*
X103420200Y-105547600D01*
G04 #@! TO.C,BT1*
X175675600Y-117065100D02*
X174345600Y-117065100D01*
X175675600Y-115735100D02*
X175675600Y-117065100D01*
X175675600Y-114465100D02*
X173015600Y-114465100D01*
X173015600Y-114465100D02*
X173015600Y-111865100D01*
X175675600Y-114465100D02*
X175675600Y-111865100D01*
X175675600Y-111865100D02*
X173015600Y-111865100D01*
G04 #@! TO.C,J3*
X131753300Y-105794500D02*
X131753300Y-108454500D01*
X134353300Y-105794500D02*
X131753300Y-105794500D01*
X134353300Y-108454500D02*
X131753300Y-108454500D01*
X134353300Y-105794500D02*
X134353300Y-108454500D01*
X135623300Y-105794500D02*
X136953300Y-105794500D01*
X136953300Y-105794500D02*
X136953300Y-107124500D01*
G04 #@! TO.C,C5*
X132551648Y-101347200D02*
X133074152Y-101347200D01*
X132551648Y-102767200D02*
X133074152Y-102767200D01*
G04 #@! TO.C,BZ1*
D11*
X113523471Y-117369952D02*
X113571090Y-117227095D01*
X113618709Y-117179476D01*
X113713947Y-117131857D01*
X113856804Y-117131857D01*
X113952042Y-117179476D01*
X113999661Y-117227095D01*
X114047280Y-117322333D01*
X114047280Y-117703285D01*
X113047280Y-117703285D01*
X113047280Y-117369952D01*
X113094900Y-117274714D01*
X113142519Y-117227095D01*
X113237757Y-117179476D01*
X113332995Y-117179476D01*
X113428233Y-117227095D01*
X113475852Y-117274714D01*
X113523471Y-117369952D01*
X113523471Y-117703285D01*
X113047280Y-116798523D02*
X113047280Y-116131857D01*
X114047280Y-116798523D01*
X114047280Y-116131857D01*
X114047280Y-115227095D02*
X114047280Y-115798523D01*
X114047280Y-115512809D02*
X113047280Y-115512809D01*
X113190138Y-115608047D01*
X113285376Y-115703285D01*
X113332995Y-115798523D01*
G04 #@! TO.C,C1*
X144841933Y-114085642D02*
X144794314Y-114133261D01*
X144651457Y-114180880D01*
X144556219Y-114180880D01*
X144413361Y-114133261D01*
X144318123Y-114038023D01*
X144270504Y-113942785D01*
X144222885Y-113752309D01*
X144222885Y-113609452D01*
X144270504Y-113418976D01*
X144318123Y-113323738D01*
X144413361Y-113228500D01*
X144556219Y-113180880D01*
X144651457Y-113180880D01*
X144794314Y-113228500D01*
X144841933Y-113276119D01*
X145794314Y-114180880D02*
X145222885Y-114180880D01*
X145508600Y-114180880D02*
X145508600Y-113180880D01*
X145413361Y-113323738D01*
X145318123Y-113418976D01*
X145222885Y-113466595D01*
G04 #@! TO.C,C2*
X154189133Y-105792542D02*
X154141514Y-105840161D01*
X153998657Y-105887780D01*
X153903419Y-105887780D01*
X153760561Y-105840161D01*
X153665323Y-105744923D01*
X153617704Y-105649685D01*
X153570085Y-105459209D01*
X153570085Y-105316352D01*
X153617704Y-105125876D01*
X153665323Y-105030638D01*
X153760561Y-104935400D01*
X153903419Y-104887780D01*
X153998657Y-104887780D01*
X154141514Y-104935400D01*
X154189133Y-104983019D01*
X154570085Y-104983019D02*
X154617704Y-104935400D01*
X154712942Y-104887780D01*
X154951038Y-104887780D01*
X155046276Y-104935400D01*
X155093895Y-104983019D01*
X155141514Y-105078257D01*
X155141514Y-105173495D01*
X155093895Y-105316352D01*
X154522466Y-105887780D01*
X155141514Y-105887780D01*
G04 #@! TO.C,C3*
X168971933Y-115012742D02*
X168924314Y-115060361D01*
X168781457Y-115107980D01*
X168686219Y-115107980D01*
X168543361Y-115060361D01*
X168448123Y-114965123D01*
X168400504Y-114869885D01*
X168352885Y-114679409D01*
X168352885Y-114536552D01*
X168400504Y-114346076D01*
X168448123Y-114250838D01*
X168543361Y-114155600D01*
X168686219Y-114107980D01*
X168781457Y-114107980D01*
X168924314Y-114155600D01*
X168971933Y-114203219D01*
X169305266Y-114107980D02*
X169924314Y-114107980D01*
X169590980Y-114488933D01*
X169733838Y-114488933D01*
X169829076Y-114536552D01*
X169876695Y-114584171D01*
X169924314Y-114679409D01*
X169924314Y-114917504D01*
X169876695Y-115012742D01*
X169829076Y-115060361D01*
X169733838Y-115107980D01*
X169448123Y-115107980D01*
X169352885Y-115060361D01*
X169305266Y-115012742D01*
G04 #@! TO.C,C4*
X114556542Y-108444566D02*
X114604161Y-108492185D01*
X114651780Y-108635042D01*
X114651780Y-108730280D01*
X114604161Y-108873138D01*
X114508923Y-108968376D01*
X114413685Y-109015995D01*
X114223209Y-109063614D01*
X114080352Y-109063614D01*
X113889876Y-109015995D01*
X113794638Y-108968376D01*
X113699400Y-108873138D01*
X113651780Y-108730280D01*
X113651780Y-108635042D01*
X113699400Y-108492185D01*
X113747019Y-108444566D01*
X113985114Y-107587423D02*
X114651780Y-107587423D01*
X113604161Y-107825519D02*
X114318447Y-108063614D01*
X114318447Y-107444566D01*
G04 #@! TO.C,D1*
X144083704Y-105874080D02*
X144083704Y-104874080D01*
X144321800Y-104874080D01*
X144464657Y-104921700D01*
X144559895Y-105016938D01*
X144607514Y-105112176D01*
X144655133Y-105302652D01*
X144655133Y-105445509D01*
X144607514Y-105635985D01*
X144559895Y-105731223D01*
X144464657Y-105826461D01*
X144321800Y-105874080D01*
X144083704Y-105874080D01*
X145607514Y-105874080D02*
X145036085Y-105874080D01*
X145321800Y-105874080D02*
X145321800Y-104874080D01*
X145226561Y-105016938D01*
X145131323Y-105112176D01*
X145036085Y-105159795D01*
G04 #@! TO.C,D2*
X141222504Y-102026980D02*
X141222504Y-101026980D01*
X141460600Y-101026980D01*
X141603457Y-101074600D01*
X141698695Y-101169838D01*
X141746314Y-101265076D01*
X141793933Y-101455552D01*
X141793933Y-101598409D01*
X141746314Y-101788885D01*
X141698695Y-101884123D01*
X141603457Y-101979361D01*
X141460600Y-102026980D01*
X141222504Y-102026980D01*
X142174885Y-101122219D02*
X142222504Y-101074600D01*
X142317742Y-101026980D01*
X142555838Y-101026980D01*
X142651076Y-101074600D01*
X142698695Y-101122219D01*
X142746314Y-101217457D01*
X142746314Y-101312695D01*
X142698695Y-101455552D01*
X142127266Y-102026980D01*
X142746314Y-102026980D01*
G04 #@! TO.C,J1*
X151749166Y-114450880D02*
X151749166Y-115165166D01*
X151701547Y-115308023D01*
X151606309Y-115403261D01*
X151463452Y-115450880D01*
X151368214Y-115450880D01*
X152749166Y-115450880D02*
X152177738Y-115450880D01*
X152463452Y-115450880D02*
X152463452Y-114450880D01*
X152368214Y-114593738D01*
X152272976Y-114688976D01*
X152177738Y-114736595D01*
G04 #@! TO.C,J2*
X134077666Y-110888980D02*
X134077666Y-111603266D01*
X134030047Y-111746123D01*
X133934809Y-111841361D01*
X133791952Y-111888980D01*
X133696714Y-111888980D01*
X134506238Y-110984219D02*
X134553857Y-110936600D01*
X134649095Y-110888980D01*
X134887190Y-110888980D01*
X134982428Y-110936600D01*
X135030047Y-110984219D01*
X135077666Y-111079457D01*
X135077666Y-111174695D01*
X135030047Y-111317552D01*
X134458619Y-111888980D01*
X135077666Y-111888980D01*
G04 #@! TO.C,Q1*
X171959519Y-106381538D02*
X171911900Y-106476776D01*
X171816661Y-106572014D01*
X171673804Y-106714871D01*
X171626185Y-106810109D01*
X171626185Y-106905347D01*
X171864280Y-106857728D02*
X171816661Y-106952966D01*
X171721423Y-107048204D01*
X171530947Y-107095823D01*
X171197614Y-107095823D01*
X171007138Y-107048204D01*
X170911900Y-106952966D01*
X170864280Y-106857728D01*
X170864280Y-106667252D01*
X170911900Y-106572014D01*
X171007138Y-106476776D01*
X171197614Y-106429157D01*
X171530947Y-106429157D01*
X171721423Y-106476776D01*
X171816661Y-106572014D01*
X171864280Y-106667252D01*
X171864280Y-106857728D01*
X171864280Y-105476776D02*
X171864280Y-106048204D01*
X171864280Y-105762490D02*
X170864280Y-105762490D01*
X171007138Y-105857728D01*
X171102376Y-105952966D01*
X171149995Y-106048204D01*
G04 #@! TO.C,R1*
X148588433Y-105773480D02*
X148255100Y-105297290D01*
X148017004Y-105773480D02*
X148017004Y-104773480D01*
X148397957Y-104773480D01*
X148493195Y-104821100D01*
X148540814Y-104868719D01*
X148588433Y-104963957D01*
X148588433Y-105106814D01*
X148540814Y-105202052D01*
X148493195Y-105249671D01*
X148397957Y-105297290D01*
X148017004Y-105297290D01*
X149540814Y-105773480D02*
X148969385Y-105773480D01*
X149255100Y-105773480D02*
X149255100Y-104773480D01*
X149159861Y-104916338D01*
X149064623Y-105011576D01*
X148969385Y-105059195D01*
G04 #@! TO.C,R2*
X156775680Y-111816066D02*
X156299490Y-112149400D01*
X156775680Y-112387495D02*
X155775680Y-112387495D01*
X155775680Y-112006542D01*
X155823300Y-111911304D01*
X155870919Y-111863685D01*
X155966157Y-111816066D01*
X156109014Y-111816066D01*
X156204252Y-111863685D01*
X156251871Y-111911304D01*
X156299490Y-112006542D01*
X156299490Y-112387495D01*
X155870919Y-111435114D02*
X155823300Y-111387495D01*
X155775680Y-111292257D01*
X155775680Y-111054161D01*
X155823300Y-110958923D01*
X155870919Y-110911304D01*
X155966157Y-110863685D01*
X156061395Y-110863685D01*
X156204252Y-110911304D01*
X156775680Y-111482733D01*
X156775680Y-110863685D01*
G04 #@! TO.C,R3*
X151433233Y-102331780D02*
X151099900Y-101855590D01*
X150861804Y-102331780D02*
X150861804Y-101331780D01*
X151242757Y-101331780D01*
X151337995Y-101379400D01*
X151385614Y-101427019D01*
X151433233Y-101522257D01*
X151433233Y-101665114D01*
X151385614Y-101760352D01*
X151337995Y-101807971D01*
X151242757Y-101855590D01*
X150861804Y-101855590D01*
X151766566Y-101331780D02*
X152385614Y-101331780D01*
X152052280Y-101712733D01*
X152195138Y-101712733D01*
X152290376Y-101760352D01*
X152337995Y-101807971D01*
X152385614Y-101903209D01*
X152385614Y-102141304D01*
X152337995Y-102236542D01*
X152290376Y-102284161D01*
X152195138Y-102331780D01*
X151909423Y-102331780D01*
X151814185Y-102284161D01*
X151766566Y-102236542D01*
G04 #@! TO.C,R4*
X161707533Y-105913180D02*
X161374200Y-105436990D01*
X161136104Y-105913180D02*
X161136104Y-104913180D01*
X161517057Y-104913180D01*
X161612295Y-104960800D01*
X161659914Y-105008419D01*
X161707533Y-105103657D01*
X161707533Y-105246514D01*
X161659914Y-105341752D01*
X161612295Y-105389371D01*
X161517057Y-105436990D01*
X161136104Y-105436990D01*
X162564676Y-105246514D02*
X162564676Y-105913180D01*
X162326580Y-104865561D02*
X162088485Y-105579847D01*
X162707533Y-105579847D01*
G04 #@! TO.C,R5*
X142755880Y-107062566D02*
X142279690Y-107395900D01*
X142755880Y-107633995D02*
X141755880Y-107633995D01*
X141755880Y-107253042D01*
X141803500Y-107157804D01*
X141851119Y-107110185D01*
X141946357Y-107062566D01*
X142089214Y-107062566D01*
X142184452Y-107110185D01*
X142232071Y-107157804D01*
X142279690Y-107253042D01*
X142279690Y-107633995D01*
X141755880Y-106157804D02*
X141755880Y-106633995D01*
X142232071Y-106681614D01*
X142184452Y-106633995D01*
X142136833Y-106538757D01*
X142136833Y-106300661D01*
X142184452Y-106205423D01*
X142232071Y-106157804D01*
X142327309Y-106110185D01*
X142565404Y-106110185D01*
X142660642Y-106157804D01*
X142708261Y-106205423D01*
X142755880Y-106300661D01*
X142755880Y-106538757D01*
X142708261Y-106633995D01*
X142660642Y-106681614D01*
G04 #@! TO.C,R6*
X114565133Y-103856780D02*
X114231800Y-103380590D01*
X113993704Y-103856780D02*
X113993704Y-102856780D01*
X114374657Y-102856780D01*
X114469895Y-102904400D01*
X114517514Y-102952019D01*
X114565133Y-103047257D01*
X114565133Y-103190114D01*
X114517514Y-103285352D01*
X114469895Y-103332971D01*
X114374657Y-103380590D01*
X113993704Y-103380590D01*
X115422276Y-102856780D02*
X115231800Y-102856780D01*
X115136561Y-102904400D01*
X115088942Y-102952019D01*
X114993704Y-103094876D01*
X114946085Y-103285352D01*
X114946085Y-103666304D01*
X114993704Y-103761542D01*
X115041323Y-103809161D01*
X115136561Y-103856780D01*
X115327038Y-103856780D01*
X115422276Y-103809161D01*
X115469895Y-103761542D01*
X115517514Y-103666304D01*
X115517514Y-103428209D01*
X115469895Y-103332971D01*
X115422276Y-103285352D01*
X115327038Y-103237733D01*
X115136561Y-103237733D01*
X115041323Y-103285352D01*
X114993704Y-103332971D01*
X114946085Y-103428209D01*
G04 #@! TO.C,R7*
X114702580Y-112037266D02*
X114226390Y-112370600D01*
X114702580Y-112608695D02*
X113702580Y-112608695D01*
X113702580Y-112227742D01*
X113750200Y-112132504D01*
X113797819Y-112084885D01*
X113893057Y-112037266D01*
X114035914Y-112037266D01*
X114131152Y-112084885D01*
X114178771Y-112132504D01*
X114226390Y-112227742D01*
X114226390Y-112608695D01*
X113702580Y-111703933D02*
X113702580Y-111037266D01*
X114702580Y-111465838D01*
G04 #@! TO.C,TP1*
X134698123Y-117778280D02*
X134698123Y-118587804D01*
X134745742Y-118683042D01*
X134793361Y-118730661D01*
X134888600Y-118778280D01*
X135079076Y-118778280D01*
X135174314Y-118730661D01*
X135221933Y-118683042D01*
X135269552Y-118587804D01*
X135269552Y-117778280D01*
X135698123Y-118730661D02*
X135840980Y-118778280D01*
X136079076Y-118778280D01*
X136174314Y-118730661D01*
X136221933Y-118683042D01*
X136269552Y-118587804D01*
X136269552Y-118492566D01*
X136221933Y-118397328D01*
X136174314Y-118349709D01*
X136079076Y-118302090D01*
X135888600Y-118254471D01*
X135793361Y-118206852D01*
X135745742Y-118159233D01*
X135698123Y-118063995D01*
X135698123Y-117968757D01*
X135745742Y-117873519D01*
X135793361Y-117825900D01*
X135888600Y-117778280D01*
X136126695Y-117778280D01*
X136269552Y-117825900D01*
X137031457Y-118254471D02*
X137174314Y-118302090D01*
X137221933Y-118349709D01*
X137269552Y-118444947D01*
X137269552Y-118587804D01*
X137221933Y-118683042D01*
X137174314Y-118730661D01*
X137079076Y-118778280D01*
X136698123Y-118778280D01*
X136698123Y-117778280D01*
X137031457Y-117778280D01*
X137126695Y-117825900D01*
X137174314Y-117873519D01*
X137221933Y-117968757D01*
X137221933Y-118063995D01*
X137174314Y-118159233D01*
X137126695Y-118206852D01*
X137031457Y-118254471D01*
X136698123Y-118254471D01*
X137460028Y-118873519D02*
X138221933Y-118873519D01*
X138317171Y-117778280D02*
X138650504Y-118778280D01*
X138983838Y-117778280D01*
X139317171Y-118397328D02*
X140079076Y-118397328D01*
X139698123Y-118778280D02*
X139698123Y-118016376D01*
G04 #@! TO.C,TP2*
X169194171Y-118971842D02*
X169241790Y-118828985D01*
X169289409Y-118781366D01*
X169384647Y-118733747D01*
X169527504Y-118733747D01*
X169622742Y-118781366D01*
X169670361Y-118828985D01*
X169717980Y-118924223D01*
X169717980Y-119305176D01*
X168717980Y-119305176D01*
X168717980Y-118971842D01*
X168765600Y-118876604D01*
X168813219Y-118828985D01*
X168908457Y-118781366D01*
X169003695Y-118781366D01*
X169098933Y-118828985D01*
X169146552Y-118876604D01*
X169194171Y-118971842D01*
X169194171Y-119305176D01*
X169432266Y-118352795D02*
X169432266Y-117876604D01*
X169717980Y-118448033D02*
X168717980Y-118114700D01*
X169717980Y-117781366D01*
X168717980Y-117590890D02*
X168717980Y-117019461D01*
X169717980Y-117305176D02*
X168717980Y-117305176D01*
X169337028Y-116686128D02*
X169337028Y-115924223D01*
X169717980Y-116305176D02*
X168956076Y-116305176D01*
G04 #@! TO.C,TP3*
X166371661Y-103795580D02*
X166562138Y-103795580D01*
X166657376Y-103843200D01*
X166752614Y-103938438D01*
X166800233Y-104128914D01*
X166800233Y-104462247D01*
X166752614Y-104652723D01*
X166657376Y-104747961D01*
X166562138Y-104795580D01*
X166371661Y-104795580D01*
X166276423Y-104747961D01*
X166181185Y-104652723D01*
X166133566Y-104462247D01*
X166133566Y-104128914D01*
X166181185Y-103938438D01*
X166276423Y-103843200D01*
X166371661Y-103795580D01*
X167228804Y-104795580D02*
X167228804Y-103795580D01*
X167466900Y-103795580D01*
X167609757Y-103843200D01*
X167704995Y-103938438D01*
X167752614Y-104033676D01*
X167800233Y-104224152D01*
X167800233Y-104367009D01*
X167752614Y-104557485D01*
X167704995Y-104652723D01*
X167609757Y-104747961D01*
X167466900Y-104795580D01*
X167228804Y-104795580D01*
G04 #@! TO.C,TP4*
X169333871Y-112609142D02*
X169381490Y-112466285D01*
X169429109Y-112418666D01*
X169524347Y-112371047D01*
X169667204Y-112371047D01*
X169762442Y-112418666D01*
X169810061Y-112466285D01*
X169857680Y-112561523D01*
X169857680Y-112942476D01*
X168857680Y-112942476D01*
X168857680Y-112609142D01*
X168905300Y-112513904D01*
X168952919Y-112466285D01*
X169048157Y-112418666D01*
X169143395Y-112418666D01*
X169238633Y-112466285D01*
X169286252Y-112513904D01*
X169333871Y-112609142D01*
X169333871Y-112942476D01*
X169571966Y-111990095D02*
X169571966Y-111513904D01*
X169857680Y-112085333D02*
X168857680Y-111752000D01*
X169857680Y-111418666D01*
X168857680Y-111228190D02*
X168857680Y-110656761D01*
X169857680Y-110942476D02*
X168857680Y-110942476D01*
X169476728Y-110323428D02*
X169476728Y-109561523D01*
G04 #@! TO.C,TP5*
X166422461Y-101319080D02*
X166612938Y-101319080D01*
X166708176Y-101366700D01*
X166803414Y-101461938D01*
X166851033Y-101652414D01*
X166851033Y-101985747D01*
X166803414Y-102176223D01*
X166708176Y-102271461D01*
X166612938Y-102319080D01*
X166422461Y-102319080D01*
X166327223Y-102271461D01*
X166231985Y-102176223D01*
X166184366Y-101985747D01*
X166184366Y-101652414D01*
X166231985Y-101461938D01*
X166327223Y-101366700D01*
X166422461Y-101319080D01*
X167851033Y-102223842D02*
X167803414Y-102271461D01*
X167660557Y-102319080D01*
X167565319Y-102319080D01*
X167422461Y-102271461D01*
X167327223Y-102176223D01*
X167279604Y-102080985D01*
X167231985Y-101890509D01*
X167231985Y-101747652D01*
X167279604Y-101557176D01*
X167327223Y-101461938D01*
X167422461Y-101366700D01*
X167565319Y-101319080D01*
X167660557Y-101319080D01*
X167803414Y-101366700D01*
X167851033Y-101414319D01*
G04 #@! TO.C,TP6*
X155981495Y-118054500D02*
X155886257Y-118006880D01*
X155743400Y-118006880D01*
X155600542Y-118054500D01*
X155505304Y-118149738D01*
X155457685Y-118244976D01*
X155410066Y-118435452D01*
X155410066Y-118578309D01*
X155457685Y-118768785D01*
X155505304Y-118864023D01*
X155600542Y-118959261D01*
X155743400Y-119006880D01*
X155838638Y-119006880D01*
X155981495Y-118959261D01*
X156029114Y-118911642D01*
X156029114Y-118578309D01*
X155838638Y-118578309D01*
X156457685Y-119006880D02*
X156457685Y-118006880D01*
X157029114Y-119006880D01*
X157029114Y-118006880D01*
X157505304Y-119006880D02*
X157505304Y-118006880D01*
X157743400Y-118006880D01*
X157886257Y-118054500D01*
X157981495Y-118149738D01*
X158029114Y-118244976D01*
X158076733Y-118435452D01*
X158076733Y-118578309D01*
X158029114Y-118768785D01*
X157981495Y-118864023D01*
X157886257Y-118959261D01*
X157743400Y-119006880D01*
X157505304Y-119006880D01*
G04 #@! TO.C,TP7*
X127838366Y-103072280D02*
X128171700Y-104072280D01*
X128505033Y-103072280D01*
X129409795Y-103977042D02*
X129362176Y-104024661D01*
X129219319Y-104072280D01*
X129124080Y-104072280D01*
X128981223Y-104024661D01*
X128885985Y-103929423D01*
X128838366Y-103834185D01*
X128790747Y-103643709D01*
X128790747Y-103500852D01*
X128838366Y-103310376D01*
X128885985Y-103215138D01*
X128981223Y-103119900D01*
X129124080Y-103072280D01*
X129219319Y-103072280D01*
X129362176Y-103119900D01*
X129409795Y-103167519D01*
X130409795Y-103977042D02*
X130362176Y-104024661D01*
X130219319Y-104072280D01*
X130124080Y-104072280D01*
X129981223Y-104024661D01*
X129885985Y-103929423D01*
X129838366Y-103834185D01*
X129790747Y-103643709D01*
X129790747Y-103500852D01*
X129838366Y-103310376D01*
X129885985Y-103215138D01*
X129981223Y-103119900D01*
X130124080Y-103072280D01*
X130219319Y-103072280D01*
X130362176Y-103119900D01*
X130409795Y-103167519D01*
G04 #@! TO.C,U1*
X149923595Y-105814880D02*
X149923595Y-106624404D01*
X149971214Y-106719642D01*
X150018833Y-106767261D01*
X150114071Y-106814880D01*
X150304547Y-106814880D01*
X150399785Y-106767261D01*
X150447404Y-106719642D01*
X150495023Y-106624404D01*
X150495023Y-105814880D01*
X151495023Y-106814880D02*
X150923595Y-106814880D01*
X151209309Y-106814880D02*
X151209309Y-105814880D01*
X151114071Y-105957738D01*
X151018833Y-106052976D01*
X150923595Y-106100595D01*
G04 #@! TO.C,U2*
X157577895Y-105199480D02*
X157577895Y-106009004D01*
X157625514Y-106104242D01*
X157673133Y-106151861D01*
X157768371Y-106199480D01*
X157958847Y-106199480D01*
X158054085Y-106151861D01*
X158101704Y-106104242D01*
X158149323Y-106009004D01*
X158149323Y-105199480D01*
X158577895Y-105294719D02*
X158625514Y-105247100D01*
X158720752Y-105199480D01*
X158958847Y-105199480D01*
X159054085Y-105247100D01*
X159101704Y-105294719D01*
X159149323Y-105389957D01*
X159149323Y-105485195D01*
X159101704Y-105628052D01*
X158530276Y-106199480D01*
X159149323Y-106199480D01*
G04 #@! TO.C,U3*
X120624695Y-108037380D02*
X120624695Y-108846904D01*
X120672314Y-108942142D01*
X120719933Y-108989761D01*
X120815171Y-109037380D01*
X121005647Y-109037380D01*
X121100885Y-108989761D01*
X121148504Y-108942142D01*
X121196123Y-108846904D01*
X121196123Y-108037380D01*
X121577076Y-108037380D02*
X122196123Y-108037380D01*
X121862790Y-108418333D01*
X122005647Y-108418333D01*
X122100885Y-108465952D01*
X122148504Y-108513571D01*
X122196123Y-108608809D01*
X122196123Y-108846904D01*
X122148504Y-108942142D01*
X122100885Y-108989761D01*
X122005647Y-109037380D01*
X121719933Y-109037380D01*
X121624695Y-108989761D01*
X121577076Y-108942142D01*
G04 #@! TO.C,U4*
X125323695Y-106589580D02*
X125323695Y-107399104D01*
X125371314Y-107494342D01*
X125418933Y-107541961D01*
X125514171Y-107589580D01*
X125704647Y-107589580D01*
X125799885Y-107541961D01*
X125847504Y-107494342D01*
X125895123Y-107399104D01*
X125895123Y-106589580D01*
X126799885Y-106922914D02*
X126799885Y-107589580D01*
X126561790Y-106541961D02*
X126323695Y-107256247D01*
X126942742Y-107256247D01*
G04 #@! TO.C,D3*
X101712804Y-107627680D02*
X101712804Y-106627680D01*
X101950900Y-106627680D01*
X102093757Y-106675300D01*
X102188995Y-106770538D01*
X102236614Y-106865776D01*
X102284233Y-107056252D01*
X102284233Y-107199109D01*
X102236614Y-107389585D01*
X102188995Y-107484823D01*
X102093757Y-107580061D01*
X101950900Y-107627680D01*
X101712804Y-107627680D01*
X102617566Y-106627680D02*
X103236614Y-106627680D01*
X102903280Y-107008633D01*
X103046138Y-107008633D01*
X103141376Y-107056252D01*
X103188995Y-107103871D01*
X103236614Y-107199109D01*
X103236614Y-107437204D01*
X103188995Y-107532442D01*
X103141376Y-107580061D01*
X103046138Y-107627680D01*
X102760423Y-107627680D01*
X102665185Y-107580061D01*
X102617566Y-107532442D01*
G04 #@! TO.C,BT1*
X175861671Y-118933814D02*
X175909290Y-118790957D01*
X175956909Y-118743338D01*
X176052147Y-118695719D01*
X176195004Y-118695719D01*
X176290242Y-118743338D01*
X176337861Y-118790957D01*
X176385480Y-118886195D01*
X176385480Y-119267147D01*
X175385480Y-119267147D01*
X175385480Y-118933814D01*
X175433100Y-118838576D01*
X175480719Y-118790957D01*
X175575957Y-118743338D01*
X175671195Y-118743338D01*
X175766433Y-118790957D01*
X175814052Y-118838576D01*
X175861671Y-118933814D01*
X175861671Y-119267147D01*
X175385480Y-118410004D02*
X175385480Y-117838576D01*
X176385480Y-118124290D02*
X175385480Y-118124290D01*
X176385480Y-116981433D02*
X176385480Y-117552861D01*
X176385480Y-117267147D02*
X175385480Y-117267147D01*
X175528338Y-117362385D01*
X175623576Y-117457623D01*
X175671195Y-117552861D01*
G04 #@! TO.C,J3*
X137405680Y-107457833D02*
X138119966Y-107457833D01*
X138262823Y-107505452D01*
X138358061Y-107600690D01*
X138405680Y-107743547D01*
X138405680Y-107838785D01*
X137405680Y-107076880D02*
X137405680Y-106457833D01*
X137786633Y-106791166D01*
X137786633Y-106648309D01*
X137834252Y-106553071D01*
X137881871Y-106505452D01*
X137977109Y-106457833D01*
X138215204Y-106457833D01*
X138310442Y-106505452D01*
X138358061Y-106553071D01*
X138405680Y-106648309D01*
X138405680Y-106934023D01*
X138358061Y-107029261D01*
X138310442Y-107076880D01*
G04 #@! TO.C,C5*
X135342333Y-102579442D02*
X135294714Y-102627061D01*
X135151857Y-102674680D01*
X135056619Y-102674680D01*
X134913761Y-102627061D01*
X134818523Y-102531823D01*
X134770904Y-102436585D01*
X134723285Y-102246109D01*
X134723285Y-102103252D01*
X134770904Y-101912776D01*
X134818523Y-101817538D01*
X134913761Y-101722300D01*
X135056619Y-101674680D01*
X135151857Y-101674680D01*
X135294714Y-101722300D01*
X135342333Y-101769919D01*
X136247095Y-101674680D02*
X135770904Y-101674680D01*
X135723285Y-102150871D01*
X135770904Y-102103252D01*
X135866142Y-102055633D01*
X136104238Y-102055633D01*
X136199476Y-102103252D01*
X136247095Y-102150871D01*
X136294714Y-102246109D01*
X136294714Y-102484204D01*
X136247095Y-102579442D01*
X136199476Y-102627061D01*
X136104238Y-102674680D01*
X135866142Y-102674680D01*
X135770904Y-102627061D01*
X135723285Y-102579442D01*
G04 #@! TD*
M02*
