G04 #@! TF.GenerationSoftware,KiCad,Pcbnew,(5.0.1)-4*
G04 #@! TF.CreationDate,2019-10-30T18:23:07+01:00*
G04 #@! TF.ProjectId,PCB,5043422E6B696361645F706362000000,rev?*
G04 #@! TF.SameCoordinates,Original*
G04 #@! TF.FileFunction,Soldermask,Top*
G04 #@! TF.FilePolarity,Negative*
%FSLAX46Y46*%
G04 Gerber Fmt 4.6, Leading zero omitted, Abs format (unit mm)*
G04 Created by KiCad (PCBNEW (5.0.1)-4) date 30/10/2019 18:23:07*
%MOMM*%
%LPD*%
G01*
G04 APERTURE LIST*
%ADD10C,0.100000*%
G04 APERTURE END LIST*
D10*
G36*
X152524800Y-119441000D02*
X150624800Y-119441000D01*
X150624800Y-117541000D01*
X152524800Y-117541000D01*
X152524800Y-119441000D01*
X152524800Y-119441000D01*
G37*
G36*
X144624800Y-119441000D02*
X142724800Y-119441000D01*
X142724800Y-117541000D01*
X144624800Y-117541000D01*
X144624800Y-119441000D01*
X144624800Y-119441000D01*
G37*
G36*
X127473249Y-117546317D02*
X127512427Y-117550176D01*
X127587828Y-117573049D01*
X127663229Y-117595921D01*
X127802208Y-117670208D01*
X127924022Y-117770178D01*
X128023992Y-117891992D01*
X128098279Y-118030971D01*
X128098279Y-118030972D01*
X128142038Y-118175225D01*
X128144024Y-118181774D01*
X128159470Y-118338600D01*
X128144024Y-118495426D01*
X128098279Y-118646229D01*
X128023992Y-118785208D01*
X127924022Y-118907022D01*
X127802208Y-119006992D01*
X127663229Y-119081279D01*
X127587828Y-119104151D01*
X127512427Y-119127024D01*
X127473249Y-119130883D01*
X127394895Y-119138600D01*
X127316305Y-119138600D01*
X127237951Y-119130883D01*
X127198773Y-119127024D01*
X127123372Y-119104151D01*
X127047971Y-119081279D01*
X126908992Y-119006992D01*
X126787178Y-118907022D01*
X126687208Y-118785208D01*
X126612921Y-118646229D01*
X126567176Y-118495426D01*
X126551730Y-118338600D01*
X126567176Y-118181774D01*
X126569163Y-118175225D01*
X126612921Y-118030972D01*
X126612921Y-118030971D01*
X126687208Y-117891992D01*
X126787178Y-117770178D01*
X126908992Y-117670208D01*
X127047971Y-117595921D01*
X127123372Y-117573049D01*
X127198773Y-117550176D01*
X127237951Y-117546317D01*
X127316305Y-117538600D01*
X127394895Y-117538600D01*
X127473249Y-117546317D01*
X127473249Y-117546317D01*
G37*
G36*
X119853249Y-117546317D02*
X119892427Y-117550176D01*
X119967828Y-117573049D01*
X120043229Y-117595921D01*
X120182208Y-117670208D01*
X120304022Y-117770178D01*
X120403992Y-117891992D01*
X120478279Y-118030971D01*
X120478279Y-118030972D01*
X120522038Y-118175225D01*
X120524024Y-118181774D01*
X120539470Y-118338600D01*
X120524024Y-118495426D01*
X120478279Y-118646229D01*
X120403992Y-118785208D01*
X120304022Y-118907022D01*
X120182208Y-119006992D01*
X120043229Y-119081279D01*
X119967828Y-119104151D01*
X119892427Y-119127024D01*
X119853249Y-119130883D01*
X119774895Y-119138600D01*
X119696305Y-119138600D01*
X119617951Y-119130883D01*
X119578773Y-119127024D01*
X119503372Y-119104151D01*
X119427971Y-119081279D01*
X119288992Y-119006992D01*
X119167178Y-118907022D01*
X119067208Y-118785208D01*
X118992921Y-118646229D01*
X118947176Y-118495426D01*
X118931730Y-118338600D01*
X118947176Y-118181774D01*
X118949163Y-118175225D01*
X118992921Y-118030972D01*
X118992921Y-118030971D01*
X119067208Y-117891992D01*
X119167178Y-117770178D01*
X119288992Y-117670208D01*
X119427971Y-117595921D01*
X119503372Y-117573049D01*
X119578773Y-117550176D01*
X119617951Y-117546317D01*
X119696305Y-117538600D01*
X119774895Y-117538600D01*
X119853249Y-117546317D01*
X119853249Y-117546317D01*
G37*
G36*
X141673200Y-118965600D02*
X140673200Y-118965600D01*
X140673200Y-117965600D01*
X141673200Y-117965600D01*
X141673200Y-118965600D01*
X141673200Y-118965600D01*
G37*
G36*
X154779600Y-118914800D02*
X153779600Y-118914800D01*
X153779600Y-117914800D01*
X154779600Y-117914800D01*
X154779600Y-118914800D01*
X154779600Y-118914800D01*
G37*
G36*
X111799083Y-117055900D02*
X111926474Y-117108668D01*
X112041125Y-117185275D01*
X112138625Y-117282775D01*
X112215232Y-117397426D01*
X112268000Y-117524817D01*
X112294900Y-117660055D01*
X112294900Y-117797945D01*
X112268000Y-117933183D01*
X112215232Y-118060574D01*
X112138625Y-118175225D01*
X112041125Y-118272725D01*
X111926474Y-118349332D01*
X111799083Y-118402100D01*
X111663845Y-118429000D01*
X111525955Y-118429000D01*
X111390717Y-118402100D01*
X111263326Y-118349332D01*
X111148675Y-118272725D01*
X111051175Y-118175225D01*
X110974568Y-118060574D01*
X110921800Y-117933183D01*
X110894900Y-117797945D01*
X110894900Y-117660055D01*
X110921800Y-117524817D01*
X110974568Y-117397426D01*
X111051175Y-117282775D01*
X111148675Y-117185275D01*
X111263326Y-117108668D01*
X111390717Y-117055900D01*
X111525955Y-117029000D01*
X111663845Y-117029000D01*
X111799083Y-117055900D01*
X111799083Y-117055900D01*
G37*
G36*
X171619800Y-118406800D02*
X170619800Y-118406800D01*
X170619800Y-117406800D01*
X171619800Y-117406800D01*
X171619800Y-118406800D01*
X171619800Y-118406800D01*
G37*
G36*
X149124800Y-116137248D02*
X149127202Y-116161634D01*
X149134315Y-116185083D01*
X149145866Y-116206694D01*
X149161412Y-116225636D01*
X149180354Y-116241182D01*
X149201965Y-116252733D01*
X149225414Y-116259846D01*
X149249800Y-116262248D01*
X149274186Y-116259846D01*
X149297635Y-116252733D01*
X149319246Y-116241182D01*
X149338188Y-116225636D01*
X149353734Y-116206694D01*
X149358942Y-116198900D01*
X149358943Y-116198897D01*
X149391774Y-116149761D01*
X149433561Y-116107974D01*
X149482697Y-116075143D01*
X149537293Y-116052528D01*
X149595253Y-116041000D01*
X149654347Y-116041000D01*
X149712307Y-116052528D01*
X149766903Y-116075143D01*
X149816039Y-116107974D01*
X149857826Y-116149761D01*
X149890657Y-116198897D01*
X149913272Y-116253493D01*
X149924800Y-116311453D01*
X149924800Y-116370547D01*
X149913272Y-116428507D01*
X149890657Y-116483103D01*
X149857826Y-116532239D01*
X149816039Y-116574026D01*
X149766903Y-116606857D01*
X149712307Y-116629472D01*
X149654347Y-116641000D01*
X149595253Y-116641000D01*
X149537293Y-116629472D01*
X149482697Y-116606857D01*
X149433561Y-116574026D01*
X149391774Y-116532239D01*
X149358943Y-116483103D01*
X149358942Y-116483100D01*
X149353734Y-116475306D01*
X149338188Y-116456364D01*
X149319246Y-116440818D01*
X149297635Y-116429267D01*
X149274186Y-116422154D01*
X149249800Y-116419752D01*
X149225414Y-116422154D01*
X149201964Y-116429267D01*
X149180354Y-116440818D01*
X149161412Y-116456364D01*
X149145866Y-116475306D01*
X149137478Y-116491000D01*
X146112122Y-116491000D01*
X146103734Y-116475306D01*
X146088188Y-116456364D01*
X146069246Y-116440818D01*
X146047635Y-116429267D01*
X146024186Y-116422154D01*
X145999800Y-116419752D01*
X145975414Y-116422154D01*
X145951965Y-116429267D01*
X145930354Y-116440818D01*
X145911412Y-116456364D01*
X145895866Y-116475306D01*
X145890658Y-116483100D01*
X145890657Y-116483103D01*
X145857826Y-116532239D01*
X145816039Y-116574026D01*
X145766903Y-116606857D01*
X145712307Y-116629472D01*
X145654347Y-116641000D01*
X145595253Y-116641000D01*
X145537293Y-116629472D01*
X145482697Y-116606857D01*
X145433561Y-116574026D01*
X145391774Y-116532239D01*
X145358943Y-116483103D01*
X145336328Y-116428507D01*
X145324800Y-116370547D01*
X145324800Y-116311453D01*
X145336328Y-116253493D01*
X145358943Y-116198897D01*
X145391774Y-116149761D01*
X145433561Y-116107974D01*
X145482697Y-116075143D01*
X145537293Y-116052528D01*
X145595253Y-116041000D01*
X145654347Y-116041000D01*
X145712307Y-116052528D01*
X145766903Y-116075143D01*
X145816039Y-116107974D01*
X145857826Y-116149761D01*
X145890657Y-116198897D01*
X145890658Y-116198900D01*
X145895866Y-116206694D01*
X145911412Y-116225636D01*
X145930354Y-116241182D01*
X145951965Y-116252733D01*
X145975414Y-116259846D01*
X145999800Y-116262248D01*
X146024186Y-116259846D01*
X146047636Y-116252733D01*
X146069246Y-116241182D01*
X146088188Y-116225636D01*
X146103734Y-116206694D01*
X146115285Y-116185083D01*
X146122398Y-116161634D01*
X146124800Y-116137248D01*
X146124800Y-115141000D01*
X149124800Y-115141000D01*
X149124800Y-116137248D01*
X149124800Y-116137248D01*
G37*
G36*
X119853249Y-115006317D02*
X119892427Y-115010176D01*
X119967828Y-115033049D01*
X120043229Y-115055921D01*
X120182208Y-115130208D01*
X120304022Y-115230178D01*
X120403992Y-115351992D01*
X120478279Y-115490971D01*
X120478279Y-115490972D01*
X120524024Y-115641773D01*
X120539470Y-115798600D01*
X120524024Y-115955427D01*
X120501152Y-116030827D01*
X120478279Y-116106229D01*
X120403992Y-116245208D01*
X120304022Y-116367022D01*
X120182208Y-116466992D01*
X120043229Y-116541279D01*
X119967827Y-116564152D01*
X119892427Y-116587024D01*
X119853249Y-116590883D01*
X119774895Y-116598600D01*
X119696305Y-116598600D01*
X119617951Y-116590883D01*
X119578773Y-116587024D01*
X119503373Y-116564152D01*
X119427971Y-116541279D01*
X119288992Y-116466992D01*
X119167178Y-116367022D01*
X119067208Y-116245208D01*
X118992921Y-116106229D01*
X118970048Y-116030827D01*
X118947176Y-115955427D01*
X118931730Y-115798600D01*
X118947176Y-115641773D01*
X118992921Y-115490972D01*
X118992921Y-115490971D01*
X119067208Y-115351992D01*
X119167178Y-115230178D01*
X119288992Y-115130208D01*
X119427971Y-115055921D01*
X119503372Y-115033049D01*
X119578773Y-115010176D01*
X119617951Y-115006317D01*
X119696305Y-114998600D01*
X119774895Y-114998600D01*
X119853249Y-115006317D01*
X119853249Y-115006317D01*
G37*
G36*
X127473249Y-115006317D02*
X127512427Y-115010176D01*
X127587828Y-115033049D01*
X127663229Y-115055921D01*
X127802208Y-115130208D01*
X127924022Y-115230178D01*
X128023992Y-115351992D01*
X128098279Y-115490971D01*
X128098279Y-115490972D01*
X128144024Y-115641773D01*
X128159470Y-115798600D01*
X128144024Y-115955427D01*
X128121152Y-116030827D01*
X128098279Y-116106229D01*
X128023992Y-116245208D01*
X127924022Y-116367022D01*
X127802208Y-116466992D01*
X127663229Y-116541279D01*
X127587827Y-116564152D01*
X127512427Y-116587024D01*
X127473249Y-116590883D01*
X127394895Y-116598600D01*
X127316305Y-116598600D01*
X127237951Y-116590883D01*
X127198773Y-116587024D01*
X127123373Y-116564152D01*
X127047971Y-116541279D01*
X126908992Y-116466992D01*
X126787178Y-116367022D01*
X126687208Y-116245208D01*
X126612921Y-116106229D01*
X126590048Y-116030827D01*
X126567176Y-115955427D01*
X126551730Y-115798600D01*
X126567176Y-115641773D01*
X126612921Y-115490972D01*
X126612921Y-115490971D01*
X126687208Y-115351992D01*
X126787178Y-115230178D01*
X126908992Y-115130208D01*
X127047971Y-115055921D01*
X127123372Y-115033049D01*
X127198773Y-115010176D01*
X127237951Y-115006317D01*
X127316305Y-114998600D01*
X127394895Y-114998600D01*
X127473249Y-115006317D01*
X127473249Y-115006317D01*
G37*
G36*
X175195600Y-116585100D02*
X173495600Y-116585100D01*
X173495600Y-114885100D01*
X175195600Y-114885100D01*
X175195600Y-116585100D01*
X175195600Y-116585100D01*
G37*
G36*
X171648392Y-115188176D02*
X171682283Y-115198457D01*
X171713511Y-115215148D01*
X171740885Y-115237615D01*
X171763352Y-115264989D01*
X171780043Y-115296217D01*
X171790324Y-115330108D01*
X171794400Y-115371491D01*
X171794400Y-115971709D01*
X171790324Y-116013092D01*
X171780043Y-116046983D01*
X171763352Y-116078211D01*
X171740885Y-116105585D01*
X171713511Y-116128052D01*
X171682283Y-116144743D01*
X171648392Y-116155024D01*
X171607009Y-116159100D01*
X170581791Y-116159100D01*
X170540408Y-116155024D01*
X170506517Y-116144743D01*
X170475289Y-116128052D01*
X170447915Y-116105585D01*
X170425448Y-116078211D01*
X170408757Y-116046983D01*
X170398476Y-116013092D01*
X170394400Y-115971709D01*
X170394400Y-115371491D01*
X170398476Y-115330108D01*
X170408757Y-115296217D01*
X170425448Y-115264989D01*
X170447915Y-115237615D01*
X170475289Y-115215148D01*
X170506517Y-115198457D01*
X170540408Y-115188176D01*
X170581791Y-115184100D01*
X171607009Y-115184100D01*
X171648392Y-115188176D01*
X171648392Y-115188176D01*
G37*
G36*
X133661000Y-116041600D02*
X131261000Y-116041600D01*
X131261000Y-115301600D01*
X133661000Y-115301600D01*
X133661000Y-116041600D01*
X133661000Y-116041600D01*
G37*
G36*
X137561000Y-116041600D02*
X135161000Y-116041600D01*
X135161000Y-115301600D01*
X137561000Y-115301600D01*
X137561000Y-116041600D01*
X137561000Y-116041600D01*
G37*
G36*
X111799083Y-114515900D02*
X111926474Y-114568668D01*
X112041125Y-114645275D01*
X112138625Y-114742775D01*
X112215232Y-114857426D01*
X112268000Y-114984817D01*
X112294900Y-115120055D01*
X112294900Y-115257945D01*
X112268000Y-115393183D01*
X112215232Y-115520574D01*
X112138625Y-115635225D01*
X112041125Y-115732725D01*
X111926474Y-115809332D01*
X111799083Y-115862100D01*
X111663845Y-115889000D01*
X111525955Y-115889000D01*
X111390717Y-115862100D01*
X111263326Y-115809332D01*
X111148675Y-115732725D01*
X111051175Y-115635225D01*
X110974568Y-115520574D01*
X110921800Y-115393183D01*
X110894900Y-115257945D01*
X110894900Y-115120055D01*
X110921800Y-114984817D01*
X110974568Y-114857426D01*
X111051175Y-114742775D01*
X111148675Y-114645275D01*
X111263326Y-114568668D01*
X111390717Y-114515900D01*
X111525955Y-114489000D01*
X111663845Y-114489000D01*
X111799083Y-114515900D01*
X111799083Y-114515900D01*
G37*
G36*
X133661000Y-114771600D02*
X131261000Y-114771600D01*
X131261000Y-114031600D01*
X133661000Y-114031600D01*
X133661000Y-114771600D01*
X133661000Y-114771600D01*
G37*
G36*
X137561000Y-114771600D02*
X135161000Y-114771600D01*
X135161000Y-114031600D01*
X137561000Y-114031600D01*
X137561000Y-114771600D01*
X137561000Y-114771600D01*
G37*
G36*
X147106522Y-112943639D02*
X147140053Y-112953811D01*
X147170960Y-112970331D01*
X147198043Y-112992557D01*
X147220269Y-113019640D01*
X147236789Y-113050547D01*
X147246961Y-113084078D01*
X147251000Y-113125087D01*
X147251000Y-114154113D01*
X147246961Y-114195122D01*
X147236789Y-114228653D01*
X147220269Y-114259560D01*
X147198043Y-114286643D01*
X147170960Y-114308869D01*
X147140053Y-114325389D01*
X147106522Y-114335561D01*
X147065513Y-114339600D01*
X146286487Y-114339600D01*
X146245478Y-114335561D01*
X146211947Y-114325389D01*
X146181040Y-114308869D01*
X146153957Y-114286643D01*
X146131731Y-114259560D01*
X146115211Y-114228653D01*
X146105039Y-114195122D01*
X146101000Y-114154113D01*
X146101000Y-113125087D01*
X146105039Y-113084078D01*
X146115211Y-113050547D01*
X146131731Y-113019640D01*
X146153957Y-112992557D01*
X146181040Y-112970331D01*
X146211947Y-112953811D01*
X146245478Y-112943639D01*
X146286487Y-112939600D01*
X147065513Y-112939600D01*
X147106522Y-112943639D01*
X147106522Y-112943639D01*
G37*
G36*
X149156522Y-112943639D02*
X149190053Y-112953811D01*
X149220960Y-112970331D01*
X149248043Y-112992557D01*
X149270269Y-113019640D01*
X149286789Y-113050547D01*
X149296961Y-113084078D01*
X149301000Y-113125087D01*
X149301000Y-114154113D01*
X149296961Y-114195122D01*
X149286789Y-114228653D01*
X149270269Y-114259560D01*
X149248043Y-114286643D01*
X149220960Y-114308869D01*
X149190053Y-114325389D01*
X149156522Y-114335561D01*
X149115513Y-114339600D01*
X148336487Y-114339600D01*
X148295478Y-114335561D01*
X148261947Y-114325389D01*
X148231040Y-114308869D01*
X148203957Y-114286643D01*
X148181731Y-114259560D01*
X148165211Y-114228653D01*
X148155039Y-114195122D01*
X148151000Y-114154113D01*
X148151000Y-113125087D01*
X148155039Y-113084078D01*
X148165211Y-113050547D01*
X148181731Y-113019640D01*
X148203957Y-112992557D01*
X148231040Y-112970331D01*
X148261947Y-112953811D01*
X148295478Y-112943639D01*
X148336487Y-112939600D01*
X149115513Y-112939600D01*
X149156522Y-112943639D01*
X149156522Y-112943639D01*
G37*
G36*
X171648392Y-113313176D02*
X171682283Y-113323457D01*
X171713511Y-113340148D01*
X171740885Y-113362615D01*
X171763352Y-113389989D01*
X171780043Y-113421217D01*
X171790324Y-113455108D01*
X171794400Y-113496491D01*
X171794400Y-114096709D01*
X171790324Y-114138092D01*
X171780043Y-114171983D01*
X171763352Y-114203211D01*
X171740885Y-114230585D01*
X171713511Y-114253052D01*
X171682283Y-114269743D01*
X171648392Y-114280024D01*
X171607009Y-114284100D01*
X170581791Y-114284100D01*
X170540408Y-114280024D01*
X170506517Y-114269743D01*
X170475289Y-114253052D01*
X170447915Y-114230585D01*
X170425448Y-114203211D01*
X170408757Y-114171983D01*
X170398476Y-114138092D01*
X170394400Y-114096709D01*
X170394400Y-113496491D01*
X170398476Y-113455108D01*
X170408757Y-113421217D01*
X170425448Y-113389989D01*
X170447915Y-113362615D01*
X170475289Y-113340148D01*
X170506517Y-113323457D01*
X170540408Y-113313176D01*
X170581791Y-113309100D01*
X171607009Y-113309100D01*
X171648392Y-113313176D01*
X171648392Y-113313176D01*
G37*
G36*
X119840666Y-112465078D02*
X119892427Y-112470176D01*
X119941071Y-112484932D01*
X120043229Y-112515921D01*
X120182208Y-112590208D01*
X120304022Y-112690178D01*
X120403992Y-112811992D01*
X120478279Y-112950971D01*
X120487610Y-112981732D01*
X120524024Y-113101773D01*
X120539470Y-113258600D01*
X120524024Y-113415427D01*
X120513060Y-113451570D01*
X120478279Y-113566229D01*
X120403992Y-113705208D01*
X120304022Y-113827022D01*
X120182208Y-113926992D01*
X120043229Y-114001279D01*
X119967828Y-114024151D01*
X119892427Y-114047024D01*
X119853249Y-114050883D01*
X119774895Y-114058600D01*
X119696305Y-114058600D01*
X119617951Y-114050883D01*
X119578773Y-114047024D01*
X119503372Y-114024151D01*
X119427971Y-114001279D01*
X119288992Y-113926992D01*
X119167178Y-113827022D01*
X119067208Y-113705208D01*
X118992921Y-113566229D01*
X118958140Y-113451570D01*
X118947176Y-113415427D01*
X118931730Y-113258600D01*
X118947176Y-113101773D01*
X118983590Y-112981732D01*
X118992921Y-112950971D01*
X119067208Y-112811992D01*
X119167178Y-112690178D01*
X119288992Y-112590208D01*
X119427971Y-112515921D01*
X119530129Y-112484932D01*
X119578773Y-112470176D01*
X119630534Y-112465078D01*
X119696305Y-112458600D01*
X119774895Y-112458600D01*
X119840666Y-112465078D01*
X119840666Y-112465078D01*
G37*
G36*
X127460666Y-112465078D02*
X127512427Y-112470176D01*
X127561071Y-112484932D01*
X127663229Y-112515921D01*
X127802208Y-112590208D01*
X127924022Y-112690178D01*
X128023992Y-112811992D01*
X128098279Y-112950971D01*
X128107610Y-112981732D01*
X128144024Y-113101773D01*
X128159470Y-113258600D01*
X128144024Y-113415427D01*
X128133060Y-113451570D01*
X128098279Y-113566229D01*
X128023992Y-113705208D01*
X127924022Y-113827022D01*
X127802208Y-113926992D01*
X127663229Y-114001279D01*
X127587828Y-114024151D01*
X127512427Y-114047024D01*
X127473249Y-114050883D01*
X127394895Y-114058600D01*
X127316305Y-114058600D01*
X127237951Y-114050883D01*
X127198773Y-114047024D01*
X127123372Y-114024151D01*
X127047971Y-114001279D01*
X126908992Y-113926992D01*
X126787178Y-113827022D01*
X126687208Y-113705208D01*
X126612921Y-113566229D01*
X126578140Y-113451570D01*
X126567176Y-113415427D01*
X126551730Y-113258600D01*
X126567176Y-113101773D01*
X126603590Y-112981732D01*
X126612921Y-112950971D01*
X126687208Y-112811992D01*
X126787178Y-112690178D01*
X126908992Y-112590208D01*
X127047971Y-112515921D01*
X127150129Y-112484932D01*
X127198773Y-112470176D01*
X127250534Y-112465078D01*
X127316305Y-112458600D01*
X127394895Y-112458600D01*
X127460666Y-112465078D01*
X127460666Y-112465078D01*
G37*
G36*
X174512230Y-112357399D02*
X174672455Y-112406003D01*
X174820120Y-112484931D01*
X174949549Y-112591151D01*
X175055769Y-112720580D01*
X175134697Y-112868245D01*
X175183301Y-113028470D01*
X175199712Y-113195100D01*
X175183301Y-113361730D01*
X175134697Y-113521955D01*
X175055769Y-113669620D01*
X174949549Y-113799049D01*
X174820120Y-113905269D01*
X174672455Y-113984197D01*
X174512230Y-114032801D01*
X174387352Y-114045100D01*
X174303848Y-114045100D01*
X174178970Y-114032801D01*
X174018745Y-113984197D01*
X173871080Y-113905269D01*
X173741651Y-113799049D01*
X173635431Y-113669620D01*
X173556503Y-113521955D01*
X173507899Y-113361730D01*
X173491488Y-113195100D01*
X173507899Y-113028470D01*
X173556503Y-112868245D01*
X173635431Y-112720580D01*
X173741651Y-112591151D01*
X173871080Y-112484931D01*
X174018745Y-112406003D01*
X174178970Y-112357399D01*
X174303848Y-112345100D01*
X174387352Y-112345100D01*
X174512230Y-112357399D01*
X174512230Y-112357399D01*
G37*
G36*
X137561000Y-113501600D02*
X135161000Y-113501600D01*
X135161000Y-112761600D01*
X137561000Y-112761600D01*
X137561000Y-113501600D01*
X137561000Y-113501600D01*
G37*
G36*
X133661000Y-113501600D02*
X131261000Y-113501600D01*
X131261000Y-112761600D01*
X133661000Y-112761600D01*
X133661000Y-113501600D01*
X133661000Y-113501600D01*
G37*
G36*
X116455722Y-112324639D02*
X116489253Y-112334811D01*
X116520160Y-112351331D01*
X116547243Y-112373557D01*
X116569469Y-112400640D01*
X116585989Y-112431547D01*
X116596161Y-112465078D01*
X116600200Y-112506087D01*
X116600200Y-113285113D01*
X116596161Y-113326122D01*
X116585989Y-113359653D01*
X116569469Y-113390560D01*
X116547243Y-113417643D01*
X116520160Y-113439869D01*
X116489253Y-113456389D01*
X116455722Y-113466561D01*
X116414713Y-113470600D01*
X115385687Y-113470600D01*
X115344678Y-113466561D01*
X115311147Y-113456389D01*
X115280240Y-113439869D01*
X115253157Y-113417643D01*
X115230931Y-113390560D01*
X115214411Y-113359653D01*
X115204239Y-113326122D01*
X115200200Y-113285113D01*
X115200200Y-112506087D01*
X115204239Y-112465078D01*
X115214411Y-112431547D01*
X115230931Y-112400640D01*
X115253157Y-112373557D01*
X115280240Y-112351331D01*
X115311147Y-112334811D01*
X115344678Y-112324639D01*
X115385687Y-112320600D01*
X116414713Y-112320600D01*
X116455722Y-112324639D01*
X116455722Y-112324639D01*
G37*
G36*
X155228822Y-112103439D02*
X155262353Y-112113611D01*
X155293260Y-112130131D01*
X155320343Y-112152357D01*
X155342569Y-112179440D01*
X155359089Y-112210347D01*
X155369261Y-112243878D01*
X155373300Y-112284887D01*
X155373300Y-113063913D01*
X155369261Y-113104922D01*
X155359089Y-113138453D01*
X155342569Y-113169360D01*
X155320343Y-113196443D01*
X155293260Y-113218669D01*
X155262353Y-113235189D01*
X155228822Y-113245361D01*
X155187813Y-113249400D01*
X154158787Y-113249400D01*
X154117778Y-113245361D01*
X154084247Y-113235189D01*
X154053340Y-113218669D01*
X154026257Y-113196443D01*
X154004031Y-113169360D01*
X153987511Y-113138453D01*
X153977339Y-113104922D01*
X153973300Y-113063913D01*
X153973300Y-112284887D01*
X153977339Y-112243878D01*
X153987511Y-112210347D01*
X154004031Y-112179440D01*
X154026257Y-112152357D01*
X154053340Y-112130131D01*
X154084247Y-112113611D01*
X154117778Y-112103439D01*
X154158787Y-112099400D01*
X155187813Y-112099400D01*
X155228822Y-112103439D01*
X155228822Y-112103439D01*
G37*
G36*
X145885200Y-111882200D02*
X144335200Y-111882200D01*
X144335200Y-111282200D01*
X145885200Y-111282200D01*
X145885200Y-111882200D01*
X145885200Y-111882200D01*
G37*
G36*
X151285200Y-111882200D02*
X149735200Y-111882200D01*
X149735200Y-111282200D01*
X151285200Y-111282200D01*
X151285200Y-111882200D01*
X151285200Y-111882200D01*
G37*
G36*
X171569000Y-111879000D02*
X170569000Y-111879000D01*
X170569000Y-110879000D01*
X171569000Y-110879000D01*
X171569000Y-111879000D01*
X171569000Y-111879000D01*
G37*
G36*
X165466703Y-108461486D02*
X165757883Y-108582097D01*
X166019944Y-108757201D01*
X166242799Y-108980056D01*
X166417903Y-109242117D01*
X166538514Y-109533297D01*
X166600000Y-109842412D01*
X166600000Y-110157588D01*
X166538514Y-110466703D01*
X166417903Y-110757883D01*
X166242799Y-111019944D01*
X166019944Y-111242799D01*
X165757883Y-111417903D01*
X165466703Y-111538514D01*
X165157588Y-111600000D01*
X164842412Y-111600000D01*
X164533297Y-111538514D01*
X164242117Y-111417903D01*
X163980056Y-111242799D01*
X163757201Y-111019944D01*
X163582097Y-110757883D01*
X163461486Y-110466703D01*
X163400000Y-110157588D01*
X163400000Y-109842412D01*
X163461486Y-109533297D01*
X163582097Y-109242117D01*
X163757201Y-108980056D01*
X163980056Y-108757201D01*
X164242117Y-108582097D01*
X164533297Y-108461486D01*
X164842412Y-108400000D01*
X165157588Y-108400000D01*
X165466703Y-108461486D01*
X165466703Y-108461486D01*
G37*
G36*
X110466703Y-108461486D02*
X110757883Y-108582097D01*
X111019944Y-108757201D01*
X111242799Y-108980056D01*
X111417903Y-109242117D01*
X111538514Y-109533297D01*
X111600000Y-109842412D01*
X111600000Y-110157588D01*
X111538514Y-110466703D01*
X111417903Y-110757883D01*
X111242799Y-111019944D01*
X111019944Y-111242799D01*
X110757883Y-111417903D01*
X110466703Y-111538514D01*
X110157588Y-111600000D01*
X109842412Y-111600000D01*
X109533297Y-111538514D01*
X109242117Y-111417903D01*
X108980056Y-111242799D01*
X108757201Y-111019944D01*
X108582097Y-110757883D01*
X108461486Y-110466703D01*
X108400000Y-110157588D01*
X108400000Y-109842412D01*
X108461486Y-109533297D01*
X108582097Y-109242117D01*
X108757201Y-108980056D01*
X108980056Y-108757201D01*
X109242117Y-108582097D01*
X109533297Y-108461486D01*
X109842412Y-108400000D01*
X110157588Y-108400000D01*
X110466703Y-108461486D01*
X110466703Y-108461486D01*
G37*
G36*
X120535600Y-111518600D02*
X118935600Y-111518600D01*
X118935600Y-109918600D01*
X120535600Y-109918600D01*
X120535600Y-111518600D01*
X120535600Y-111518600D01*
G37*
G36*
X127473249Y-109926317D02*
X127512427Y-109930176D01*
X127587827Y-109953048D01*
X127663229Y-109975921D01*
X127802208Y-110050208D01*
X127924022Y-110150178D01*
X128023992Y-110271992D01*
X128098279Y-110410971D01*
X128144024Y-110561774D01*
X128159470Y-110718600D01*
X128144024Y-110875426D01*
X128098279Y-111026229D01*
X128023992Y-111165208D01*
X127924022Y-111287022D01*
X127802208Y-111386992D01*
X127663229Y-111461279D01*
X127587828Y-111484151D01*
X127512427Y-111507024D01*
X127473249Y-111510883D01*
X127394895Y-111518600D01*
X127316305Y-111518600D01*
X127237951Y-111510883D01*
X127198773Y-111507024D01*
X127123372Y-111484151D01*
X127047971Y-111461279D01*
X126908992Y-111386992D01*
X126787178Y-111287022D01*
X126687208Y-111165208D01*
X126612921Y-111026229D01*
X126567176Y-110875426D01*
X126551730Y-110718600D01*
X126567176Y-110561774D01*
X126612921Y-110410971D01*
X126687208Y-110271992D01*
X126787178Y-110150178D01*
X126908992Y-110050208D01*
X127047971Y-109975921D01*
X127123373Y-109953048D01*
X127198773Y-109930176D01*
X127237951Y-109926317D01*
X127316305Y-109918600D01*
X127394895Y-109918600D01*
X127473249Y-109926317D01*
X127473249Y-109926317D01*
G37*
G36*
X142795522Y-110292639D02*
X142829053Y-110302811D01*
X142859960Y-110319331D01*
X142887043Y-110341557D01*
X142909269Y-110368640D01*
X142925789Y-110399547D01*
X142935961Y-110433078D01*
X142940000Y-110474087D01*
X142940000Y-111253113D01*
X142935961Y-111294122D01*
X142925789Y-111327653D01*
X142909269Y-111358560D01*
X142887043Y-111385643D01*
X142859960Y-111407869D01*
X142829053Y-111424389D01*
X142795522Y-111434561D01*
X142754513Y-111438600D01*
X141725487Y-111438600D01*
X141684478Y-111434561D01*
X141650947Y-111424389D01*
X141620040Y-111407869D01*
X141592957Y-111385643D01*
X141570731Y-111358560D01*
X141554211Y-111327653D01*
X141544039Y-111294122D01*
X141540000Y-111253113D01*
X141540000Y-110474087D01*
X141544039Y-110433078D01*
X141554211Y-110399547D01*
X141570731Y-110368640D01*
X141592957Y-110341557D01*
X141620040Y-110319331D01*
X141650947Y-110302811D01*
X141684478Y-110292639D01*
X141725487Y-110288600D01*
X142754513Y-110288600D01*
X142795522Y-110292639D01*
X142795522Y-110292639D01*
G37*
G36*
X116455722Y-110274639D02*
X116489253Y-110284811D01*
X116520160Y-110301331D01*
X116547243Y-110323557D01*
X116569469Y-110350640D01*
X116585989Y-110381547D01*
X116596161Y-110415078D01*
X116600200Y-110456087D01*
X116600200Y-111235113D01*
X116596161Y-111276122D01*
X116585989Y-111309653D01*
X116569469Y-111340560D01*
X116547243Y-111367643D01*
X116520160Y-111389869D01*
X116489253Y-111406389D01*
X116455722Y-111416561D01*
X116414713Y-111420600D01*
X115385687Y-111420600D01*
X115344678Y-111416561D01*
X115311147Y-111406389D01*
X115280240Y-111389869D01*
X115253157Y-111367643D01*
X115230931Y-111340560D01*
X115214411Y-111309653D01*
X115204239Y-111276122D01*
X115200200Y-111235113D01*
X115200200Y-110456087D01*
X115204239Y-110415078D01*
X115214411Y-110381547D01*
X115230931Y-110350640D01*
X115253157Y-110323557D01*
X115280240Y-110301331D01*
X115311147Y-110284811D01*
X115344678Y-110274639D01*
X115385687Y-110270600D01*
X116414713Y-110270600D01*
X116455722Y-110274639D01*
X116455722Y-110274639D01*
G37*
G36*
X155228822Y-110053439D02*
X155262353Y-110063611D01*
X155293260Y-110080131D01*
X155320343Y-110102357D01*
X155342569Y-110129440D01*
X155359089Y-110160347D01*
X155369261Y-110193878D01*
X155373300Y-110234887D01*
X155373300Y-111013913D01*
X155369261Y-111054922D01*
X155359089Y-111088453D01*
X155342569Y-111119360D01*
X155320343Y-111146443D01*
X155293260Y-111168669D01*
X155262353Y-111185189D01*
X155228822Y-111195361D01*
X155187813Y-111199400D01*
X154158787Y-111199400D01*
X154117778Y-111195361D01*
X154084247Y-111185189D01*
X154053340Y-111168669D01*
X154026257Y-111146443D01*
X154004031Y-111119360D01*
X153987511Y-111088453D01*
X153977339Y-111054922D01*
X153973300Y-111013913D01*
X153973300Y-110234887D01*
X153977339Y-110193878D01*
X153987511Y-110160347D01*
X154004031Y-110129440D01*
X154026257Y-110102357D01*
X154053340Y-110080131D01*
X154084247Y-110063611D01*
X154117778Y-110053439D01*
X154158787Y-110049400D01*
X155187813Y-110049400D01*
X155228822Y-110053439D01*
X155228822Y-110053439D01*
G37*
G36*
X145885200Y-110612200D02*
X144335200Y-110612200D01*
X144335200Y-110012200D01*
X145885200Y-110012200D01*
X145885200Y-110612200D01*
X145885200Y-110612200D01*
G37*
G36*
X151285200Y-110612200D02*
X149735200Y-110612200D01*
X149735200Y-110012200D01*
X151285200Y-110012200D01*
X151285200Y-110612200D01*
X151285200Y-110612200D01*
G37*
G36*
X116403392Y-108731976D02*
X116437283Y-108742257D01*
X116468511Y-108758948D01*
X116495885Y-108781415D01*
X116518352Y-108808789D01*
X116535043Y-108840017D01*
X116545324Y-108873908D01*
X116549400Y-108915291D01*
X116549400Y-109515509D01*
X116545324Y-109556892D01*
X116535043Y-109590783D01*
X116518352Y-109622011D01*
X116495885Y-109649385D01*
X116468511Y-109671852D01*
X116437283Y-109688543D01*
X116403392Y-109698824D01*
X116362009Y-109702900D01*
X115336791Y-109702900D01*
X115295408Y-109698824D01*
X115261517Y-109688543D01*
X115230289Y-109671852D01*
X115202915Y-109649385D01*
X115180448Y-109622011D01*
X115163757Y-109590783D01*
X115153476Y-109556892D01*
X115149400Y-109515509D01*
X115149400Y-108915291D01*
X115153476Y-108873908D01*
X115163757Y-108840017D01*
X115180448Y-108808789D01*
X115202915Y-108781415D01*
X115230289Y-108758948D01*
X115261517Y-108742257D01*
X115295408Y-108731976D01*
X115336791Y-108727900D01*
X116362009Y-108727900D01*
X116403392Y-108731976D01*
X116403392Y-108731976D01*
G37*
G36*
X175088400Y-109415200D02*
X172688400Y-109415200D01*
X172688400Y-107965200D01*
X175088400Y-107965200D01*
X175088400Y-109415200D01*
X175088400Y-109415200D01*
G37*
G36*
X142795522Y-108242639D02*
X142829053Y-108252811D01*
X142859960Y-108269331D01*
X142887043Y-108291557D01*
X142909269Y-108318640D01*
X142925789Y-108349547D01*
X142935961Y-108383078D01*
X142940000Y-108424087D01*
X142940000Y-109203113D01*
X142935961Y-109244122D01*
X142925789Y-109277653D01*
X142909269Y-109308560D01*
X142887043Y-109335643D01*
X142859960Y-109357869D01*
X142829053Y-109374389D01*
X142795522Y-109384561D01*
X142754513Y-109388600D01*
X141725487Y-109388600D01*
X141684478Y-109384561D01*
X141650947Y-109374389D01*
X141620040Y-109357869D01*
X141592957Y-109335643D01*
X141570731Y-109308560D01*
X141554211Y-109277653D01*
X141544039Y-109244122D01*
X141540000Y-109203113D01*
X141540000Y-108424087D01*
X141544039Y-108383078D01*
X141554211Y-108349547D01*
X141570731Y-108318640D01*
X141592957Y-108291557D01*
X141620040Y-108269331D01*
X141650947Y-108252811D01*
X141684478Y-108242639D01*
X141725487Y-108238600D01*
X142754513Y-108238600D01*
X142795522Y-108242639D01*
X142795522Y-108242639D01*
G37*
G36*
X151285200Y-109342200D02*
X149735200Y-109342200D01*
X149735200Y-108742200D01*
X151285200Y-108742200D01*
X151285200Y-109342200D01*
X151285200Y-109342200D01*
G37*
G36*
X145885200Y-109342200D02*
X144335200Y-109342200D01*
X144335200Y-108742200D01*
X145885200Y-108742200D01*
X145885200Y-109342200D01*
X145885200Y-109342200D01*
G37*
G36*
X151285200Y-108072200D02*
X149735200Y-108072200D01*
X149735200Y-107472200D01*
X151285200Y-107472200D01*
X151285200Y-108072200D01*
X151285200Y-108072200D01*
G37*
G36*
X145885200Y-108072200D02*
X144335200Y-108072200D01*
X144335200Y-107472200D01*
X145885200Y-107472200D01*
X145885200Y-108072200D01*
X145885200Y-108072200D01*
G37*
G36*
X133249930Y-106286799D02*
X133410155Y-106335403D01*
X133557820Y-106414331D01*
X133687249Y-106520551D01*
X133793469Y-106649980D01*
X133872397Y-106797645D01*
X133921001Y-106957870D01*
X133937412Y-107124500D01*
X133921001Y-107291130D01*
X133872397Y-107451355D01*
X133793469Y-107599020D01*
X133687249Y-107728449D01*
X133557820Y-107834669D01*
X133410155Y-107913597D01*
X133249930Y-107962201D01*
X133125052Y-107974500D01*
X133041548Y-107974500D01*
X132916670Y-107962201D01*
X132756445Y-107913597D01*
X132608780Y-107834669D01*
X132479351Y-107728449D01*
X132373131Y-107599020D01*
X132294203Y-107451355D01*
X132245599Y-107291130D01*
X132229188Y-107124500D01*
X132245599Y-106957870D01*
X132294203Y-106797645D01*
X132373131Y-106649980D01*
X132479351Y-106520551D01*
X132608780Y-106414331D01*
X132756445Y-106335403D01*
X132916670Y-106286799D01*
X133041548Y-106274500D01*
X133125052Y-106274500D01*
X133249930Y-106286799D01*
X133249930Y-106286799D01*
G37*
G36*
X136473300Y-107974500D02*
X134773300Y-107974500D01*
X134773300Y-106274500D01*
X136473300Y-106274500D01*
X136473300Y-107974500D01*
X136473300Y-107974500D01*
G37*
G36*
X116403392Y-106856976D02*
X116437283Y-106867257D01*
X116468511Y-106883948D01*
X116495885Y-106906415D01*
X116518352Y-106933789D01*
X116535043Y-106965017D01*
X116545324Y-106998908D01*
X116549400Y-107040291D01*
X116549400Y-107640509D01*
X116545324Y-107681892D01*
X116535043Y-107715783D01*
X116518352Y-107747011D01*
X116495885Y-107774385D01*
X116468511Y-107796852D01*
X116437283Y-107813543D01*
X116403392Y-107823824D01*
X116362009Y-107827900D01*
X115336791Y-107827900D01*
X115295408Y-107823824D01*
X115261517Y-107813543D01*
X115230289Y-107796852D01*
X115202915Y-107774385D01*
X115180448Y-107747011D01*
X115163757Y-107715783D01*
X115153476Y-107681892D01*
X115149400Y-107640509D01*
X115149400Y-107040291D01*
X115153476Y-106998908D01*
X115163757Y-106965017D01*
X115180448Y-106933789D01*
X115202915Y-106906415D01*
X115230289Y-106883948D01*
X115261517Y-106867257D01*
X115295408Y-106856976D01*
X115336791Y-106852900D01*
X116362009Y-106852900D01*
X116403392Y-106856976D01*
X116403392Y-106856976D01*
G37*
G36*
X103084200Y-106157600D02*
X101284200Y-106157600D01*
X101284200Y-104357600D01*
X103084200Y-104357600D01*
X103084200Y-106157600D01*
X103084200Y-106157600D01*
G37*
G36*
X126893600Y-105913200D02*
X125343600Y-105913200D01*
X125343600Y-105313200D01*
X126893600Y-105313200D01*
X126893600Y-105913200D01*
X126893600Y-105913200D01*
G37*
G36*
X121493600Y-105913200D02*
X119943600Y-105913200D01*
X119943600Y-105313200D01*
X121493600Y-105313200D01*
X121493600Y-105913200D01*
X121493600Y-105913200D01*
G37*
G36*
X114137322Y-104358439D02*
X114170853Y-104368611D01*
X114201760Y-104385131D01*
X114228843Y-104407357D01*
X114251069Y-104434440D01*
X114267589Y-104465347D01*
X114277761Y-104498878D01*
X114281800Y-104539887D01*
X114281800Y-105568913D01*
X114277761Y-105609922D01*
X114267589Y-105643453D01*
X114251069Y-105674360D01*
X114228843Y-105701443D01*
X114201760Y-105723669D01*
X114170853Y-105740189D01*
X114137322Y-105750361D01*
X114096313Y-105754400D01*
X113317287Y-105754400D01*
X113276278Y-105750361D01*
X113242747Y-105740189D01*
X113211840Y-105723669D01*
X113184757Y-105701443D01*
X113162531Y-105674360D01*
X113146011Y-105643453D01*
X113135839Y-105609922D01*
X113131800Y-105568913D01*
X113131800Y-104539887D01*
X113135839Y-104498878D01*
X113146011Y-104465347D01*
X113162531Y-104434440D01*
X113184757Y-104407357D01*
X113211840Y-104385131D01*
X113242747Y-104368611D01*
X113276278Y-104358439D01*
X113317287Y-104354400D01*
X114096313Y-104354400D01*
X114137322Y-104358439D01*
X114137322Y-104358439D01*
G37*
G36*
X116187322Y-104358439D02*
X116220853Y-104368611D01*
X116251760Y-104385131D01*
X116278843Y-104407357D01*
X116301069Y-104434440D01*
X116317589Y-104465347D01*
X116327761Y-104498878D01*
X116331800Y-104539887D01*
X116331800Y-105568913D01*
X116327761Y-105609922D01*
X116317589Y-105643453D01*
X116301069Y-105674360D01*
X116278843Y-105701443D01*
X116251760Y-105723669D01*
X116220853Y-105740189D01*
X116187322Y-105750361D01*
X116146313Y-105754400D01*
X115367287Y-105754400D01*
X115326278Y-105750361D01*
X115292747Y-105740189D01*
X115261840Y-105723669D01*
X115234757Y-105701443D01*
X115212531Y-105674360D01*
X115196011Y-105643453D01*
X115185839Y-105609922D01*
X115181800Y-105568913D01*
X115181800Y-104539887D01*
X115185839Y-104498878D01*
X115196011Y-104465347D01*
X115212531Y-104434440D01*
X115234757Y-104407357D01*
X115261840Y-104385131D01*
X115292747Y-104368611D01*
X115326278Y-104358439D01*
X115367287Y-104354400D01*
X116146313Y-104354400D01*
X116187322Y-104358439D01*
X116187322Y-104358439D01*
G37*
G36*
X165434900Y-104817800D02*
X164434900Y-104817800D01*
X164434900Y-103817800D01*
X165434900Y-103817800D01*
X165434900Y-104817800D01*
X165434900Y-104817800D01*
G37*
G36*
X126893600Y-104643200D02*
X125343600Y-104643200D01*
X125343600Y-104043200D01*
X126893600Y-104043200D01*
X126893600Y-104643200D01*
X126893600Y-104643200D01*
G37*
G36*
X121493600Y-104643200D02*
X119943600Y-104643200D01*
X119943600Y-104043200D01*
X121493600Y-104043200D01*
X121493600Y-104643200D01*
X121493600Y-104643200D01*
G37*
G36*
X144227322Y-103075739D02*
X144260853Y-103085911D01*
X144291760Y-103102431D01*
X144318843Y-103124657D01*
X144341069Y-103151740D01*
X144357589Y-103182647D01*
X144367761Y-103216178D01*
X144371800Y-103257187D01*
X144371800Y-104286213D01*
X144367761Y-104327222D01*
X144357589Y-104360753D01*
X144341069Y-104391660D01*
X144318843Y-104418743D01*
X144291760Y-104440969D01*
X144260853Y-104457489D01*
X144227322Y-104467661D01*
X144186313Y-104471700D01*
X143407287Y-104471700D01*
X143366278Y-104467661D01*
X143332747Y-104457489D01*
X143301840Y-104440969D01*
X143274757Y-104418743D01*
X143252531Y-104391660D01*
X143236011Y-104360753D01*
X143225839Y-104327222D01*
X143221800Y-104286213D01*
X143221800Y-103257187D01*
X143225839Y-103216178D01*
X143236011Y-103182647D01*
X143252531Y-103151740D01*
X143274757Y-103124657D01*
X143301840Y-103102431D01*
X143332747Y-103085911D01*
X143366278Y-103075739D01*
X143407287Y-103071700D01*
X144186313Y-103071700D01*
X144227322Y-103075739D01*
X144227322Y-103075739D01*
G37*
G36*
X146277322Y-103075739D02*
X146310853Y-103085911D01*
X146341760Y-103102431D01*
X146368843Y-103124657D01*
X146391069Y-103151740D01*
X146407589Y-103182647D01*
X146417761Y-103216178D01*
X146421800Y-103257187D01*
X146421800Y-104286213D01*
X146417761Y-104327222D01*
X146407589Y-104360753D01*
X146391069Y-104391660D01*
X146368843Y-104418743D01*
X146341760Y-104440969D01*
X146310853Y-104457489D01*
X146277322Y-104467661D01*
X146236313Y-104471700D01*
X145457287Y-104471700D01*
X145416278Y-104467661D01*
X145382747Y-104457489D01*
X145351840Y-104440969D01*
X145324757Y-104418743D01*
X145302531Y-104391660D01*
X145286011Y-104360753D01*
X145275839Y-104327222D01*
X145271800Y-104286213D01*
X145271800Y-103257187D01*
X145275839Y-103216178D01*
X145286011Y-103182647D01*
X145302531Y-103151740D01*
X145324757Y-103124657D01*
X145351840Y-103102431D01*
X145382747Y-103085911D01*
X145416278Y-103075739D01*
X145457287Y-103071700D01*
X146236313Y-103071700D01*
X146277322Y-103075739D01*
X146277322Y-103075739D01*
G37*
G36*
X148109822Y-103063039D02*
X148143353Y-103073211D01*
X148174260Y-103089731D01*
X148201343Y-103111957D01*
X148223569Y-103139040D01*
X148240089Y-103169947D01*
X148250261Y-103203478D01*
X148254300Y-103244487D01*
X148254300Y-104273513D01*
X148250261Y-104314522D01*
X148240089Y-104348053D01*
X148223569Y-104378960D01*
X148201343Y-104406043D01*
X148174260Y-104428269D01*
X148143353Y-104444789D01*
X148109822Y-104454961D01*
X148068813Y-104459000D01*
X147289787Y-104459000D01*
X147248778Y-104454961D01*
X147215247Y-104444789D01*
X147184340Y-104428269D01*
X147157257Y-104406043D01*
X147135031Y-104378960D01*
X147118511Y-104348053D01*
X147108339Y-104314522D01*
X147104300Y-104273513D01*
X147104300Y-103244487D01*
X147108339Y-103203478D01*
X147118511Y-103169947D01*
X147135031Y-103139040D01*
X147157257Y-103111957D01*
X147184340Y-103089731D01*
X147215247Y-103073211D01*
X147248778Y-103063039D01*
X147289787Y-103059000D01*
X148068813Y-103059000D01*
X148109822Y-103063039D01*
X148109822Y-103063039D01*
G37*
G36*
X150159822Y-103063039D02*
X150193353Y-103073211D01*
X150224260Y-103089731D01*
X150251343Y-103111957D01*
X150273569Y-103139040D01*
X150290089Y-103169947D01*
X150300261Y-103203478D01*
X150304300Y-103244487D01*
X150304300Y-104273513D01*
X150300261Y-104314522D01*
X150290089Y-104348053D01*
X150273569Y-104378960D01*
X150251343Y-104406043D01*
X150224260Y-104428269D01*
X150193353Y-104444789D01*
X150159822Y-104454961D01*
X150118813Y-104459000D01*
X149339787Y-104459000D01*
X149298778Y-104454961D01*
X149265247Y-104444789D01*
X149234340Y-104428269D01*
X149207257Y-104406043D01*
X149185031Y-104378960D01*
X149168511Y-104348053D01*
X149158339Y-104314522D01*
X149154300Y-104273513D01*
X149154300Y-103244487D01*
X149158339Y-103203478D01*
X149168511Y-103169947D01*
X149185031Y-103139040D01*
X149207257Y-103111957D01*
X149234340Y-103089731D01*
X149265247Y-103073211D01*
X149298778Y-103063039D01*
X149339787Y-103059000D01*
X150118813Y-103059000D01*
X150159822Y-103063039D01*
X150159822Y-103063039D01*
G37*
G36*
X162861522Y-103273239D02*
X162895053Y-103283411D01*
X162925960Y-103299931D01*
X162953043Y-103322157D01*
X162975269Y-103349240D01*
X162991789Y-103380147D01*
X163001961Y-103413678D01*
X163006000Y-103454687D01*
X163006000Y-104233713D01*
X163001961Y-104274722D01*
X162991789Y-104308253D01*
X162975269Y-104339160D01*
X162953043Y-104366243D01*
X162925960Y-104388469D01*
X162895053Y-104404989D01*
X162861522Y-104415161D01*
X162820513Y-104419200D01*
X161791487Y-104419200D01*
X161750478Y-104415161D01*
X161716947Y-104404989D01*
X161686040Y-104388469D01*
X161658957Y-104366243D01*
X161636731Y-104339160D01*
X161620211Y-104308253D01*
X161610039Y-104274722D01*
X161606000Y-104233713D01*
X161606000Y-103454687D01*
X161610039Y-103413678D01*
X161620211Y-103380147D01*
X161636731Y-103349240D01*
X161658957Y-103322157D01*
X161686040Y-103299931D01*
X161716947Y-103283411D01*
X161750478Y-103273239D01*
X161791487Y-103269200D01*
X162820513Y-103269200D01*
X162861522Y-103273239D01*
X162861522Y-103273239D01*
G37*
G36*
X154909792Y-103410676D02*
X154943683Y-103420957D01*
X154974911Y-103437648D01*
X155002285Y-103460115D01*
X155024752Y-103487489D01*
X155041443Y-103518717D01*
X155051724Y-103552608D01*
X155055800Y-103593991D01*
X155055800Y-104194209D01*
X155051724Y-104235592D01*
X155041443Y-104269483D01*
X155024752Y-104300711D01*
X155002285Y-104328085D01*
X154974911Y-104350552D01*
X154943683Y-104367243D01*
X154909792Y-104377524D01*
X154868409Y-104381600D01*
X153843191Y-104381600D01*
X153801808Y-104377524D01*
X153767917Y-104367243D01*
X153736689Y-104350552D01*
X153709315Y-104328085D01*
X153686848Y-104300711D01*
X153670157Y-104269483D01*
X153659876Y-104235592D01*
X153655800Y-104194209D01*
X153655800Y-103593991D01*
X153659876Y-103552608D01*
X153670157Y-103518717D01*
X153686848Y-103487489D01*
X153709315Y-103460115D01*
X153736689Y-103437648D01*
X153767917Y-103420957D01*
X153801808Y-103410676D01*
X153843191Y-103406600D01*
X154868409Y-103406600D01*
X154909792Y-103410676D01*
X154909792Y-103410676D01*
G37*
G36*
X160469800Y-104122100D02*
X158909800Y-104122100D01*
X158909800Y-103472100D01*
X160469800Y-103472100D01*
X160469800Y-104122100D01*
X160469800Y-104122100D01*
G37*
G36*
X157769800Y-104122100D02*
X156209800Y-104122100D01*
X156209800Y-103472100D01*
X157769800Y-103472100D01*
X157769800Y-104122100D01*
X157769800Y-104122100D01*
G37*
G36*
X102446721Y-101852186D02*
X102610509Y-101920029D01*
X102757920Y-102018526D01*
X102883274Y-102143880D01*
X102981771Y-102291291D01*
X103049614Y-102455079D01*
X103084200Y-102628956D01*
X103084200Y-102806244D01*
X103049614Y-102980121D01*
X102981771Y-103143909D01*
X102883274Y-103291320D01*
X102757920Y-103416674D01*
X102610509Y-103515171D01*
X102446721Y-103583014D01*
X102272844Y-103617600D01*
X102095556Y-103617600D01*
X101921679Y-103583014D01*
X101757891Y-103515171D01*
X101610480Y-103416674D01*
X101485126Y-103291320D01*
X101386629Y-103143909D01*
X101318786Y-102980121D01*
X101284200Y-102806244D01*
X101284200Y-102628956D01*
X101318786Y-102455079D01*
X101386629Y-102291291D01*
X101485126Y-102143880D01*
X101610480Y-102018526D01*
X101757891Y-101920029D01*
X101921679Y-101852186D01*
X102095556Y-101817600D01*
X102272844Y-101817600D01*
X102446721Y-101852186D01*
X102446721Y-101852186D01*
G37*
G36*
X175088400Y-103515200D02*
X172688400Y-103515200D01*
X172688400Y-102065200D01*
X175088400Y-102065200D01*
X175088400Y-103515200D01*
X175088400Y-103515200D01*
G37*
G36*
X121493600Y-103373200D02*
X119943600Y-103373200D01*
X119943600Y-102773200D01*
X121493600Y-102773200D01*
X121493600Y-103373200D01*
X121493600Y-103373200D01*
G37*
G36*
X126893600Y-103373200D02*
X125343600Y-103373200D01*
X125343600Y-102773200D01*
X126893600Y-102773200D01*
X126893600Y-103373200D01*
X126893600Y-103373200D01*
G37*
G36*
X157769800Y-103172100D02*
X156209800Y-103172100D01*
X156209800Y-102522100D01*
X157769800Y-102522100D01*
X157769800Y-103172100D01*
X157769800Y-103172100D01*
G37*
G36*
X160469800Y-103172100D02*
X158909800Y-103172100D01*
X158909800Y-102522100D01*
X160469800Y-102522100D01*
X160469800Y-103172100D01*
X160469800Y-103172100D01*
G37*
G36*
X132218422Y-101361239D02*
X132251953Y-101371411D01*
X132282860Y-101387931D01*
X132309943Y-101410157D01*
X132332169Y-101437240D01*
X132348689Y-101468147D01*
X132358861Y-101501678D01*
X132362900Y-101542687D01*
X132362900Y-102571713D01*
X132358861Y-102612722D01*
X132348689Y-102646253D01*
X132332169Y-102677160D01*
X132309943Y-102704243D01*
X132282860Y-102726469D01*
X132251953Y-102742989D01*
X132218422Y-102753161D01*
X132177413Y-102757200D01*
X131398387Y-102757200D01*
X131357378Y-102753161D01*
X131323847Y-102742989D01*
X131292940Y-102726469D01*
X131265857Y-102704243D01*
X131243631Y-102677160D01*
X131227111Y-102646253D01*
X131216939Y-102612722D01*
X131212900Y-102571713D01*
X131212900Y-101542687D01*
X131216939Y-101501678D01*
X131227111Y-101468147D01*
X131243631Y-101437240D01*
X131265857Y-101410157D01*
X131292940Y-101387931D01*
X131323847Y-101371411D01*
X131357378Y-101361239D01*
X131398387Y-101357200D01*
X132177413Y-101357200D01*
X132218422Y-101361239D01*
X132218422Y-101361239D01*
G37*
G36*
X134268422Y-101361239D02*
X134301953Y-101371411D01*
X134332860Y-101387931D01*
X134359943Y-101410157D01*
X134382169Y-101437240D01*
X134398689Y-101468147D01*
X134408861Y-101501678D01*
X134412900Y-101542687D01*
X134412900Y-102571713D01*
X134408861Y-102612722D01*
X134398689Y-102646253D01*
X134382169Y-102677160D01*
X134359943Y-102704243D01*
X134332860Y-102726469D01*
X134301953Y-102742989D01*
X134268422Y-102753161D01*
X134227413Y-102757200D01*
X133448387Y-102757200D01*
X133407378Y-102753161D01*
X133373847Y-102742989D01*
X133342940Y-102726469D01*
X133315857Y-102704243D01*
X133293631Y-102677160D01*
X133277111Y-102646253D01*
X133266939Y-102612722D01*
X133262900Y-102571713D01*
X133262900Y-101542687D01*
X133266939Y-101501678D01*
X133277111Y-101468147D01*
X133293631Y-101437240D01*
X133315857Y-101410157D01*
X133342940Y-101387931D01*
X133373847Y-101371411D01*
X133407378Y-101361239D01*
X133448387Y-101357200D01*
X134227413Y-101357200D01*
X134268422Y-101361239D01*
X134268422Y-101361239D01*
G37*
G36*
X129671700Y-102569900D02*
X128671700Y-102569900D01*
X128671700Y-101569900D01*
X129671700Y-101569900D01*
X129671700Y-102569900D01*
X129671700Y-102569900D01*
G37*
G36*
X165460300Y-102557200D02*
X164460300Y-102557200D01*
X164460300Y-101557200D01*
X165460300Y-101557200D01*
X165460300Y-102557200D01*
X165460300Y-102557200D01*
G37*
G36*
X154909792Y-101535676D02*
X154943683Y-101545957D01*
X154974911Y-101562648D01*
X155002285Y-101585115D01*
X155024752Y-101612489D01*
X155041443Y-101643717D01*
X155051724Y-101677608D01*
X155055800Y-101718991D01*
X155055800Y-102319209D01*
X155051724Y-102360592D01*
X155041443Y-102394483D01*
X155024752Y-102425711D01*
X155002285Y-102453085D01*
X154974911Y-102475552D01*
X154943683Y-102492243D01*
X154909792Y-102502524D01*
X154868409Y-102506600D01*
X153843191Y-102506600D01*
X153801808Y-102502524D01*
X153767917Y-102492243D01*
X153736689Y-102475552D01*
X153709315Y-102453085D01*
X153686848Y-102425711D01*
X153670157Y-102394483D01*
X153659876Y-102360592D01*
X153655800Y-102319209D01*
X153655800Y-101718991D01*
X153659876Y-101677608D01*
X153670157Y-101643717D01*
X153686848Y-101612489D01*
X153709315Y-101585115D01*
X153736689Y-101562648D01*
X153767917Y-101545957D01*
X153801808Y-101535676D01*
X153843191Y-101531600D01*
X154868409Y-101531600D01*
X154909792Y-101535676D01*
X154909792Y-101535676D01*
G37*
G36*
X150163522Y-101094539D02*
X150197053Y-101104711D01*
X150227960Y-101121231D01*
X150255043Y-101143457D01*
X150277269Y-101170540D01*
X150293789Y-101201447D01*
X150303961Y-101234978D01*
X150308000Y-101275987D01*
X150308000Y-102305013D01*
X150303961Y-102346022D01*
X150293789Y-102379553D01*
X150277269Y-102410460D01*
X150255043Y-102437543D01*
X150227960Y-102459769D01*
X150197053Y-102476289D01*
X150163522Y-102486461D01*
X150122513Y-102490500D01*
X149343487Y-102490500D01*
X149302478Y-102486461D01*
X149268947Y-102476289D01*
X149238040Y-102459769D01*
X149210957Y-102437543D01*
X149188731Y-102410460D01*
X149172211Y-102379553D01*
X149162039Y-102346022D01*
X149158000Y-102305013D01*
X149158000Y-101275987D01*
X149162039Y-101234978D01*
X149172211Y-101201447D01*
X149188731Y-101170540D01*
X149210957Y-101143457D01*
X149238040Y-101121231D01*
X149268947Y-101104711D01*
X149302478Y-101094539D01*
X149343487Y-101090500D01*
X150122513Y-101090500D01*
X150163522Y-101094539D01*
X150163522Y-101094539D01*
G37*
G36*
X146328122Y-101094539D02*
X146361653Y-101104711D01*
X146392560Y-101121231D01*
X146419643Y-101143457D01*
X146441869Y-101170540D01*
X146458389Y-101201447D01*
X146468561Y-101234978D01*
X146472600Y-101275987D01*
X146472600Y-102305013D01*
X146468561Y-102346022D01*
X146458389Y-102379553D01*
X146441869Y-102410460D01*
X146419643Y-102437543D01*
X146392560Y-102459769D01*
X146361653Y-102476289D01*
X146328122Y-102486461D01*
X146287113Y-102490500D01*
X145508087Y-102490500D01*
X145467078Y-102486461D01*
X145433547Y-102476289D01*
X145402640Y-102459769D01*
X145375557Y-102437543D01*
X145353331Y-102410460D01*
X145336811Y-102379553D01*
X145326639Y-102346022D01*
X145322600Y-102305013D01*
X145322600Y-101275987D01*
X145326639Y-101234978D01*
X145336811Y-101201447D01*
X145353331Y-101170540D01*
X145375557Y-101143457D01*
X145402640Y-101121231D01*
X145433547Y-101104711D01*
X145467078Y-101094539D01*
X145508087Y-101090500D01*
X146287113Y-101090500D01*
X146328122Y-101094539D01*
X146328122Y-101094539D01*
G37*
G36*
X144278122Y-101094539D02*
X144311653Y-101104711D01*
X144342560Y-101121231D01*
X144369643Y-101143457D01*
X144391869Y-101170540D01*
X144408389Y-101201447D01*
X144418561Y-101234978D01*
X144422600Y-101275987D01*
X144422600Y-102305013D01*
X144418561Y-102346022D01*
X144408389Y-102379553D01*
X144391869Y-102410460D01*
X144369643Y-102437543D01*
X144342560Y-102459769D01*
X144311653Y-102476289D01*
X144278122Y-102486461D01*
X144237113Y-102490500D01*
X143458087Y-102490500D01*
X143417078Y-102486461D01*
X143383547Y-102476289D01*
X143352640Y-102459769D01*
X143325557Y-102437543D01*
X143303331Y-102410460D01*
X143286811Y-102379553D01*
X143276639Y-102346022D01*
X143272600Y-102305013D01*
X143272600Y-101275987D01*
X143276639Y-101234978D01*
X143286811Y-101201447D01*
X143303331Y-101170540D01*
X143325557Y-101143457D01*
X143352640Y-101121231D01*
X143383547Y-101104711D01*
X143417078Y-101094539D01*
X143458087Y-101090500D01*
X144237113Y-101090500D01*
X144278122Y-101094539D01*
X144278122Y-101094539D01*
G37*
G36*
X148113522Y-101094539D02*
X148147053Y-101104711D01*
X148177960Y-101121231D01*
X148205043Y-101143457D01*
X148227269Y-101170540D01*
X148243789Y-101201447D01*
X148253961Y-101234978D01*
X148258000Y-101275987D01*
X148258000Y-102305013D01*
X148253961Y-102346022D01*
X148243789Y-102379553D01*
X148227269Y-102410460D01*
X148205043Y-102437543D01*
X148177960Y-102459769D01*
X148147053Y-102476289D01*
X148113522Y-102486461D01*
X148072513Y-102490500D01*
X147293487Y-102490500D01*
X147252478Y-102486461D01*
X147218947Y-102476289D01*
X147188040Y-102459769D01*
X147160957Y-102437543D01*
X147138731Y-102410460D01*
X147122211Y-102379553D01*
X147112039Y-102346022D01*
X147108000Y-102305013D01*
X147108000Y-101275987D01*
X147112039Y-101234978D01*
X147122211Y-101201447D01*
X147138731Y-101170540D01*
X147160957Y-101143457D01*
X147188040Y-101121231D01*
X147218947Y-101104711D01*
X147252478Y-101094539D01*
X147293487Y-101090500D01*
X148072513Y-101090500D01*
X148113522Y-101094539D01*
X148113522Y-101094539D01*
G37*
G36*
X162861522Y-101223239D02*
X162895053Y-101233411D01*
X162925960Y-101249931D01*
X162953043Y-101272157D01*
X162975269Y-101299240D01*
X162991789Y-101330147D01*
X163001961Y-101363678D01*
X163006000Y-101404687D01*
X163006000Y-102183713D01*
X163001961Y-102224722D01*
X162991789Y-102258253D01*
X162975269Y-102289160D01*
X162953043Y-102316243D01*
X162925960Y-102338469D01*
X162895053Y-102354989D01*
X162861522Y-102365161D01*
X162820513Y-102369200D01*
X161791487Y-102369200D01*
X161750478Y-102365161D01*
X161716947Y-102354989D01*
X161686040Y-102338469D01*
X161658957Y-102316243D01*
X161636731Y-102289160D01*
X161620211Y-102258253D01*
X161610039Y-102224722D01*
X161606000Y-102183713D01*
X161606000Y-101404687D01*
X161610039Y-101363678D01*
X161620211Y-101330147D01*
X161636731Y-101299240D01*
X161658957Y-101272157D01*
X161686040Y-101249931D01*
X161716947Y-101233411D01*
X161750478Y-101223239D01*
X161791487Y-101219200D01*
X162820513Y-101219200D01*
X162861522Y-101223239D01*
X162861522Y-101223239D01*
G37*
G36*
X157769800Y-102222100D02*
X156209800Y-102222100D01*
X156209800Y-101572100D01*
X157769800Y-101572100D01*
X157769800Y-102222100D01*
X157769800Y-102222100D01*
G37*
G36*
X160469800Y-102222100D02*
X158909800Y-102222100D01*
X158909800Y-101572100D01*
X160469800Y-101572100D01*
X160469800Y-102222100D01*
X160469800Y-102222100D01*
G37*
G36*
X121493600Y-102103200D02*
X119943600Y-102103200D01*
X119943600Y-101503200D01*
X121493600Y-101503200D01*
X121493600Y-102103200D01*
X121493600Y-102103200D01*
G37*
G36*
X126893600Y-102103200D02*
X125343600Y-102103200D01*
X125343600Y-101503200D01*
X126893600Y-101503200D01*
X126893600Y-102103200D01*
X126893600Y-102103200D01*
G37*
M02*
