G04 #@! TF.GenerationSoftware,KiCad,Pcbnew,(5.0.1)-4*
G04 #@! TF.CreationDate,2019-10-30T18:23:07+01:00*
G04 #@! TF.ProjectId,PCB,5043422E6B696361645F706362000000,rev?*
G04 #@! TF.SameCoordinates,Original*
G04 #@! TF.FileFunction,Paste,Top*
G04 #@! TF.FilePolarity,Positive*
%FSLAX46Y46*%
G04 Gerber Fmt 4.6, Leading zero omitted, Abs format (unit mm)*
G04 Created by KiCad (PCBNEW (5.0.1)-4) date 30/10/2019 18:23:07*
%MOMM*%
%LPD*%
G01*
G04 APERTURE LIST*
%ADD10C,0.100000*%
%ADD11C,1.150000*%
%ADD12C,0.975000*%
%ADD13R,0.400000X1.350000*%
%ADD14R,1.900000X1.900000*%
%ADD15R,2.400000X0.740000*%
%ADD16R,0.450000X1.450000*%
%ADD17R,1.550000X0.600000*%
%ADD18R,1.560000X0.650000*%
G04 APERTURE END LIST*
D10*
G04 #@! TO.C,C1*
G36*
X147025505Y-112940804D02*
X147049773Y-112944404D01*
X147073572Y-112950365D01*
X147096671Y-112958630D01*
X147118850Y-112969120D01*
X147139893Y-112981732D01*
X147159599Y-112996347D01*
X147177777Y-113012823D01*
X147194253Y-113031001D01*
X147208868Y-113050707D01*
X147221480Y-113071750D01*
X147231970Y-113093929D01*
X147240235Y-113117028D01*
X147246196Y-113140827D01*
X147249796Y-113165095D01*
X147251000Y-113189599D01*
X147251000Y-114089601D01*
X147249796Y-114114105D01*
X147246196Y-114138373D01*
X147240235Y-114162172D01*
X147231970Y-114185271D01*
X147221480Y-114207450D01*
X147208868Y-114228493D01*
X147194253Y-114248199D01*
X147177777Y-114266377D01*
X147159599Y-114282853D01*
X147139893Y-114297468D01*
X147118850Y-114310080D01*
X147096671Y-114320570D01*
X147073572Y-114328835D01*
X147049773Y-114334796D01*
X147025505Y-114338396D01*
X147001001Y-114339600D01*
X146350999Y-114339600D01*
X146326495Y-114338396D01*
X146302227Y-114334796D01*
X146278428Y-114328835D01*
X146255329Y-114320570D01*
X146233150Y-114310080D01*
X146212107Y-114297468D01*
X146192401Y-114282853D01*
X146174223Y-114266377D01*
X146157747Y-114248199D01*
X146143132Y-114228493D01*
X146130520Y-114207450D01*
X146120030Y-114185271D01*
X146111765Y-114162172D01*
X146105804Y-114138373D01*
X146102204Y-114114105D01*
X146101000Y-114089601D01*
X146101000Y-113189599D01*
X146102204Y-113165095D01*
X146105804Y-113140827D01*
X146111765Y-113117028D01*
X146120030Y-113093929D01*
X146130520Y-113071750D01*
X146143132Y-113050707D01*
X146157747Y-113031001D01*
X146174223Y-113012823D01*
X146192401Y-112996347D01*
X146212107Y-112981732D01*
X146233150Y-112969120D01*
X146255329Y-112958630D01*
X146278428Y-112950365D01*
X146302227Y-112944404D01*
X146326495Y-112940804D01*
X146350999Y-112939600D01*
X147001001Y-112939600D01*
X147025505Y-112940804D01*
X147025505Y-112940804D01*
G37*
D11*
X146676000Y-113639600D03*
D10*
G36*
X149075505Y-112940804D02*
X149099773Y-112944404D01*
X149123572Y-112950365D01*
X149146671Y-112958630D01*
X149168850Y-112969120D01*
X149189893Y-112981732D01*
X149209599Y-112996347D01*
X149227777Y-113012823D01*
X149244253Y-113031001D01*
X149258868Y-113050707D01*
X149271480Y-113071750D01*
X149281970Y-113093929D01*
X149290235Y-113117028D01*
X149296196Y-113140827D01*
X149299796Y-113165095D01*
X149301000Y-113189599D01*
X149301000Y-114089601D01*
X149299796Y-114114105D01*
X149296196Y-114138373D01*
X149290235Y-114162172D01*
X149281970Y-114185271D01*
X149271480Y-114207450D01*
X149258868Y-114228493D01*
X149244253Y-114248199D01*
X149227777Y-114266377D01*
X149209599Y-114282853D01*
X149189893Y-114297468D01*
X149168850Y-114310080D01*
X149146671Y-114320570D01*
X149123572Y-114328835D01*
X149099773Y-114334796D01*
X149075505Y-114338396D01*
X149051001Y-114339600D01*
X148400999Y-114339600D01*
X148376495Y-114338396D01*
X148352227Y-114334796D01*
X148328428Y-114328835D01*
X148305329Y-114320570D01*
X148283150Y-114310080D01*
X148262107Y-114297468D01*
X148242401Y-114282853D01*
X148224223Y-114266377D01*
X148207747Y-114248199D01*
X148193132Y-114228493D01*
X148180520Y-114207450D01*
X148170030Y-114185271D01*
X148161765Y-114162172D01*
X148155804Y-114138373D01*
X148152204Y-114114105D01*
X148151000Y-114089601D01*
X148151000Y-113189599D01*
X148152204Y-113165095D01*
X148155804Y-113140827D01*
X148161765Y-113117028D01*
X148170030Y-113093929D01*
X148180520Y-113071750D01*
X148193132Y-113050707D01*
X148207747Y-113031001D01*
X148224223Y-113012823D01*
X148242401Y-112996347D01*
X148262107Y-112981732D01*
X148283150Y-112969120D01*
X148305329Y-112958630D01*
X148328428Y-112950365D01*
X148352227Y-112944404D01*
X148376495Y-112940804D01*
X148400999Y-112939600D01*
X149051001Y-112939600D01*
X149075505Y-112940804D01*
X149075505Y-112940804D01*
G37*
D11*
X148726000Y-113639600D03*
G04 #@! TD*
D10*
G04 #@! TO.C,C2*
G36*
X154835942Y-101532774D02*
X154859603Y-101536284D01*
X154882807Y-101542096D01*
X154905329Y-101550154D01*
X154926953Y-101560382D01*
X154947470Y-101572679D01*
X154966683Y-101586929D01*
X154984407Y-101602993D01*
X155000471Y-101620717D01*
X155014721Y-101639930D01*
X155027018Y-101660447D01*
X155037246Y-101682071D01*
X155045304Y-101704593D01*
X155051116Y-101727797D01*
X155054626Y-101751458D01*
X155055800Y-101775350D01*
X155055800Y-102262850D01*
X155054626Y-102286742D01*
X155051116Y-102310403D01*
X155045304Y-102333607D01*
X155037246Y-102356129D01*
X155027018Y-102377753D01*
X155014721Y-102398270D01*
X155000471Y-102417483D01*
X154984407Y-102435207D01*
X154966683Y-102451271D01*
X154947470Y-102465521D01*
X154926953Y-102477818D01*
X154905329Y-102488046D01*
X154882807Y-102496104D01*
X154859603Y-102501916D01*
X154835942Y-102505426D01*
X154812050Y-102506600D01*
X153899550Y-102506600D01*
X153875658Y-102505426D01*
X153851997Y-102501916D01*
X153828793Y-102496104D01*
X153806271Y-102488046D01*
X153784647Y-102477818D01*
X153764130Y-102465521D01*
X153744917Y-102451271D01*
X153727193Y-102435207D01*
X153711129Y-102417483D01*
X153696879Y-102398270D01*
X153684582Y-102377753D01*
X153674354Y-102356129D01*
X153666296Y-102333607D01*
X153660484Y-102310403D01*
X153656974Y-102286742D01*
X153655800Y-102262850D01*
X153655800Y-101775350D01*
X153656974Y-101751458D01*
X153660484Y-101727797D01*
X153666296Y-101704593D01*
X153674354Y-101682071D01*
X153684582Y-101660447D01*
X153696879Y-101639930D01*
X153711129Y-101620717D01*
X153727193Y-101602993D01*
X153744917Y-101586929D01*
X153764130Y-101572679D01*
X153784647Y-101560382D01*
X153806271Y-101550154D01*
X153828793Y-101542096D01*
X153851997Y-101536284D01*
X153875658Y-101532774D01*
X153899550Y-101531600D01*
X154812050Y-101531600D01*
X154835942Y-101532774D01*
X154835942Y-101532774D01*
G37*
D12*
X154355800Y-102019100D03*
D10*
G36*
X154835942Y-103407774D02*
X154859603Y-103411284D01*
X154882807Y-103417096D01*
X154905329Y-103425154D01*
X154926953Y-103435382D01*
X154947470Y-103447679D01*
X154966683Y-103461929D01*
X154984407Y-103477993D01*
X155000471Y-103495717D01*
X155014721Y-103514930D01*
X155027018Y-103535447D01*
X155037246Y-103557071D01*
X155045304Y-103579593D01*
X155051116Y-103602797D01*
X155054626Y-103626458D01*
X155055800Y-103650350D01*
X155055800Y-104137850D01*
X155054626Y-104161742D01*
X155051116Y-104185403D01*
X155045304Y-104208607D01*
X155037246Y-104231129D01*
X155027018Y-104252753D01*
X155014721Y-104273270D01*
X155000471Y-104292483D01*
X154984407Y-104310207D01*
X154966683Y-104326271D01*
X154947470Y-104340521D01*
X154926953Y-104352818D01*
X154905329Y-104363046D01*
X154882807Y-104371104D01*
X154859603Y-104376916D01*
X154835942Y-104380426D01*
X154812050Y-104381600D01*
X153899550Y-104381600D01*
X153875658Y-104380426D01*
X153851997Y-104376916D01*
X153828793Y-104371104D01*
X153806271Y-104363046D01*
X153784647Y-104352818D01*
X153764130Y-104340521D01*
X153744917Y-104326271D01*
X153727193Y-104310207D01*
X153711129Y-104292483D01*
X153696879Y-104273270D01*
X153684582Y-104252753D01*
X153674354Y-104231129D01*
X153666296Y-104208607D01*
X153660484Y-104185403D01*
X153656974Y-104161742D01*
X153655800Y-104137850D01*
X153655800Y-103650350D01*
X153656974Y-103626458D01*
X153660484Y-103602797D01*
X153666296Y-103579593D01*
X153674354Y-103557071D01*
X153684582Y-103535447D01*
X153696879Y-103514930D01*
X153711129Y-103495717D01*
X153727193Y-103477993D01*
X153744917Y-103461929D01*
X153764130Y-103447679D01*
X153784647Y-103435382D01*
X153806271Y-103425154D01*
X153828793Y-103417096D01*
X153851997Y-103411284D01*
X153875658Y-103407774D01*
X153899550Y-103406600D01*
X154812050Y-103406600D01*
X154835942Y-103407774D01*
X154835942Y-103407774D01*
G37*
D12*
X154355800Y-103894100D03*
G04 #@! TD*
D10*
G04 #@! TO.C,C3*
G36*
X171574542Y-113310274D02*
X171598203Y-113313784D01*
X171621407Y-113319596D01*
X171643929Y-113327654D01*
X171665553Y-113337882D01*
X171686070Y-113350179D01*
X171705283Y-113364429D01*
X171723007Y-113380493D01*
X171739071Y-113398217D01*
X171753321Y-113417430D01*
X171765618Y-113437947D01*
X171775846Y-113459571D01*
X171783904Y-113482093D01*
X171789716Y-113505297D01*
X171793226Y-113528958D01*
X171794400Y-113552850D01*
X171794400Y-114040350D01*
X171793226Y-114064242D01*
X171789716Y-114087903D01*
X171783904Y-114111107D01*
X171775846Y-114133629D01*
X171765618Y-114155253D01*
X171753321Y-114175770D01*
X171739071Y-114194983D01*
X171723007Y-114212707D01*
X171705283Y-114228771D01*
X171686070Y-114243021D01*
X171665553Y-114255318D01*
X171643929Y-114265546D01*
X171621407Y-114273604D01*
X171598203Y-114279416D01*
X171574542Y-114282926D01*
X171550650Y-114284100D01*
X170638150Y-114284100D01*
X170614258Y-114282926D01*
X170590597Y-114279416D01*
X170567393Y-114273604D01*
X170544871Y-114265546D01*
X170523247Y-114255318D01*
X170502730Y-114243021D01*
X170483517Y-114228771D01*
X170465793Y-114212707D01*
X170449729Y-114194983D01*
X170435479Y-114175770D01*
X170423182Y-114155253D01*
X170412954Y-114133629D01*
X170404896Y-114111107D01*
X170399084Y-114087903D01*
X170395574Y-114064242D01*
X170394400Y-114040350D01*
X170394400Y-113552850D01*
X170395574Y-113528958D01*
X170399084Y-113505297D01*
X170404896Y-113482093D01*
X170412954Y-113459571D01*
X170423182Y-113437947D01*
X170435479Y-113417430D01*
X170449729Y-113398217D01*
X170465793Y-113380493D01*
X170483517Y-113364429D01*
X170502730Y-113350179D01*
X170523247Y-113337882D01*
X170544871Y-113327654D01*
X170567393Y-113319596D01*
X170590597Y-113313784D01*
X170614258Y-113310274D01*
X170638150Y-113309100D01*
X171550650Y-113309100D01*
X171574542Y-113310274D01*
X171574542Y-113310274D01*
G37*
D12*
X171094400Y-113796600D03*
D10*
G36*
X171574542Y-115185274D02*
X171598203Y-115188784D01*
X171621407Y-115194596D01*
X171643929Y-115202654D01*
X171665553Y-115212882D01*
X171686070Y-115225179D01*
X171705283Y-115239429D01*
X171723007Y-115255493D01*
X171739071Y-115273217D01*
X171753321Y-115292430D01*
X171765618Y-115312947D01*
X171775846Y-115334571D01*
X171783904Y-115357093D01*
X171789716Y-115380297D01*
X171793226Y-115403958D01*
X171794400Y-115427850D01*
X171794400Y-115915350D01*
X171793226Y-115939242D01*
X171789716Y-115962903D01*
X171783904Y-115986107D01*
X171775846Y-116008629D01*
X171765618Y-116030253D01*
X171753321Y-116050770D01*
X171739071Y-116069983D01*
X171723007Y-116087707D01*
X171705283Y-116103771D01*
X171686070Y-116118021D01*
X171665553Y-116130318D01*
X171643929Y-116140546D01*
X171621407Y-116148604D01*
X171598203Y-116154416D01*
X171574542Y-116157926D01*
X171550650Y-116159100D01*
X170638150Y-116159100D01*
X170614258Y-116157926D01*
X170590597Y-116154416D01*
X170567393Y-116148604D01*
X170544871Y-116140546D01*
X170523247Y-116130318D01*
X170502730Y-116118021D01*
X170483517Y-116103771D01*
X170465793Y-116087707D01*
X170449729Y-116069983D01*
X170435479Y-116050770D01*
X170423182Y-116030253D01*
X170412954Y-116008629D01*
X170404896Y-115986107D01*
X170399084Y-115962903D01*
X170395574Y-115939242D01*
X170394400Y-115915350D01*
X170394400Y-115427850D01*
X170395574Y-115403958D01*
X170399084Y-115380297D01*
X170404896Y-115357093D01*
X170412954Y-115334571D01*
X170423182Y-115312947D01*
X170435479Y-115292430D01*
X170449729Y-115273217D01*
X170465793Y-115255493D01*
X170483517Y-115239429D01*
X170502730Y-115225179D01*
X170523247Y-115212882D01*
X170544871Y-115202654D01*
X170567393Y-115194596D01*
X170590597Y-115188784D01*
X170614258Y-115185274D01*
X170638150Y-115184100D01*
X171550650Y-115184100D01*
X171574542Y-115185274D01*
X171574542Y-115185274D01*
G37*
D12*
X171094400Y-115671600D03*
G04 #@! TD*
D10*
G04 #@! TO.C,C4*
G36*
X116329542Y-108729074D02*
X116353203Y-108732584D01*
X116376407Y-108738396D01*
X116398929Y-108746454D01*
X116420553Y-108756682D01*
X116441070Y-108768979D01*
X116460283Y-108783229D01*
X116478007Y-108799293D01*
X116494071Y-108817017D01*
X116508321Y-108836230D01*
X116520618Y-108856747D01*
X116530846Y-108878371D01*
X116538904Y-108900893D01*
X116544716Y-108924097D01*
X116548226Y-108947758D01*
X116549400Y-108971650D01*
X116549400Y-109459150D01*
X116548226Y-109483042D01*
X116544716Y-109506703D01*
X116538904Y-109529907D01*
X116530846Y-109552429D01*
X116520618Y-109574053D01*
X116508321Y-109594570D01*
X116494071Y-109613783D01*
X116478007Y-109631507D01*
X116460283Y-109647571D01*
X116441070Y-109661821D01*
X116420553Y-109674118D01*
X116398929Y-109684346D01*
X116376407Y-109692404D01*
X116353203Y-109698216D01*
X116329542Y-109701726D01*
X116305650Y-109702900D01*
X115393150Y-109702900D01*
X115369258Y-109701726D01*
X115345597Y-109698216D01*
X115322393Y-109692404D01*
X115299871Y-109684346D01*
X115278247Y-109674118D01*
X115257730Y-109661821D01*
X115238517Y-109647571D01*
X115220793Y-109631507D01*
X115204729Y-109613783D01*
X115190479Y-109594570D01*
X115178182Y-109574053D01*
X115167954Y-109552429D01*
X115159896Y-109529907D01*
X115154084Y-109506703D01*
X115150574Y-109483042D01*
X115149400Y-109459150D01*
X115149400Y-108971650D01*
X115150574Y-108947758D01*
X115154084Y-108924097D01*
X115159896Y-108900893D01*
X115167954Y-108878371D01*
X115178182Y-108856747D01*
X115190479Y-108836230D01*
X115204729Y-108817017D01*
X115220793Y-108799293D01*
X115238517Y-108783229D01*
X115257730Y-108768979D01*
X115278247Y-108756682D01*
X115299871Y-108746454D01*
X115322393Y-108738396D01*
X115345597Y-108732584D01*
X115369258Y-108729074D01*
X115393150Y-108727900D01*
X116305650Y-108727900D01*
X116329542Y-108729074D01*
X116329542Y-108729074D01*
G37*
D12*
X115849400Y-109215400D03*
D10*
G36*
X116329542Y-106854074D02*
X116353203Y-106857584D01*
X116376407Y-106863396D01*
X116398929Y-106871454D01*
X116420553Y-106881682D01*
X116441070Y-106893979D01*
X116460283Y-106908229D01*
X116478007Y-106924293D01*
X116494071Y-106942017D01*
X116508321Y-106961230D01*
X116520618Y-106981747D01*
X116530846Y-107003371D01*
X116538904Y-107025893D01*
X116544716Y-107049097D01*
X116548226Y-107072758D01*
X116549400Y-107096650D01*
X116549400Y-107584150D01*
X116548226Y-107608042D01*
X116544716Y-107631703D01*
X116538904Y-107654907D01*
X116530846Y-107677429D01*
X116520618Y-107699053D01*
X116508321Y-107719570D01*
X116494071Y-107738783D01*
X116478007Y-107756507D01*
X116460283Y-107772571D01*
X116441070Y-107786821D01*
X116420553Y-107799118D01*
X116398929Y-107809346D01*
X116376407Y-107817404D01*
X116353203Y-107823216D01*
X116329542Y-107826726D01*
X116305650Y-107827900D01*
X115393150Y-107827900D01*
X115369258Y-107826726D01*
X115345597Y-107823216D01*
X115322393Y-107817404D01*
X115299871Y-107809346D01*
X115278247Y-107799118D01*
X115257730Y-107786821D01*
X115238517Y-107772571D01*
X115220793Y-107756507D01*
X115204729Y-107738783D01*
X115190479Y-107719570D01*
X115178182Y-107699053D01*
X115167954Y-107677429D01*
X115159896Y-107654907D01*
X115154084Y-107631703D01*
X115150574Y-107608042D01*
X115149400Y-107584150D01*
X115149400Y-107096650D01*
X115150574Y-107072758D01*
X115154084Y-107049097D01*
X115159896Y-107025893D01*
X115167954Y-107003371D01*
X115178182Y-106981747D01*
X115190479Y-106961230D01*
X115204729Y-106942017D01*
X115220793Y-106924293D01*
X115238517Y-106908229D01*
X115257730Y-106893979D01*
X115278247Y-106881682D01*
X115299871Y-106871454D01*
X115322393Y-106863396D01*
X115345597Y-106857584D01*
X115369258Y-106854074D01*
X115393150Y-106852900D01*
X116305650Y-106852900D01*
X116329542Y-106854074D01*
X116329542Y-106854074D01*
G37*
D12*
X115849400Y-107340400D03*
G04 #@! TD*
D10*
G04 #@! TO.C,D1*
G36*
X146196305Y-103072904D02*
X146220573Y-103076504D01*
X146244372Y-103082465D01*
X146267471Y-103090730D01*
X146289650Y-103101220D01*
X146310693Y-103113832D01*
X146330399Y-103128447D01*
X146348577Y-103144923D01*
X146365053Y-103163101D01*
X146379668Y-103182807D01*
X146392280Y-103203850D01*
X146402770Y-103226029D01*
X146411035Y-103249128D01*
X146416996Y-103272927D01*
X146420596Y-103297195D01*
X146421800Y-103321699D01*
X146421800Y-104221701D01*
X146420596Y-104246205D01*
X146416996Y-104270473D01*
X146411035Y-104294272D01*
X146402770Y-104317371D01*
X146392280Y-104339550D01*
X146379668Y-104360593D01*
X146365053Y-104380299D01*
X146348577Y-104398477D01*
X146330399Y-104414953D01*
X146310693Y-104429568D01*
X146289650Y-104442180D01*
X146267471Y-104452670D01*
X146244372Y-104460935D01*
X146220573Y-104466896D01*
X146196305Y-104470496D01*
X146171801Y-104471700D01*
X145521799Y-104471700D01*
X145497295Y-104470496D01*
X145473027Y-104466896D01*
X145449228Y-104460935D01*
X145426129Y-104452670D01*
X145403950Y-104442180D01*
X145382907Y-104429568D01*
X145363201Y-104414953D01*
X145345023Y-104398477D01*
X145328547Y-104380299D01*
X145313932Y-104360593D01*
X145301320Y-104339550D01*
X145290830Y-104317371D01*
X145282565Y-104294272D01*
X145276604Y-104270473D01*
X145273004Y-104246205D01*
X145271800Y-104221701D01*
X145271800Y-103321699D01*
X145273004Y-103297195D01*
X145276604Y-103272927D01*
X145282565Y-103249128D01*
X145290830Y-103226029D01*
X145301320Y-103203850D01*
X145313932Y-103182807D01*
X145328547Y-103163101D01*
X145345023Y-103144923D01*
X145363201Y-103128447D01*
X145382907Y-103113832D01*
X145403950Y-103101220D01*
X145426129Y-103090730D01*
X145449228Y-103082465D01*
X145473027Y-103076504D01*
X145497295Y-103072904D01*
X145521799Y-103071700D01*
X146171801Y-103071700D01*
X146196305Y-103072904D01*
X146196305Y-103072904D01*
G37*
D11*
X145846800Y-103771700D03*
D10*
G36*
X144146305Y-103072904D02*
X144170573Y-103076504D01*
X144194372Y-103082465D01*
X144217471Y-103090730D01*
X144239650Y-103101220D01*
X144260693Y-103113832D01*
X144280399Y-103128447D01*
X144298577Y-103144923D01*
X144315053Y-103163101D01*
X144329668Y-103182807D01*
X144342280Y-103203850D01*
X144352770Y-103226029D01*
X144361035Y-103249128D01*
X144366996Y-103272927D01*
X144370596Y-103297195D01*
X144371800Y-103321699D01*
X144371800Y-104221701D01*
X144370596Y-104246205D01*
X144366996Y-104270473D01*
X144361035Y-104294272D01*
X144352770Y-104317371D01*
X144342280Y-104339550D01*
X144329668Y-104360593D01*
X144315053Y-104380299D01*
X144298577Y-104398477D01*
X144280399Y-104414953D01*
X144260693Y-104429568D01*
X144239650Y-104442180D01*
X144217471Y-104452670D01*
X144194372Y-104460935D01*
X144170573Y-104466896D01*
X144146305Y-104470496D01*
X144121801Y-104471700D01*
X143471799Y-104471700D01*
X143447295Y-104470496D01*
X143423027Y-104466896D01*
X143399228Y-104460935D01*
X143376129Y-104452670D01*
X143353950Y-104442180D01*
X143332907Y-104429568D01*
X143313201Y-104414953D01*
X143295023Y-104398477D01*
X143278547Y-104380299D01*
X143263932Y-104360593D01*
X143251320Y-104339550D01*
X143240830Y-104317371D01*
X143232565Y-104294272D01*
X143226604Y-104270473D01*
X143223004Y-104246205D01*
X143221800Y-104221701D01*
X143221800Y-103321699D01*
X143223004Y-103297195D01*
X143226604Y-103272927D01*
X143232565Y-103249128D01*
X143240830Y-103226029D01*
X143251320Y-103203850D01*
X143263932Y-103182807D01*
X143278547Y-103163101D01*
X143295023Y-103144923D01*
X143313201Y-103128447D01*
X143332907Y-103113832D01*
X143353950Y-103101220D01*
X143376129Y-103090730D01*
X143399228Y-103082465D01*
X143423027Y-103076504D01*
X143447295Y-103072904D01*
X143471799Y-103071700D01*
X144121801Y-103071700D01*
X144146305Y-103072904D01*
X144146305Y-103072904D01*
G37*
D11*
X143796800Y-103771700D03*
G04 #@! TD*
D10*
G04 #@! TO.C,D2*
G36*
X144197105Y-101091704D02*
X144221373Y-101095304D01*
X144245172Y-101101265D01*
X144268271Y-101109530D01*
X144290450Y-101120020D01*
X144311493Y-101132632D01*
X144331199Y-101147247D01*
X144349377Y-101163723D01*
X144365853Y-101181901D01*
X144380468Y-101201607D01*
X144393080Y-101222650D01*
X144403570Y-101244829D01*
X144411835Y-101267928D01*
X144417796Y-101291727D01*
X144421396Y-101315995D01*
X144422600Y-101340499D01*
X144422600Y-102240501D01*
X144421396Y-102265005D01*
X144417796Y-102289273D01*
X144411835Y-102313072D01*
X144403570Y-102336171D01*
X144393080Y-102358350D01*
X144380468Y-102379393D01*
X144365853Y-102399099D01*
X144349377Y-102417277D01*
X144331199Y-102433753D01*
X144311493Y-102448368D01*
X144290450Y-102460980D01*
X144268271Y-102471470D01*
X144245172Y-102479735D01*
X144221373Y-102485696D01*
X144197105Y-102489296D01*
X144172601Y-102490500D01*
X143522599Y-102490500D01*
X143498095Y-102489296D01*
X143473827Y-102485696D01*
X143450028Y-102479735D01*
X143426929Y-102471470D01*
X143404750Y-102460980D01*
X143383707Y-102448368D01*
X143364001Y-102433753D01*
X143345823Y-102417277D01*
X143329347Y-102399099D01*
X143314732Y-102379393D01*
X143302120Y-102358350D01*
X143291630Y-102336171D01*
X143283365Y-102313072D01*
X143277404Y-102289273D01*
X143273804Y-102265005D01*
X143272600Y-102240501D01*
X143272600Y-101340499D01*
X143273804Y-101315995D01*
X143277404Y-101291727D01*
X143283365Y-101267928D01*
X143291630Y-101244829D01*
X143302120Y-101222650D01*
X143314732Y-101201607D01*
X143329347Y-101181901D01*
X143345823Y-101163723D01*
X143364001Y-101147247D01*
X143383707Y-101132632D01*
X143404750Y-101120020D01*
X143426929Y-101109530D01*
X143450028Y-101101265D01*
X143473827Y-101095304D01*
X143498095Y-101091704D01*
X143522599Y-101090500D01*
X144172601Y-101090500D01*
X144197105Y-101091704D01*
X144197105Y-101091704D01*
G37*
D11*
X143847600Y-101790500D03*
D10*
G36*
X146247105Y-101091704D02*
X146271373Y-101095304D01*
X146295172Y-101101265D01*
X146318271Y-101109530D01*
X146340450Y-101120020D01*
X146361493Y-101132632D01*
X146381199Y-101147247D01*
X146399377Y-101163723D01*
X146415853Y-101181901D01*
X146430468Y-101201607D01*
X146443080Y-101222650D01*
X146453570Y-101244829D01*
X146461835Y-101267928D01*
X146467796Y-101291727D01*
X146471396Y-101315995D01*
X146472600Y-101340499D01*
X146472600Y-102240501D01*
X146471396Y-102265005D01*
X146467796Y-102289273D01*
X146461835Y-102313072D01*
X146453570Y-102336171D01*
X146443080Y-102358350D01*
X146430468Y-102379393D01*
X146415853Y-102399099D01*
X146399377Y-102417277D01*
X146381199Y-102433753D01*
X146361493Y-102448368D01*
X146340450Y-102460980D01*
X146318271Y-102471470D01*
X146295172Y-102479735D01*
X146271373Y-102485696D01*
X146247105Y-102489296D01*
X146222601Y-102490500D01*
X145572599Y-102490500D01*
X145548095Y-102489296D01*
X145523827Y-102485696D01*
X145500028Y-102479735D01*
X145476929Y-102471470D01*
X145454750Y-102460980D01*
X145433707Y-102448368D01*
X145414001Y-102433753D01*
X145395823Y-102417277D01*
X145379347Y-102399099D01*
X145364732Y-102379393D01*
X145352120Y-102358350D01*
X145341630Y-102336171D01*
X145333365Y-102313072D01*
X145327404Y-102289273D01*
X145323804Y-102265005D01*
X145322600Y-102240501D01*
X145322600Y-101340499D01*
X145323804Y-101315995D01*
X145327404Y-101291727D01*
X145333365Y-101267928D01*
X145341630Y-101244829D01*
X145352120Y-101222650D01*
X145364732Y-101201607D01*
X145379347Y-101181901D01*
X145395823Y-101163723D01*
X145414001Y-101147247D01*
X145433707Y-101132632D01*
X145454750Y-101120020D01*
X145476929Y-101109530D01*
X145500028Y-101101265D01*
X145523827Y-101095304D01*
X145548095Y-101091704D01*
X145572599Y-101090500D01*
X146222601Y-101090500D01*
X146247105Y-101091704D01*
X146247105Y-101091704D01*
G37*
D11*
X145897600Y-101790500D03*
G04 #@! TD*
D13*
G04 #@! TO.C,J1*
X148924800Y-115816000D03*
X148274800Y-115816000D03*
X146324800Y-115816000D03*
X146974800Y-115816000D03*
X147624800Y-115816000D03*
D14*
X143674800Y-118491000D03*
X151574800Y-118491000D03*
G04 #@! TD*
D15*
G04 #@! TO.C,J2*
X132461000Y-113131600D03*
X136361000Y-113131600D03*
X132461000Y-114401600D03*
X136361000Y-114401600D03*
X132461000Y-115671600D03*
X136361000Y-115671600D03*
G04 #@! TD*
D16*
G04 #@! TO.C,Q1*
X172913400Y-108690200D03*
X173563400Y-108690200D03*
X174213400Y-108690200D03*
X174863400Y-108690200D03*
X174863400Y-102790200D03*
X174213400Y-102790200D03*
X173563400Y-102790200D03*
X172913400Y-102790200D03*
G04 #@! TD*
D10*
G04 #@! TO.C,R1*
G36*
X148028805Y-103060204D02*
X148053073Y-103063804D01*
X148076872Y-103069765D01*
X148099971Y-103078030D01*
X148122150Y-103088520D01*
X148143193Y-103101132D01*
X148162899Y-103115747D01*
X148181077Y-103132223D01*
X148197553Y-103150401D01*
X148212168Y-103170107D01*
X148224780Y-103191150D01*
X148235270Y-103213329D01*
X148243535Y-103236428D01*
X148249496Y-103260227D01*
X148253096Y-103284495D01*
X148254300Y-103308999D01*
X148254300Y-104209001D01*
X148253096Y-104233505D01*
X148249496Y-104257773D01*
X148243535Y-104281572D01*
X148235270Y-104304671D01*
X148224780Y-104326850D01*
X148212168Y-104347893D01*
X148197553Y-104367599D01*
X148181077Y-104385777D01*
X148162899Y-104402253D01*
X148143193Y-104416868D01*
X148122150Y-104429480D01*
X148099971Y-104439970D01*
X148076872Y-104448235D01*
X148053073Y-104454196D01*
X148028805Y-104457796D01*
X148004301Y-104459000D01*
X147354299Y-104459000D01*
X147329795Y-104457796D01*
X147305527Y-104454196D01*
X147281728Y-104448235D01*
X147258629Y-104439970D01*
X147236450Y-104429480D01*
X147215407Y-104416868D01*
X147195701Y-104402253D01*
X147177523Y-104385777D01*
X147161047Y-104367599D01*
X147146432Y-104347893D01*
X147133820Y-104326850D01*
X147123330Y-104304671D01*
X147115065Y-104281572D01*
X147109104Y-104257773D01*
X147105504Y-104233505D01*
X147104300Y-104209001D01*
X147104300Y-103308999D01*
X147105504Y-103284495D01*
X147109104Y-103260227D01*
X147115065Y-103236428D01*
X147123330Y-103213329D01*
X147133820Y-103191150D01*
X147146432Y-103170107D01*
X147161047Y-103150401D01*
X147177523Y-103132223D01*
X147195701Y-103115747D01*
X147215407Y-103101132D01*
X147236450Y-103088520D01*
X147258629Y-103078030D01*
X147281728Y-103069765D01*
X147305527Y-103063804D01*
X147329795Y-103060204D01*
X147354299Y-103059000D01*
X148004301Y-103059000D01*
X148028805Y-103060204D01*
X148028805Y-103060204D01*
G37*
D11*
X147679300Y-103759000D03*
D10*
G36*
X150078805Y-103060204D02*
X150103073Y-103063804D01*
X150126872Y-103069765D01*
X150149971Y-103078030D01*
X150172150Y-103088520D01*
X150193193Y-103101132D01*
X150212899Y-103115747D01*
X150231077Y-103132223D01*
X150247553Y-103150401D01*
X150262168Y-103170107D01*
X150274780Y-103191150D01*
X150285270Y-103213329D01*
X150293535Y-103236428D01*
X150299496Y-103260227D01*
X150303096Y-103284495D01*
X150304300Y-103308999D01*
X150304300Y-104209001D01*
X150303096Y-104233505D01*
X150299496Y-104257773D01*
X150293535Y-104281572D01*
X150285270Y-104304671D01*
X150274780Y-104326850D01*
X150262168Y-104347893D01*
X150247553Y-104367599D01*
X150231077Y-104385777D01*
X150212899Y-104402253D01*
X150193193Y-104416868D01*
X150172150Y-104429480D01*
X150149971Y-104439970D01*
X150126872Y-104448235D01*
X150103073Y-104454196D01*
X150078805Y-104457796D01*
X150054301Y-104459000D01*
X149404299Y-104459000D01*
X149379795Y-104457796D01*
X149355527Y-104454196D01*
X149331728Y-104448235D01*
X149308629Y-104439970D01*
X149286450Y-104429480D01*
X149265407Y-104416868D01*
X149245701Y-104402253D01*
X149227523Y-104385777D01*
X149211047Y-104367599D01*
X149196432Y-104347893D01*
X149183820Y-104326850D01*
X149173330Y-104304671D01*
X149165065Y-104281572D01*
X149159104Y-104257773D01*
X149155504Y-104233505D01*
X149154300Y-104209001D01*
X149154300Y-103308999D01*
X149155504Y-103284495D01*
X149159104Y-103260227D01*
X149165065Y-103236428D01*
X149173330Y-103213329D01*
X149183820Y-103191150D01*
X149196432Y-103170107D01*
X149211047Y-103150401D01*
X149227523Y-103132223D01*
X149245701Y-103115747D01*
X149265407Y-103101132D01*
X149286450Y-103088520D01*
X149308629Y-103078030D01*
X149331728Y-103069765D01*
X149355527Y-103063804D01*
X149379795Y-103060204D01*
X149404299Y-103059000D01*
X150054301Y-103059000D01*
X150078805Y-103060204D01*
X150078805Y-103060204D01*
G37*
D11*
X149729300Y-103759000D03*
G04 #@! TD*
D10*
G04 #@! TO.C,R2*
G36*
X155147805Y-112100604D02*
X155172073Y-112104204D01*
X155195872Y-112110165D01*
X155218971Y-112118430D01*
X155241150Y-112128920D01*
X155262193Y-112141532D01*
X155281899Y-112156147D01*
X155300077Y-112172623D01*
X155316553Y-112190801D01*
X155331168Y-112210507D01*
X155343780Y-112231550D01*
X155354270Y-112253729D01*
X155362535Y-112276828D01*
X155368496Y-112300627D01*
X155372096Y-112324895D01*
X155373300Y-112349399D01*
X155373300Y-112999401D01*
X155372096Y-113023905D01*
X155368496Y-113048173D01*
X155362535Y-113071972D01*
X155354270Y-113095071D01*
X155343780Y-113117250D01*
X155331168Y-113138293D01*
X155316553Y-113157999D01*
X155300077Y-113176177D01*
X155281899Y-113192653D01*
X155262193Y-113207268D01*
X155241150Y-113219880D01*
X155218971Y-113230370D01*
X155195872Y-113238635D01*
X155172073Y-113244596D01*
X155147805Y-113248196D01*
X155123301Y-113249400D01*
X154223299Y-113249400D01*
X154198795Y-113248196D01*
X154174527Y-113244596D01*
X154150728Y-113238635D01*
X154127629Y-113230370D01*
X154105450Y-113219880D01*
X154084407Y-113207268D01*
X154064701Y-113192653D01*
X154046523Y-113176177D01*
X154030047Y-113157999D01*
X154015432Y-113138293D01*
X154002820Y-113117250D01*
X153992330Y-113095071D01*
X153984065Y-113071972D01*
X153978104Y-113048173D01*
X153974504Y-113023905D01*
X153973300Y-112999401D01*
X153973300Y-112349399D01*
X153974504Y-112324895D01*
X153978104Y-112300627D01*
X153984065Y-112276828D01*
X153992330Y-112253729D01*
X154002820Y-112231550D01*
X154015432Y-112210507D01*
X154030047Y-112190801D01*
X154046523Y-112172623D01*
X154064701Y-112156147D01*
X154084407Y-112141532D01*
X154105450Y-112128920D01*
X154127629Y-112118430D01*
X154150728Y-112110165D01*
X154174527Y-112104204D01*
X154198795Y-112100604D01*
X154223299Y-112099400D01*
X155123301Y-112099400D01*
X155147805Y-112100604D01*
X155147805Y-112100604D01*
G37*
D11*
X154673300Y-112674400D03*
D10*
G36*
X155147805Y-110050604D02*
X155172073Y-110054204D01*
X155195872Y-110060165D01*
X155218971Y-110068430D01*
X155241150Y-110078920D01*
X155262193Y-110091532D01*
X155281899Y-110106147D01*
X155300077Y-110122623D01*
X155316553Y-110140801D01*
X155331168Y-110160507D01*
X155343780Y-110181550D01*
X155354270Y-110203729D01*
X155362535Y-110226828D01*
X155368496Y-110250627D01*
X155372096Y-110274895D01*
X155373300Y-110299399D01*
X155373300Y-110949401D01*
X155372096Y-110973905D01*
X155368496Y-110998173D01*
X155362535Y-111021972D01*
X155354270Y-111045071D01*
X155343780Y-111067250D01*
X155331168Y-111088293D01*
X155316553Y-111107999D01*
X155300077Y-111126177D01*
X155281899Y-111142653D01*
X155262193Y-111157268D01*
X155241150Y-111169880D01*
X155218971Y-111180370D01*
X155195872Y-111188635D01*
X155172073Y-111194596D01*
X155147805Y-111198196D01*
X155123301Y-111199400D01*
X154223299Y-111199400D01*
X154198795Y-111198196D01*
X154174527Y-111194596D01*
X154150728Y-111188635D01*
X154127629Y-111180370D01*
X154105450Y-111169880D01*
X154084407Y-111157268D01*
X154064701Y-111142653D01*
X154046523Y-111126177D01*
X154030047Y-111107999D01*
X154015432Y-111088293D01*
X154002820Y-111067250D01*
X153992330Y-111045071D01*
X153984065Y-111021972D01*
X153978104Y-110998173D01*
X153974504Y-110973905D01*
X153973300Y-110949401D01*
X153973300Y-110299399D01*
X153974504Y-110274895D01*
X153978104Y-110250627D01*
X153984065Y-110226828D01*
X153992330Y-110203729D01*
X154002820Y-110181550D01*
X154015432Y-110160507D01*
X154030047Y-110140801D01*
X154046523Y-110122623D01*
X154064701Y-110106147D01*
X154084407Y-110091532D01*
X154105450Y-110078920D01*
X154127629Y-110068430D01*
X154150728Y-110060165D01*
X154174527Y-110054204D01*
X154198795Y-110050604D01*
X154223299Y-110049400D01*
X155123301Y-110049400D01*
X155147805Y-110050604D01*
X155147805Y-110050604D01*
G37*
D11*
X154673300Y-110624400D03*
G04 #@! TD*
D10*
G04 #@! TO.C,R3*
G36*
X148032505Y-101091704D02*
X148056773Y-101095304D01*
X148080572Y-101101265D01*
X148103671Y-101109530D01*
X148125850Y-101120020D01*
X148146893Y-101132632D01*
X148166599Y-101147247D01*
X148184777Y-101163723D01*
X148201253Y-101181901D01*
X148215868Y-101201607D01*
X148228480Y-101222650D01*
X148238970Y-101244829D01*
X148247235Y-101267928D01*
X148253196Y-101291727D01*
X148256796Y-101315995D01*
X148258000Y-101340499D01*
X148258000Y-102240501D01*
X148256796Y-102265005D01*
X148253196Y-102289273D01*
X148247235Y-102313072D01*
X148238970Y-102336171D01*
X148228480Y-102358350D01*
X148215868Y-102379393D01*
X148201253Y-102399099D01*
X148184777Y-102417277D01*
X148166599Y-102433753D01*
X148146893Y-102448368D01*
X148125850Y-102460980D01*
X148103671Y-102471470D01*
X148080572Y-102479735D01*
X148056773Y-102485696D01*
X148032505Y-102489296D01*
X148008001Y-102490500D01*
X147357999Y-102490500D01*
X147333495Y-102489296D01*
X147309227Y-102485696D01*
X147285428Y-102479735D01*
X147262329Y-102471470D01*
X147240150Y-102460980D01*
X147219107Y-102448368D01*
X147199401Y-102433753D01*
X147181223Y-102417277D01*
X147164747Y-102399099D01*
X147150132Y-102379393D01*
X147137520Y-102358350D01*
X147127030Y-102336171D01*
X147118765Y-102313072D01*
X147112804Y-102289273D01*
X147109204Y-102265005D01*
X147108000Y-102240501D01*
X147108000Y-101340499D01*
X147109204Y-101315995D01*
X147112804Y-101291727D01*
X147118765Y-101267928D01*
X147127030Y-101244829D01*
X147137520Y-101222650D01*
X147150132Y-101201607D01*
X147164747Y-101181901D01*
X147181223Y-101163723D01*
X147199401Y-101147247D01*
X147219107Y-101132632D01*
X147240150Y-101120020D01*
X147262329Y-101109530D01*
X147285428Y-101101265D01*
X147309227Y-101095304D01*
X147333495Y-101091704D01*
X147357999Y-101090500D01*
X148008001Y-101090500D01*
X148032505Y-101091704D01*
X148032505Y-101091704D01*
G37*
D11*
X147683000Y-101790500D03*
D10*
G36*
X150082505Y-101091704D02*
X150106773Y-101095304D01*
X150130572Y-101101265D01*
X150153671Y-101109530D01*
X150175850Y-101120020D01*
X150196893Y-101132632D01*
X150216599Y-101147247D01*
X150234777Y-101163723D01*
X150251253Y-101181901D01*
X150265868Y-101201607D01*
X150278480Y-101222650D01*
X150288970Y-101244829D01*
X150297235Y-101267928D01*
X150303196Y-101291727D01*
X150306796Y-101315995D01*
X150308000Y-101340499D01*
X150308000Y-102240501D01*
X150306796Y-102265005D01*
X150303196Y-102289273D01*
X150297235Y-102313072D01*
X150288970Y-102336171D01*
X150278480Y-102358350D01*
X150265868Y-102379393D01*
X150251253Y-102399099D01*
X150234777Y-102417277D01*
X150216599Y-102433753D01*
X150196893Y-102448368D01*
X150175850Y-102460980D01*
X150153671Y-102471470D01*
X150130572Y-102479735D01*
X150106773Y-102485696D01*
X150082505Y-102489296D01*
X150058001Y-102490500D01*
X149407999Y-102490500D01*
X149383495Y-102489296D01*
X149359227Y-102485696D01*
X149335428Y-102479735D01*
X149312329Y-102471470D01*
X149290150Y-102460980D01*
X149269107Y-102448368D01*
X149249401Y-102433753D01*
X149231223Y-102417277D01*
X149214747Y-102399099D01*
X149200132Y-102379393D01*
X149187520Y-102358350D01*
X149177030Y-102336171D01*
X149168765Y-102313072D01*
X149162804Y-102289273D01*
X149159204Y-102265005D01*
X149158000Y-102240501D01*
X149158000Y-101340499D01*
X149159204Y-101315995D01*
X149162804Y-101291727D01*
X149168765Y-101267928D01*
X149177030Y-101244829D01*
X149187520Y-101222650D01*
X149200132Y-101201607D01*
X149214747Y-101181901D01*
X149231223Y-101163723D01*
X149249401Y-101147247D01*
X149269107Y-101132632D01*
X149290150Y-101120020D01*
X149312329Y-101109530D01*
X149335428Y-101101265D01*
X149359227Y-101095304D01*
X149383495Y-101091704D01*
X149407999Y-101090500D01*
X150058001Y-101090500D01*
X150082505Y-101091704D01*
X150082505Y-101091704D01*
G37*
D11*
X149733000Y-101790500D03*
G04 #@! TD*
D10*
G04 #@! TO.C,R4*
G36*
X162780505Y-103270404D02*
X162804773Y-103274004D01*
X162828572Y-103279965D01*
X162851671Y-103288230D01*
X162873850Y-103298720D01*
X162894893Y-103311332D01*
X162914599Y-103325947D01*
X162932777Y-103342423D01*
X162949253Y-103360601D01*
X162963868Y-103380307D01*
X162976480Y-103401350D01*
X162986970Y-103423529D01*
X162995235Y-103446628D01*
X163001196Y-103470427D01*
X163004796Y-103494695D01*
X163006000Y-103519199D01*
X163006000Y-104169201D01*
X163004796Y-104193705D01*
X163001196Y-104217973D01*
X162995235Y-104241772D01*
X162986970Y-104264871D01*
X162976480Y-104287050D01*
X162963868Y-104308093D01*
X162949253Y-104327799D01*
X162932777Y-104345977D01*
X162914599Y-104362453D01*
X162894893Y-104377068D01*
X162873850Y-104389680D01*
X162851671Y-104400170D01*
X162828572Y-104408435D01*
X162804773Y-104414396D01*
X162780505Y-104417996D01*
X162756001Y-104419200D01*
X161855999Y-104419200D01*
X161831495Y-104417996D01*
X161807227Y-104414396D01*
X161783428Y-104408435D01*
X161760329Y-104400170D01*
X161738150Y-104389680D01*
X161717107Y-104377068D01*
X161697401Y-104362453D01*
X161679223Y-104345977D01*
X161662747Y-104327799D01*
X161648132Y-104308093D01*
X161635520Y-104287050D01*
X161625030Y-104264871D01*
X161616765Y-104241772D01*
X161610804Y-104217973D01*
X161607204Y-104193705D01*
X161606000Y-104169201D01*
X161606000Y-103519199D01*
X161607204Y-103494695D01*
X161610804Y-103470427D01*
X161616765Y-103446628D01*
X161625030Y-103423529D01*
X161635520Y-103401350D01*
X161648132Y-103380307D01*
X161662747Y-103360601D01*
X161679223Y-103342423D01*
X161697401Y-103325947D01*
X161717107Y-103311332D01*
X161738150Y-103298720D01*
X161760329Y-103288230D01*
X161783428Y-103279965D01*
X161807227Y-103274004D01*
X161831495Y-103270404D01*
X161855999Y-103269200D01*
X162756001Y-103269200D01*
X162780505Y-103270404D01*
X162780505Y-103270404D01*
G37*
D11*
X162306000Y-103844200D03*
D10*
G36*
X162780505Y-101220404D02*
X162804773Y-101224004D01*
X162828572Y-101229965D01*
X162851671Y-101238230D01*
X162873850Y-101248720D01*
X162894893Y-101261332D01*
X162914599Y-101275947D01*
X162932777Y-101292423D01*
X162949253Y-101310601D01*
X162963868Y-101330307D01*
X162976480Y-101351350D01*
X162986970Y-101373529D01*
X162995235Y-101396628D01*
X163001196Y-101420427D01*
X163004796Y-101444695D01*
X163006000Y-101469199D01*
X163006000Y-102119201D01*
X163004796Y-102143705D01*
X163001196Y-102167973D01*
X162995235Y-102191772D01*
X162986970Y-102214871D01*
X162976480Y-102237050D01*
X162963868Y-102258093D01*
X162949253Y-102277799D01*
X162932777Y-102295977D01*
X162914599Y-102312453D01*
X162894893Y-102327068D01*
X162873850Y-102339680D01*
X162851671Y-102350170D01*
X162828572Y-102358435D01*
X162804773Y-102364396D01*
X162780505Y-102367996D01*
X162756001Y-102369200D01*
X161855999Y-102369200D01*
X161831495Y-102367996D01*
X161807227Y-102364396D01*
X161783428Y-102358435D01*
X161760329Y-102350170D01*
X161738150Y-102339680D01*
X161717107Y-102327068D01*
X161697401Y-102312453D01*
X161679223Y-102295977D01*
X161662747Y-102277799D01*
X161648132Y-102258093D01*
X161635520Y-102237050D01*
X161625030Y-102214871D01*
X161616765Y-102191772D01*
X161610804Y-102167973D01*
X161607204Y-102143705D01*
X161606000Y-102119201D01*
X161606000Y-101469199D01*
X161607204Y-101444695D01*
X161610804Y-101420427D01*
X161616765Y-101396628D01*
X161625030Y-101373529D01*
X161635520Y-101351350D01*
X161648132Y-101330307D01*
X161662747Y-101310601D01*
X161679223Y-101292423D01*
X161697401Y-101275947D01*
X161717107Y-101261332D01*
X161738150Y-101248720D01*
X161760329Y-101238230D01*
X161783428Y-101229965D01*
X161807227Y-101224004D01*
X161831495Y-101220404D01*
X161855999Y-101219200D01*
X162756001Y-101219200D01*
X162780505Y-101220404D01*
X162780505Y-101220404D01*
G37*
D11*
X162306000Y-101794200D03*
G04 #@! TD*
D10*
G04 #@! TO.C,R5*
G36*
X142714505Y-110289804D02*
X142738773Y-110293404D01*
X142762572Y-110299365D01*
X142785671Y-110307630D01*
X142807850Y-110318120D01*
X142828893Y-110330732D01*
X142848599Y-110345347D01*
X142866777Y-110361823D01*
X142883253Y-110380001D01*
X142897868Y-110399707D01*
X142910480Y-110420750D01*
X142920970Y-110442929D01*
X142929235Y-110466028D01*
X142935196Y-110489827D01*
X142938796Y-110514095D01*
X142940000Y-110538599D01*
X142940000Y-111188601D01*
X142938796Y-111213105D01*
X142935196Y-111237373D01*
X142929235Y-111261172D01*
X142920970Y-111284271D01*
X142910480Y-111306450D01*
X142897868Y-111327493D01*
X142883253Y-111347199D01*
X142866777Y-111365377D01*
X142848599Y-111381853D01*
X142828893Y-111396468D01*
X142807850Y-111409080D01*
X142785671Y-111419570D01*
X142762572Y-111427835D01*
X142738773Y-111433796D01*
X142714505Y-111437396D01*
X142690001Y-111438600D01*
X141789999Y-111438600D01*
X141765495Y-111437396D01*
X141741227Y-111433796D01*
X141717428Y-111427835D01*
X141694329Y-111419570D01*
X141672150Y-111409080D01*
X141651107Y-111396468D01*
X141631401Y-111381853D01*
X141613223Y-111365377D01*
X141596747Y-111347199D01*
X141582132Y-111327493D01*
X141569520Y-111306450D01*
X141559030Y-111284271D01*
X141550765Y-111261172D01*
X141544804Y-111237373D01*
X141541204Y-111213105D01*
X141540000Y-111188601D01*
X141540000Y-110538599D01*
X141541204Y-110514095D01*
X141544804Y-110489827D01*
X141550765Y-110466028D01*
X141559030Y-110442929D01*
X141569520Y-110420750D01*
X141582132Y-110399707D01*
X141596747Y-110380001D01*
X141613223Y-110361823D01*
X141631401Y-110345347D01*
X141651107Y-110330732D01*
X141672150Y-110318120D01*
X141694329Y-110307630D01*
X141717428Y-110299365D01*
X141741227Y-110293404D01*
X141765495Y-110289804D01*
X141789999Y-110288600D01*
X142690001Y-110288600D01*
X142714505Y-110289804D01*
X142714505Y-110289804D01*
G37*
D11*
X142240000Y-110863600D03*
D10*
G36*
X142714505Y-108239804D02*
X142738773Y-108243404D01*
X142762572Y-108249365D01*
X142785671Y-108257630D01*
X142807850Y-108268120D01*
X142828893Y-108280732D01*
X142848599Y-108295347D01*
X142866777Y-108311823D01*
X142883253Y-108330001D01*
X142897868Y-108349707D01*
X142910480Y-108370750D01*
X142920970Y-108392929D01*
X142929235Y-108416028D01*
X142935196Y-108439827D01*
X142938796Y-108464095D01*
X142940000Y-108488599D01*
X142940000Y-109138601D01*
X142938796Y-109163105D01*
X142935196Y-109187373D01*
X142929235Y-109211172D01*
X142920970Y-109234271D01*
X142910480Y-109256450D01*
X142897868Y-109277493D01*
X142883253Y-109297199D01*
X142866777Y-109315377D01*
X142848599Y-109331853D01*
X142828893Y-109346468D01*
X142807850Y-109359080D01*
X142785671Y-109369570D01*
X142762572Y-109377835D01*
X142738773Y-109383796D01*
X142714505Y-109387396D01*
X142690001Y-109388600D01*
X141789999Y-109388600D01*
X141765495Y-109387396D01*
X141741227Y-109383796D01*
X141717428Y-109377835D01*
X141694329Y-109369570D01*
X141672150Y-109359080D01*
X141651107Y-109346468D01*
X141631401Y-109331853D01*
X141613223Y-109315377D01*
X141596747Y-109297199D01*
X141582132Y-109277493D01*
X141569520Y-109256450D01*
X141559030Y-109234271D01*
X141550765Y-109211172D01*
X141544804Y-109187373D01*
X141541204Y-109163105D01*
X141540000Y-109138601D01*
X141540000Y-108488599D01*
X141541204Y-108464095D01*
X141544804Y-108439827D01*
X141550765Y-108416028D01*
X141559030Y-108392929D01*
X141569520Y-108370750D01*
X141582132Y-108349707D01*
X141596747Y-108330001D01*
X141613223Y-108311823D01*
X141631401Y-108295347D01*
X141651107Y-108280732D01*
X141672150Y-108268120D01*
X141694329Y-108257630D01*
X141717428Y-108249365D01*
X141741227Y-108243404D01*
X141765495Y-108239804D01*
X141789999Y-108238600D01*
X142690001Y-108238600D01*
X142714505Y-108239804D01*
X142714505Y-108239804D01*
G37*
D11*
X142240000Y-108813600D03*
G04 #@! TD*
D10*
G04 #@! TO.C,R6*
G36*
X116106305Y-104355604D02*
X116130573Y-104359204D01*
X116154372Y-104365165D01*
X116177471Y-104373430D01*
X116199650Y-104383920D01*
X116220693Y-104396532D01*
X116240399Y-104411147D01*
X116258577Y-104427623D01*
X116275053Y-104445801D01*
X116289668Y-104465507D01*
X116302280Y-104486550D01*
X116312770Y-104508729D01*
X116321035Y-104531828D01*
X116326996Y-104555627D01*
X116330596Y-104579895D01*
X116331800Y-104604399D01*
X116331800Y-105504401D01*
X116330596Y-105528905D01*
X116326996Y-105553173D01*
X116321035Y-105576972D01*
X116312770Y-105600071D01*
X116302280Y-105622250D01*
X116289668Y-105643293D01*
X116275053Y-105662999D01*
X116258577Y-105681177D01*
X116240399Y-105697653D01*
X116220693Y-105712268D01*
X116199650Y-105724880D01*
X116177471Y-105735370D01*
X116154372Y-105743635D01*
X116130573Y-105749596D01*
X116106305Y-105753196D01*
X116081801Y-105754400D01*
X115431799Y-105754400D01*
X115407295Y-105753196D01*
X115383027Y-105749596D01*
X115359228Y-105743635D01*
X115336129Y-105735370D01*
X115313950Y-105724880D01*
X115292907Y-105712268D01*
X115273201Y-105697653D01*
X115255023Y-105681177D01*
X115238547Y-105662999D01*
X115223932Y-105643293D01*
X115211320Y-105622250D01*
X115200830Y-105600071D01*
X115192565Y-105576972D01*
X115186604Y-105553173D01*
X115183004Y-105528905D01*
X115181800Y-105504401D01*
X115181800Y-104604399D01*
X115183004Y-104579895D01*
X115186604Y-104555627D01*
X115192565Y-104531828D01*
X115200830Y-104508729D01*
X115211320Y-104486550D01*
X115223932Y-104465507D01*
X115238547Y-104445801D01*
X115255023Y-104427623D01*
X115273201Y-104411147D01*
X115292907Y-104396532D01*
X115313950Y-104383920D01*
X115336129Y-104373430D01*
X115359228Y-104365165D01*
X115383027Y-104359204D01*
X115407295Y-104355604D01*
X115431799Y-104354400D01*
X116081801Y-104354400D01*
X116106305Y-104355604D01*
X116106305Y-104355604D01*
G37*
D11*
X115756800Y-105054400D03*
D10*
G36*
X114056305Y-104355604D02*
X114080573Y-104359204D01*
X114104372Y-104365165D01*
X114127471Y-104373430D01*
X114149650Y-104383920D01*
X114170693Y-104396532D01*
X114190399Y-104411147D01*
X114208577Y-104427623D01*
X114225053Y-104445801D01*
X114239668Y-104465507D01*
X114252280Y-104486550D01*
X114262770Y-104508729D01*
X114271035Y-104531828D01*
X114276996Y-104555627D01*
X114280596Y-104579895D01*
X114281800Y-104604399D01*
X114281800Y-105504401D01*
X114280596Y-105528905D01*
X114276996Y-105553173D01*
X114271035Y-105576972D01*
X114262770Y-105600071D01*
X114252280Y-105622250D01*
X114239668Y-105643293D01*
X114225053Y-105662999D01*
X114208577Y-105681177D01*
X114190399Y-105697653D01*
X114170693Y-105712268D01*
X114149650Y-105724880D01*
X114127471Y-105735370D01*
X114104372Y-105743635D01*
X114080573Y-105749596D01*
X114056305Y-105753196D01*
X114031801Y-105754400D01*
X113381799Y-105754400D01*
X113357295Y-105753196D01*
X113333027Y-105749596D01*
X113309228Y-105743635D01*
X113286129Y-105735370D01*
X113263950Y-105724880D01*
X113242907Y-105712268D01*
X113223201Y-105697653D01*
X113205023Y-105681177D01*
X113188547Y-105662999D01*
X113173932Y-105643293D01*
X113161320Y-105622250D01*
X113150830Y-105600071D01*
X113142565Y-105576972D01*
X113136604Y-105553173D01*
X113133004Y-105528905D01*
X113131800Y-105504401D01*
X113131800Y-104604399D01*
X113133004Y-104579895D01*
X113136604Y-104555627D01*
X113142565Y-104531828D01*
X113150830Y-104508729D01*
X113161320Y-104486550D01*
X113173932Y-104465507D01*
X113188547Y-104445801D01*
X113205023Y-104427623D01*
X113223201Y-104411147D01*
X113242907Y-104396532D01*
X113263950Y-104383920D01*
X113286129Y-104373430D01*
X113309228Y-104365165D01*
X113333027Y-104359204D01*
X113357295Y-104355604D01*
X113381799Y-104354400D01*
X114031801Y-104354400D01*
X114056305Y-104355604D01*
X114056305Y-104355604D01*
G37*
D11*
X113706800Y-105054400D03*
G04 #@! TD*
D10*
G04 #@! TO.C,R7*
G36*
X116374705Y-112321804D02*
X116398973Y-112325404D01*
X116422772Y-112331365D01*
X116445871Y-112339630D01*
X116468050Y-112350120D01*
X116489093Y-112362732D01*
X116508799Y-112377347D01*
X116526977Y-112393823D01*
X116543453Y-112412001D01*
X116558068Y-112431707D01*
X116570680Y-112452750D01*
X116581170Y-112474929D01*
X116589435Y-112498028D01*
X116595396Y-112521827D01*
X116598996Y-112546095D01*
X116600200Y-112570599D01*
X116600200Y-113220601D01*
X116598996Y-113245105D01*
X116595396Y-113269373D01*
X116589435Y-113293172D01*
X116581170Y-113316271D01*
X116570680Y-113338450D01*
X116558068Y-113359493D01*
X116543453Y-113379199D01*
X116526977Y-113397377D01*
X116508799Y-113413853D01*
X116489093Y-113428468D01*
X116468050Y-113441080D01*
X116445871Y-113451570D01*
X116422772Y-113459835D01*
X116398973Y-113465796D01*
X116374705Y-113469396D01*
X116350201Y-113470600D01*
X115450199Y-113470600D01*
X115425695Y-113469396D01*
X115401427Y-113465796D01*
X115377628Y-113459835D01*
X115354529Y-113451570D01*
X115332350Y-113441080D01*
X115311307Y-113428468D01*
X115291601Y-113413853D01*
X115273423Y-113397377D01*
X115256947Y-113379199D01*
X115242332Y-113359493D01*
X115229720Y-113338450D01*
X115219230Y-113316271D01*
X115210965Y-113293172D01*
X115205004Y-113269373D01*
X115201404Y-113245105D01*
X115200200Y-113220601D01*
X115200200Y-112570599D01*
X115201404Y-112546095D01*
X115205004Y-112521827D01*
X115210965Y-112498028D01*
X115219230Y-112474929D01*
X115229720Y-112452750D01*
X115242332Y-112431707D01*
X115256947Y-112412001D01*
X115273423Y-112393823D01*
X115291601Y-112377347D01*
X115311307Y-112362732D01*
X115332350Y-112350120D01*
X115354529Y-112339630D01*
X115377628Y-112331365D01*
X115401427Y-112325404D01*
X115425695Y-112321804D01*
X115450199Y-112320600D01*
X116350201Y-112320600D01*
X116374705Y-112321804D01*
X116374705Y-112321804D01*
G37*
D11*
X115900200Y-112895600D03*
D10*
G36*
X116374705Y-110271804D02*
X116398973Y-110275404D01*
X116422772Y-110281365D01*
X116445871Y-110289630D01*
X116468050Y-110300120D01*
X116489093Y-110312732D01*
X116508799Y-110327347D01*
X116526977Y-110343823D01*
X116543453Y-110362001D01*
X116558068Y-110381707D01*
X116570680Y-110402750D01*
X116581170Y-110424929D01*
X116589435Y-110448028D01*
X116595396Y-110471827D01*
X116598996Y-110496095D01*
X116600200Y-110520599D01*
X116600200Y-111170601D01*
X116598996Y-111195105D01*
X116595396Y-111219373D01*
X116589435Y-111243172D01*
X116581170Y-111266271D01*
X116570680Y-111288450D01*
X116558068Y-111309493D01*
X116543453Y-111329199D01*
X116526977Y-111347377D01*
X116508799Y-111363853D01*
X116489093Y-111378468D01*
X116468050Y-111391080D01*
X116445871Y-111401570D01*
X116422772Y-111409835D01*
X116398973Y-111415796D01*
X116374705Y-111419396D01*
X116350201Y-111420600D01*
X115450199Y-111420600D01*
X115425695Y-111419396D01*
X115401427Y-111415796D01*
X115377628Y-111409835D01*
X115354529Y-111401570D01*
X115332350Y-111391080D01*
X115311307Y-111378468D01*
X115291601Y-111363853D01*
X115273423Y-111347377D01*
X115256947Y-111329199D01*
X115242332Y-111309493D01*
X115229720Y-111288450D01*
X115219230Y-111266271D01*
X115210965Y-111243172D01*
X115205004Y-111219373D01*
X115201404Y-111195105D01*
X115200200Y-111170601D01*
X115200200Y-110520599D01*
X115201404Y-110496095D01*
X115205004Y-110471827D01*
X115210965Y-110448028D01*
X115219230Y-110424929D01*
X115229720Y-110402750D01*
X115242332Y-110381707D01*
X115256947Y-110362001D01*
X115273423Y-110343823D01*
X115291601Y-110327347D01*
X115311307Y-110312732D01*
X115332350Y-110300120D01*
X115354529Y-110289630D01*
X115377628Y-110281365D01*
X115401427Y-110275404D01*
X115425695Y-110271804D01*
X115450199Y-110270600D01*
X116350201Y-110270600D01*
X116374705Y-110271804D01*
X116374705Y-110271804D01*
G37*
D11*
X115900200Y-110845600D03*
G04 #@! TD*
D17*
G04 #@! TO.C,U1*
X150510200Y-107772200D03*
X150510200Y-109042200D03*
X150510200Y-110312200D03*
X150510200Y-111582200D03*
X145110200Y-111582200D03*
X145110200Y-110312200D03*
X145110200Y-109042200D03*
X145110200Y-107772200D03*
G04 #@! TD*
D18*
G04 #@! TO.C,U2*
X159689800Y-103797100D03*
X159689800Y-102847100D03*
X159689800Y-101897100D03*
X156989800Y-101897100D03*
X156989800Y-103797100D03*
X156989800Y-102847100D03*
G04 #@! TD*
D17*
G04 #@! TO.C,U4*
X120718600Y-101803200D03*
X120718600Y-103073200D03*
X120718600Y-104343200D03*
X120718600Y-105613200D03*
X126118600Y-105613200D03*
X126118600Y-104343200D03*
X126118600Y-103073200D03*
X126118600Y-101803200D03*
G04 #@! TD*
D10*
G04 #@! TO.C,C5*
G36*
X132137405Y-101358404D02*
X132161673Y-101362004D01*
X132185472Y-101367965D01*
X132208571Y-101376230D01*
X132230750Y-101386720D01*
X132251793Y-101399332D01*
X132271499Y-101413947D01*
X132289677Y-101430423D01*
X132306153Y-101448601D01*
X132320768Y-101468307D01*
X132333380Y-101489350D01*
X132343870Y-101511529D01*
X132352135Y-101534628D01*
X132358096Y-101558427D01*
X132361696Y-101582695D01*
X132362900Y-101607199D01*
X132362900Y-102507201D01*
X132361696Y-102531705D01*
X132358096Y-102555973D01*
X132352135Y-102579772D01*
X132343870Y-102602871D01*
X132333380Y-102625050D01*
X132320768Y-102646093D01*
X132306153Y-102665799D01*
X132289677Y-102683977D01*
X132271499Y-102700453D01*
X132251793Y-102715068D01*
X132230750Y-102727680D01*
X132208571Y-102738170D01*
X132185472Y-102746435D01*
X132161673Y-102752396D01*
X132137405Y-102755996D01*
X132112901Y-102757200D01*
X131462899Y-102757200D01*
X131438395Y-102755996D01*
X131414127Y-102752396D01*
X131390328Y-102746435D01*
X131367229Y-102738170D01*
X131345050Y-102727680D01*
X131324007Y-102715068D01*
X131304301Y-102700453D01*
X131286123Y-102683977D01*
X131269647Y-102665799D01*
X131255032Y-102646093D01*
X131242420Y-102625050D01*
X131231930Y-102602871D01*
X131223665Y-102579772D01*
X131217704Y-102555973D01*
X131214104Y-102531705D01*
X131212900Y-102507201D01*
X131212900Y-101607199D01*
X131214104Y-101582695D01*
X131217704Y-101558427D01*
X131223665Y-101534628D01*
X131231930Y-101511529D01*
X131242420Y-101489350D01*
X131255032Y-101468307D01*
X131269647Y-101448601D01*
X131286123Y-101430423D01*
X131304301Y-101413947D01*
X131324007Y-101399332D01*
X131345050Y-101386720D01*
X131367229Y-101376230D01*
X131390328Y-101367965D01*
X131414127Y-101362004D01*
X131438395Y-101358404D01*
X131462899Y-101357200D01*
X132112901Y-101357200D01*
X132137405Y-101358404D01*
X132137405Y-101358404D01*
G37*
D11*
X131787900Y-102057200D03*
D10*
G36*
X134187405Y-101358404D02*
X134211673Y-101362004D01*
X134235472Y-101367965D01*
X134258571Y-101376230D01*
X134280750Y-101386720D01*
X134301793Y-101399332D01*
X134321499Y-101413947D01*
X134339677Y-101430423D01*
X134356153Y-101448601D01*
X134370768Y-101468307D01*
X134383380Y-101489350D01*
X134393870Y-101511529D01*
X134402135Y-101534628D01*
X134408096Y-101558427D01*
X134411696Y-101582695D01*
X134412900Y-101607199D01*
X134412900Y-102507201D01*
X134411696Y-102531705D01*
X134408096Y-102555973D01*
X134402135Y-102579772D01*
X134393870Y-102602871D01*
X134383380Y-102625050D01*
X134370768Y-102646093D01*
X134356153Y-102665799D01*
X134339677Y-102683977D01*
X134321499Y-102700453D01*
X134301793Y-102715068D01*
X134280750Y-102727680D01*
X134258571Y-102738170D01*
X134235472Y-102746435D01*
X134211673Y-102752396D01*
X134187405Y-102755996D01*
X134162901Y-102757200D01*
X133512899Y-102757200D01*
X133488395Y-102755996D01*
X133464127Y-102752396D01*
X133440328Y-102746435D01*
X133417229Y-102738170D01*
X133395050Y-102727680D01*
X133374007Y-102715068D01*
X133354301Y-102700453D01*
X133336123Y-102683977D01*
X133319647Y-102665799D01*
X133305032Y-102646093D01*
X133292420Y-102625050D01*
X133281930Y-102602871D01*
X133273665Y-102579772D01*
X133267704Y-102555973D01*
X133264104Y-102531705D01*
X133262900Y-102507201D01*
X133262900Y-101607199D01*
X133264104Y-101582695D01*
X133267704Y-101558427D01*
X133273665Y-101534628D01*
X133281930Y-101511529D01*
X133292420Y-101489350D01*
X133305032Y-101468307D01*
X133319647Y-101448601D01*
X133336123Y-101430423D01*
X133354301Y-101413947D01*
X133374007Y-101399332D01*
X133395050Y-101386720D01*
X133417229Y-101376230D01*
X133440328Y-101367965D01*
X133464127Y-101362004D01*
X133488395Y-101358404D01*
X133512899Y-101357200D01*
X134162901Y-101357200D01*
X134187405Y-101358404D01*
X134187405Y-101358404D01*
G37*
D11*
X133837900Y-102057200D03*
G04 #@! TD*
M02*
